<svg xmlns="http://www.w3.org/2000/svg" viewBox="0 0 85.19 78.88"><defs><style>.cls-1{fill:#e7e2e6;}.cls-2{fill:#606363;}.cls-3{fill:#adadad;}.cls-4{fill:#fff;}</style></defs><title>Asset 1</title><g id="Layer_2" data-name="Layer 2"><g id="Site"><rect class="cls-1" x="1" y="48.12" width="65.54" height="29.76"/><polygon class="cls-2" points="67.55 78.88 0 78.88 0 47.12 25.46 47.12 25.46 49.12 2 49.12 2 76.88 65.54 76.88 65.54 49.12 42.5 49.12 42.5 47.12 67.55 47.12 67.55 78.88"/><rect class="cls-2" x="23.06" y="64.68" width="19.63" height="2" transform="translate(-36.89 42.72) rotate(-45.2)"/><path class="cls-2" d="M28.68,64.33a3.62,3.62,0,1,1,3.6-3.62A3.61,3.61,0,0,1,28.68,64.33Zm0-5.23a1.62,1.62,0,0,0,0,3.23,1.62,1.62,0,0,0,0-3.23Z"/><path class="cls-2" d="M37.67,73.64A3.62,3.62,0,1,1,41.27,70,3.61,3.61,0,0,1,37.67,73.64Zm0-5.23A1.62,1.62,0,1,0,39.27,70,1.62,1.62,0,0,0,37.67,68.41Z"/><circle class="cls-3" cx="33.77" cy="42.72" r="10.26" transform="translate(-13.8 69.21) rotate(-80.78)"/><path class="cls-2" d="M33.77,54A11.26,11.26,0,1,1,45,42.72,11.27,11.27,0,0,1,33.77,54Zm0-20.52A9.26,9.26,0,1,0,43,42.72,9.27,9.27,0,0,0,33.77,33.46Z"/><rect class="cls-2" x="22.21" y="51.98" width="22.61" height="2"/><path class="cls-4" d="M36.84,44.74a2.45,2.45,0,0,1-2.55,2.42v1.59h-.88V47.14a4.62,4.62,0,0,1-2.7-1.29L31.4,45a3.74,3.74,0,0,0,2.54,1.09c1,0,1.69-.48,1.69-1.31s-.76-1.26-2-1.64c-1.44-.47-2.76-.92-2.76-2.49a2.34,2.34,0,0,1,2.51-2.33V36.68h.88v1.73a5.27,5.27,0,0,1,2.24,1l-.66.82a4,4,0,0,0-2.22-.78c-.92,0-1.56.43-1.56,1.2s.8,1.13,1.9,1.49c1.62.51,2.85.94,2.85,2.64Z"/><path class="cls-4" d="M80.73,11h-.14a21.39,21.39,0,0,1-13-4.44A23.36,23.36,0,0,0,52.47,1H25.29a5.09,5.09,0,0,0-5.14,4.65,5,5,0,0,0,5,5.31H35.28s-1.61,1.58-3.12,3.33c-2.3,2.66-6.54,10-6.54,10a5,5,0,1,0,8.9,4.4l3.71-5.88A26.47,26.47,0,0,1,45.9,15L47,14.2a8.89,8.89,0,0,1,13.85,7.29v.1A10.63,10.63,0,0,1,50.25,32.22H35.5a4.71,4.71,0,0,0-4.74,4.3,4.6,4.6,0,0,0,4.59,4.9h24a20.87,20.87,0,0,0,11.41-3.54,21.56,21.56,0,0,1,11.81-3.52h1.57V11Z"/><path class="cls-2" d="M59,42.42H35.35a5.6,5.6,0,0,1-2.71-10.5,6.07,6.07,0,0,1-.8.32,6,6,0,0,1-7.11-8.35l0-.08,3.85-6.27A35.29,35.29,0,0,1,32.87,12H25.11a6,6,0,0,1,0-12H52.47A24.35,24.35,0,0,1,68.18,5.75,20.54,20.54,0,0,0,80.59,10h4.6v25.4H82.62a20.45,20.45,0,0,0-11.27,3.37A22.52,22.52,0,0,1,59,42.42ZM35.35,33.23a3.6,3.6,0,1,0,0,7.19H59a20.54,20.54,0,0,0,11.27-3.37,22.44,22.44,0,0,1,12.36-3.69h.57V12h-2.6A22.5,22.5,0,0,1,66.93,7.31,22.45,22.45,0,0,0,52.47,2H50L40.55,8.11A33.44,33.44,0,0,0,30.32,18.59L26.5,24.82A4,4,0,0,0,28.13,30a4,4,0,0,0,5.49-1.71l.05-.09,3.71-5.89a27.54,27.54,0,0,1,8-8.19l1.1-.74a9.84,9.84,0,0,1,10.18-.53,9.7,9.7,0,0,1,5.26,8.55v.19A11.65,11.65,0,0,1,50.25,33.23Zm0-4A6,6,0,0,1,33,31.76a5.43,5.43,0,0,1,2.38-.54h14.9a9.64,9.64,0,0,0,9.63-9.63v-.17a7.69,7.69,0,0,0-4.19-6.8,7.83,7.83,0,0,0-8.12.43l-1.11.74a25.32,25.32,0,0,0-7.38,7.59ZM25.11,2a4,4,0,0,0,0,8H34.9a35.36,35.36,0,0,1,4.56-3.53L46.29,2Z"/><polygon class="cls-4" points="49.68 1 49.68 1 49.68 1 49.68 1"/></g></g></svg>