<svg xmlns="http://www.w3.org/2000/svg" viewBox="0 0 81.75 76.84"><defs><style>.cls-1{fill:#cac2cd;}.cls-2{fill:#fff;}.cls-3{fill:#606363;}</style></defs><title>Asset 3</title><g id="Layer_2" data-name="Layer 2"><g id="Site"><polygon class="cls-1" points="70.05 17.72 40.88 17.72 11.71 17.72 4.33 31.95 40.88 75.39 77.42 31.95 70.05 17.72"/><polygon class="cls-2" points="40.88 31.95 57.81 18.29 74.5 31.95 40.88 31.95"/><polygon class="cls-2" points="4.99 31.95 22.72 18.29 40.88 31.95 4.99 31.95"/><polygon class="cls-3" points="77.13 32.88 52.88 32.88 52.88 31.01 71.88 31.01 57.78 19.48 40.89 32.11 23.33 19.45 4.88 32.71 3.79 31.18 23.33 17.14 40.87 29.79 57.83 17.1 77.13 32.88"/><rect class="cls-3" x="4.99" y="31.01" width="49.01" height="1.88"/><rect class="cls-3" x="25.03" y="52.73" width="45.62" height="1.87" transform="matrix(0.31, -0.95, 0.95, 0.31, -17.87, 82.85)"/><path class="cls-3" d="M40.88,76.84,3.21,32.07l7.93-15.29H70.62l7.92,15.29Zm-35.43-45L40.88,73.93,76.3,31.82,69.48,18.66H12.28Z"/><rect class="cls-3" x="32.97" y="30.86" width="1.87" height="45.62" transform="translate(-14.77 12.92) rotate(-17.78)"/><rect class="cls-3" x="39.94" width="1.88" height="10.65"/><rect class="cls-3" x="3.39" y="1.79" width="1.87" height="10.38" transform="translate(-3.67 5.11) rotate(-45)"/><rect class="cls-3" x="72.23" y="6.04" width="10.38" height="1.87" transform="translate(17.74 56.79) rotate(-45)"/></g></g></svg>