<svg xmlns="http://www.w3.org/2000/svg" viewBox="0 0 88.69 79.17"><defs><style>.cls-1{fill:#f5f2f0;}.cls-2{fill:#606363;}.cls-3{fill:#cac2cd;}</style></defs><title>Asset 5</title><g id="Layer_2" data-name="Layer 2"><g id="Site"><circle class="cls-1" cx="45.16" cy="39.59" r="39.59" transform="translate(-11.66 59.03) rotate(-60.13)"/><polygon class="cls-2" points="9.26 43.39 0 35.08 1.5 33.41 9.28 40.41 23.27 28.24 31.83 35.99 51.82 17.73 68.03 34.59 85.62 18.25 87.14 19.89 67.95 37.72 51.72 20.86 31.84 39.02 23.24 31.23 9.26 43.39"/><polygon class="cls-2" points="88.69 29.43 86.45 29.43 86.45 18.94 74.86 18.94 74.86 16.7 88.69 16.7 88.69 29.43"/><circle class="cls-3" cx="51.77" cy="19.29" r="5.3" transform="translate(21.1 65.25) rotate(-76.72)"/><path class="cls-2" d="M51.77,25.72a6.43,6.43,0,1,1,6.42-6.42A6.43,6.43,0,0,1,51.77,25.72Zm0-10.61A4.19,4.19,0,1,0,56,19.3,4.19,4.19,0,0,0,51.77,15.11Z"/><rect class="cls-2" x="17.62" y="41.81" width="2.24" height="28.7"/><rect class="cls-2" x="30.83" y="43.65" width="2.24" height="26.85"/><rect class="cls-2" x="57.26" y="34.4" width="2.24" height="36.11"/><rect class="cls-2" x="44.05" y="34.4" width="2.24" height="36.11"/><rect class="cls-2" x="70.47" y="40.98" width="2.24" height="29.52"/><rect class="cls-2" x="12.6" y="69.39" width="65.13" height="2.24"/></g></g></svg>