<svg id="Layer_1" data-name="Layer 1" xmlns="http://www.w3.org/2000/svg" viewBox="0 0 236 76.68"><defs><style>.cls-1{fill:#fff;}</style></defs><title>logo-pcb-mono</title><g id="_Group_" data-name="&lt;Group&gt;"><g id="_Group_2" data-name="&lt;Group&gt;"><path id="_Compound_Path_" data-name="&lt;Compound Path&gt;" class="cls-1" d="M30.12,67.37l-1.24.79a3.64,3.64,0,0,0-1.2-.92,3.36,3.36,0,0,0-1.44-.31,3.62,3.62,0,0,0-2.77,1.22,4.33,4.33,0,0,0-1.14,3.06,4.23,4.23,0,0,0,1,3,3.51,3.51,0,0,0,2.71,1.13A3.36,3.36,0,0,0,27.51,75,5.62,5.62,0,0,0,29,74l1.07,1A6.69,6.69,0,0,1,28,76.31a5.62,5.62,0,0,1-2.27.46,5.33,5.33,0,0,1-5.46-5.47,5.53,5.53,0,0,1,1.69-4.1,5.75,5.75,0,0,1,4.15-1.64,5.4,5.4,0,0,1,2.26.45A5,5,0,0,1,30.12,67.37Z" transform="translate(0 -0.13)"/><path id="_Compound_Path_2" data-name="&lt;Compound Path&gt;" class="cls-1" d="M41.2,68.72l-.12,4.41v.5A3.44,3.44,0,0,0,41.26,75a.6.6,0,0,0,.58.4,1.46,1.46,0,0,0,.49-.09,2.73,2.73,0,0,0,.51-.26l.49.82a6.31,6.31,0,0,1-1.15.59,2.84,2.84,0,0,1-1,.18,2,2,0,0,1-1.4-.45,1.57,1.57,0,0,1-.52-1.24,7.38,7.38,0,0,1-1.92,1.38,4.49,4.49,0,0,1-1.93.43A3.69,3.69,0,0,1,33,75.82a2.75,2.75,0,0,1-1-2.17A3,3,0,0,1,33.86,71a13.26,13.26,0,0,1,5.47-1.14c0-.08,0-.15,0-.24v-.35a2.62,2.62,0,0,0-.46-1.75A2.06,2.06,0,0,0,37.34,67a4.73,4.73,0,0,0-1.64.33,9.48,9.48,0,0,0-1.9,1l-.91-1.07A12.74,12.74,0,0,1,35.47,66a7,7,0,0,1,2.33-.42,3.88,3.88,0,0,1,2.58.71,2.84,2.84,0,0,1,.82,2.26Zm-1.91,2.11a11.83,11.83,0,0,0-4,.91A2,2,0,0,0,34,73.52a1.71,1.71,0,0,0,.6,1.31,2.16,2.16,0,0,0,1.48.54,2.62,2.62,0,0,0,1.12-.29,16.24,16.24,0,0,0,2-1.18Z" transform="translate(0 -0.13)"/><path id="_Compound_Path_3" data-name="&lt;Compound Path&gt;" class="cls-1" d="M52.9,66.53,52,67.63a5.4,5.4,0,0,0-1.23-.52,5.11,5.11,0,0,0-1.31-.17,3,3,0,0,0-1.69.44,1.34,1.34,0,0,0-.63,1.15c0,.73,1,1.44,3,2.14l.42.16a4,4,0,0,1,1.72,1.09,2.33,2.33,0,0,1,.59,1.58,2.85,2.85,0,0,1-1.14,2.38,4.82,4.82,0,0,1-3.06.89,8,8,0,0,1-2-.24,9.27,9.27,0,0,1-1.9-.73l.88-1.15a8.37,8.37,0,0,0,1.44.6,4.84,4.84,0,0,0,1.32.19A3,3,0,0,0,50.2,75a1.4,1.4,0,0,0,.69-1.18c0-.65-.77-1.29-2.32-1.92l-.06,0a8.91,8.91,0,0,1-2.71-1.49,2.16,2.16,0,0,1-.65-1.59,2.65,2.65,0,0,1,1.16-2.26,5.13,5.13,0,0,1,3.1-.84,7.4,7.4,0,0,1,1.88.22A5.81,5.81,0,0,1,52.9,66.53Z" transform="translate(0 -0.13)"/><path id="_Compound_Path_4" data-name="&lt;Compound Path&gt;" class="cls-1" d="M64.73,68.72l-.13,4.41v.5A3.21,3.21,0,0,0,64.79,75a.6.6,0,0,0,.58.4,1.5,1.5,0,0,0,.49-.09,3.08,3.08,0,0,0,.51-.26l.49.82a6.35,6.35,0,0,1-1.16.59,2.79,2.79,0,0,1-1,.18,2,2,0,0,1-1.4-.45,1.56,1.56,0,0,1-.51-1.24,7.38,7.38,0,0,1-1.92,1.38,4.52,4.52,0,0,1-1.93.43,3.7,3.7,0,0,1-2.52-.89,2.77,2.77,0,0,1-1-2.17A3,3,0,0,1,57.38,71a13.34,13.34,0,0,1,5.47-1.14,1.72,1.72,0,0,0,0-.24v-.35a2.62,2.62,0,0,0-.47-1.75A2,2,0,0,0,60.86,67a4.78,4.78,0,0,0-1.64.33,9.76,9.76,0,0,0-1.9,1l-.91-1.07A13.06,13.06,0,0,1,59,66a7,7,0,0,1,2.33-.42,3.92,3.92,0,0,1,2.58.71,2.84,2.84,0,0,1,.82,2.26Zm-1.92,2.11a11.82,11.82,0,0,0-4,.91,2,2,0,0,0-1.28,1.78,1.67,1.67,0,0,0,.6,1.31,2.13,2.13,0,0,0,1.48.54,2.62,2.62,0,0,0,1.11-.29,14.79,14.79,0,0,0,1.95-1.18Z" transform="translate(0 -0.13)"/><path id="_Compound_Path_5" data-name="&lt;Compound Path&gt;" class="cls-1" d="M85.4,60.51h2.08l-.34,16H85.28l0-1.57a4.22,4.22,0,0,1-1.67,1.37,5.35,5.35,0,0,1-2.29.46,4.7,4.7,0,0,1-3.54-1.52,5.29,5.29,0,0,1-1.44-3.78,5.82,5.82,0,0,1,1.58-4.11A5.17,5.17,0,0,1,83.58,66a6,6,0,0,1,1.7,1.06Zm-.15,8.26A3.4,3.4,0,0,0,84,67.53a3.2,3.2,0,0,0-1.65-.45,3.62,3.62,0,0,0-2.76,1.22,4.94,4.94,0,0,0-.23,6,3.14,3.14,0,0,0,2.49,1,3.62,3.62,0,0,0,1.82-.46,4.63,4.63,0,0,0,1.51-1.44Z" transform="translate(0 -0.13)"/><path id="_Compound_Path_6" data-name="&lt;Compound Path&gt;" class="cls-1" d="M101.41,71H93A5.16,5.16,0,0,0,94,74.21a3.14,3.14,0,0,0,2.61,1.12A4.45,4.45,0,0,0,98.26,75a7.67,7.67,0,0,0,1.79-1.1l1.12,1a11.61,11.61,0,0,1-2.54,1.51,6.42,6.42,0,0,1-2.35.46,5.18,5.18,0,0,1-3.84-1.5A5.26,5.26,0,0,1,91,71.43a5.71,5.71,0,0,1,1.63-4.19,5.53,5.53,0,0,1,4.09-1.64,4.64,4.64,0,0,1,3.5,1.29,5,5,0,0,1,1.24,3.63Zm-2-1.24a3.28,3.28,0,0,0-.78-2.13,2.38,2.38,0,0,0-1.86-.76,3.18,3.18,0,0,0-2.09.72,5,5,0,0,0-1.45,2.17Z" transform="translate(0 -0.13)"/><path id="_Compound_Path_7" data-name="&lt;Compound Path&gt;" class="cls-1" d="M112.75,60.51h1.9l-.16,6.8a4.75,4.75,0,0,1,1.7-1.3,5,5,0,0,1,2.14-.43,4.9,4.9,0,0,1,3.73,1.47,6.26,6.26,0,0,1,1,6.15A5.52,5.52,0,0,1,121.82,75,5.62,5.62,0,0,1,120,76.26a5,5,0,0,1-2.06.43,5.06,5.06,0,0,1-2.11-.41,3.86,3.86,0,0,1-1.53-1.22l0,1.45h-1.9Zm1.64,13a4.61,4.61,0,0,0,1.48,1.36,3.55,3.55,0,0,0,1.77.47A3.24,3.24,0,0,0,120.28,74a5.13,5.13,0,0,0,1-3.32,4,4,0,0,0-.93-2.71,3,3,0,0,0-2.37-1,3.67,3.67,0,0,0-1.78.47,6.89,6.89,0,0,0-1.76,1.44Z" transform="translate(0 -0.13)"/><path id="_Compound_Path_8" data-name="&lt;Compound Path&gt;" class="cls-1" d="M132.32,65.6a6,6,0,0,1,4.22,1.51A5,5,0,0,1,138.18,71a5.56,5.56,0,0,1-1.64,4.24,6.24,6.24,0,0,1-4.47,1.56,5.84,5.84,0,0,1-4.21-1.51,5.22,5.22,0,0,1-1.59-4,5.4,5.4,0,0,1,1.67-4.13A6.11,6.11,0,0,1,132.32,65.6Zm0,1.33a3.7,3.7,0,0,0-2.87,1.19,4.56,4.56,0,0,0-1.1,3.2,4.29,4.29,0,0,0,1.06,3,3.47,3.47,0,0,0,2.69,1.17A3.66,3.66,0,0,0,135,74.27,4.65,4.65,0,0,0,136.08,71a4.2,4.2,0,0,0-1.05-3A3.46,3.46,0,0,0,132.34,66.93Z" transform="translate(0 -0.13)"/><path id="_Compound_Path_9" data-name="&lt;Compound Path&gt;" class="cls-1" d="M141.8,60.51h2l-.34,16h-2Z" transform="translate(0 -0.13)"/><path id="_Compound_Path_10" data-name="&lt;Compound Path&gt;" class="cls-1" d="M154.79,66.53l-.88,1.1a4.92,4.92,0,0,0-2.53-.69,2.92,2.92,0,0,0-1.69.44,1.33,1.33,0,0,0-.64,1.15c0,.73,1,1.44,2.95,2.14l.43.16a4.08,4.08,0,0,1,1.72,1.09,2.37,2.37,0,0,1,.58,1.58,2.87,2.87,0,0,1-1.13,2.38,4.86,4.86,0,0,1-3.06.89,7.89,7.89,0,0,1-1.95-.24,9.06,9.06,0,0,1-1.9-.73l.87-1.15a8.13,8.13,0,0,0,1.45.6,4.72,4.72,0,0,0,1.31.19,3,3,0,0,0,1.77-.48,1.39,1.39,0,0,0,.7-1.18c0-.65-.78-1.29-2.33-1.92l-.06,0a8.91,8.91,0,0,1-2.71-1.49,2.16,2.16,0,0,1-.64-1.59,2.65,2.65,0,0,1,1.15-2.26,5.16,5.16,0,0,1,3.1-.84,7.4,7.4,0,0,1,1.88.22A5.81,5.81,0,0,1,154.79,66.53Z" transform="translate(0 -0.13)"/><path id="_Compound_Path_11" data-name="&lt;Compound Path&gt;" class="cls-1" d="M166.62,68.72l-.12,4.41v.5a3.44,3.44,0,0,0,.18,1.32.6.6,0,0,0,.58.4,1.46,1.46,0,0,0,.49-.09,2.46,2.46,0,0,0,.51-.26l.49.82a6.64,6.64,0,0,1-1.15.59,2.84,2.84,0,0,1-.95.18,2,2,0,0,1-1.4-.45,1.54,1.54,0,0,1-.52-1.24,7.22,7.22,0,0,1-1.92,1.38,4.49,4.49,0,0,1-1.93.43,3.69,3.69,0,0,1-2.51-.89,2.75,2.75,0,0,1-1-2.17A3,3,0,0,1,159.28,71a13.26,13.26,0,0,1,5.47-1.14c0-.08,0-.15,0-.24v-.35a2.56,2.56,0,0,0-.47-1.75,2,2,0,0,0-1.55-.51,4.73,4.73,0,0,0-1.64.33,9.48,9.48,0,0,0-1.9,1l-.92-1.07A13.06,13.06,0,0,1,160.89,66a7.09,7.09,0,0,1,2.33-.42,3.88,3.88,0,0,1,2.58.71,2.84,2.84,0,0,1,.82,2.26Zm-1.91,2.11a11.89,11.89,0,0,0-4,.91,2,2,0,0,0-1.28,1.78,1.71,1.71,0,0,0,.6,1.31,2.16,2.16,0,0,0,1.48.54,2.55,2.55,0,0,0,1.11-.29,15.4,15.4,0,0,0,2-1.18Z" transform="translate(0 -0.13)"/></g><g id="_Group_3" data-name="&lt;Group&gt;"><path id="_Compound_Path_12" data-name="&lt;Compound Path&gt;" class="cls-1" d="M229.36,17.81l-.05-.06A22.19,22.19,0,0,0,213.05,11a22.84,22.84,0,0,0-16.35,6.88A23.15,23.15,0,0,0,190,34.21a23.62,23.62,0,0,0,6.75,16.67,22.69,22.69,0,0,0,16.35,6.89C225.7,57.77,236,47.2,236,34.21A24.34,24.34,0,0,0,229.36,17.81ZM213.05,49.16a13.83,13.83,0,0,1-10.13-4.39,15.23,15.23,0,0,1-4.14-10.56A15,15,0,0,1,202.91,24a13.94,13.94,0,0,1,10.14-4.38,12.79,12.79,0,0,1,10,4.44l.12.13a14.6,14.6,0,0,1,4.35,10,15.05,15.05,0,0,1-4.3,10.54A14.22,14.22,0,0,1,213.05,49.16Z" transform="translate(0 -0.13)"/><g id="_Group_4" data-name="&lt;Group&gt;"><path id="_Compound_Path_13" data-name="&lt;Compound Path&gt;" class="cls-1" d="M23.6,10.73A23.28,23.28,0,0,0,7.19,17.51,24,24,0,0,0,0,34v37.5a4.5,4.5,0,0,0,4.35,4.53,4.33,4.33,0,0,0,4.43-4.53V53.17A22.7,22.7,0,0,0,23.6,58.51,23.86,23.86,0,0,0,47.2,34.45a24.45,24.45,0,0,0-7.13-16.79C36,13.13,30.29,10.73,23.6,10.73Zm0,38.88c-8,0-14.82-6.94-14.82-15.16A15.06,15.06,0,0,1,23.6,19.55,14,14,0,0,1,34,24.08a14.67,14.67,0,0,1,4.09,10.37C38.08,42.81,31.58,49.61,23.6,49.61Z" transform="translate(0 -0.13)"/><path id="_Path_" data-name="&lt;Path&gt;" class="cls-1" d="M94.27,10.85a4.26,4.26,0,0,0-4.35,4.43L89.58,34v0c0,8.26-6.32,14.16-14.39,14.16S60.8,42.3,60.8,34V15.65a4.64,4.64,0,0,0-4.69-4.45,4.58,4.58,0,0,0-4.35,4.45V34a23.57,23.57,0,0,0,6.87,16.81,23.52,23.52,0,0,0,33.12,0A23.57,23.57,0,0,0,98.62,34V15.3A4.51,4.51,0,0,0,94.27,10.85Z" transform="translate(0 -0.13)"/><path id="_Path_2" data-name="&lt;Path&gt;" class="cls-1" d="M146,57.67a4.25,4.25,0,0,1-4.35-4.43l-.34-18.72v0c0-8.26-6.33-14.16-14.4-14.16s-14.39,5.9-14.39,14.16V52.87a4.64,4.64,0,0,1-4.69,4.45,4.58,4.58,0,0,1-4.35-4.45V34.48a23.55,23.55,0,0,1,6.87-16.8,23.5,23.5,0,0,1,33.13,0,23.58,23.58,0,0,1,6.86,16.8V53.22A4.51,4.51,0,0,1,146,57.67Z" transform="translate(0 -0.13)"/><path id="_Path_3" data-name="&lt;Path&gt;" class="cls-1" d="M184.22,48.42h-5.65c-6.24,0-13.86-4.21-14.12-15.91V20.06h19.27a4.26,4.26,0,0,0,4.35-4.36c0-2.83-1.79-4.8-4.35-4.8H164.45V4.58A4.27,4.27,0,0,0,160.18.13a4.37,4.37,0,0,0-4.68,4.45V35h0c.29,7.42,2.72,11.56,6.63,15.66a22.52,22.52,0,0,0,16.42,7h5.65a4.57,4.57,0,0,0,4.35-4.45A4.65,4.65,0,0,0,184.22,48.42Z" transform="translate(0 -0.13)"/></g></g></g></svg>