<svg id="Layer_4" data-name="Layer 4" xmlns="http://www.w3.org/2000/svg" viewBox="0 0 200 131.42"><defs><style>.cls-1{fill:#adb0ba;}</style></defs><title>pcb-ico-mex</title><g id="Layer_2" data-name="Layer 2"><path class="cls-1" d="M153,165.11a4.54,4.54,0,0,1-2.29-.61L136,155.72a2.8,2.8,0,0,0-1.5-.26l-30.62,6.39a6.83,6.83,0,0,1-4.88-1l-31.6-22.13a8,8,0,0,1-2.77-3.94l-5.94-20.86a12.37,12.37,0,0,0-1.13-2.6L25,62.22a4.35,4.35,0,0,0-1-1H22.29l22.39,55a4.18,4.18,0,0,1-2,5.29l-3.81,1.9a4.19,4.19,0,0,1-5.43-1.57L14.59,90.36A11,11,0,0,0,13.1,88.7l-.27-.27-11.31-11a2.71,2.71,0,0,1-.9-3,2.62,2.62,0,0,1,2.73-1.48H9.4L.14,38.29a3.65,3.65,0,0,1,.59-3.21,3.63,3.63,0,0,1,2.9-1.39H20.84a7.76,7.76,0,0,1,4.5,1.43L39.85,46.57h0a4.39,4.39,0,0,0,1.63.19h8.81V44.68c0-2.46,3-4.46,5-4.46H69a6.23,6.23,0,0,1,4.59,2.11l11.45,14.2a8.2,8.2,0,0,0,1,0H96.55c2.14,0,3.93,2,4.59,2.94L119.75,85A7.3,7.3,0,0,1,121,89.61c-.47,4.92-2.33,30.06,8.09,41.52,3.56,3.93,8.11,5.84,13.9,5.84,20.23,0,24.26-9.56,25.06-13.67a12.85,12.85,0,0,1,1.5-4l5-7.6a6.22,6.22,0,0,1,4.61-2.79h17.2a3.56,3.56,0,0,1,2.81,1.39,4,4,0,0,1,.73,3.45l-2.6,10.74a9.64,9.64,0,0,1-2.24,4L173.38,150.1s0,.14,0,.21l1.89,3.87a3.54,3.54,0,0,1-.11,3.47,3.38,3.38,0,0,1-2.91,1.58H161.93a2.62,2.62,0,0,0-1.33.36l-4.47,4.26A4.48,4.48,0,0,1,153,165.11Zm-18.24-14.27a7.44,7.44,0,0,1,3.63.92L153,160.54l4.37-4.27a6.82,6.82,0,0,1,4.53-1.65h8.44l-1.14-2.33a4.93,4.93,0,0,1,.89-5.45l21.66-21.68a5.32,5.32,0,0,0,1-1.83l2.39-9.86H179.14a3.75,3.75,0,0,0-.76.71l-5,7.61a8.26,8.26,0,0,0-.83,2.38c-1,5.24-5.92,17.41-29.58,17.41-7.07,0-12.89-2.47-17.32-7.35-11.42-12.58-10-37.67-9.25-45.06a2.94,2.94,0,0,0-.4-1.47L97.44,62.25a4.63,4.63,0,0,0-1.11-1.07H86.22c-1.35,0-3.34,0-4.6-1.57L70,45.21a1.85,1.85,0,0,0-1-.38H55.25a4.31,4.31,0,0,1-.35.3v3.29a2.74,2.74,0,0,1-.71,2.16,3,3,0,0,1-2.33.79H41.48A7,7,0,0,1,37,50.18L22.47,38.72a3.54,3.54,0,0,0-1.63-.42H4.91l9.1,34a4.57,4.57,0,0,1-.78,3.82,3.43,3.43,0,0,1-2.72,1.4H8.22l8.12,7.9A14.58,14.58,0,0,1,18.54,88L37.2,119.1l3.06-1.53L17.64,62a4.25,4.25,0,0,1,.41-3.88,3.34,3.34,0,0,1,2.79-1.53h3.44c2.4,0,4.25,2.58,4.59,3.1l32.51,49.09a16.61,16.61,0,0,1,1.72,3.89L69,133.51a3.59,3.59,0,0,0,1,1.42l31.6,22.14a2.48,2.48,0,0,0,1.3.27L133.53,151A5.66,5.66,0,0,1,134.72,150.84Zm36.42,5.36h0ZM40.42,118h0Zm155-5.34h0ZM96.24,61.13ZM24,61.12Zm-2-.89h0Zm63.3-3.51h0ZM4.59,37.09Z" transform="translate(0 -33.69)"/></g></svg>