<svg xmlns="http://www.w3.org/2000/svg" xmlns:xlink="http://www.w3.org/1999/xlink" viewBox="0 0 31.86 35.02"><defs><style>.cls-1,.cls-3,.cls-4{fill:none;}.cls-2{clip-path:url(#clip-path);}.cls-3,.cls-4{stroke:#686868;}.cls-4{stroke-dasharray:1 1;}.cls-5{fill:#686868;}</style><clipPath id="clip-path" transform="translate(-0.35 -0.2)"><rect class="cls-1" width="32.41" height="35.22"/></clipPath></defs><title>pcb-prod-ico9</title><g id="Layer_2" data-name="Layer 2"><g id="Capa_2" data-name="Capa 2"><g class="cls-2"><path class="cls-3" d="M27.87,35.22V23.11A13.13,13.13,0,1,0,5.44,13.83c0,.2,0,.4,0,.6L3.63,17.6,1.21,21.78H4.26V27A3.55,3.55,0,0,0,7.8,30.51h5.61v4.71" transform="translate(-0.35 -0.2)"/><path class="cls-3" d="M18.42,4.3a9.53,9.53,0,1,1-9.53,9.53" transform="translate(-0.35 -0.2)"/><path class="cls-3" d="M8.89,13.83c0-.23,0-.47,0-.7" transform="translate(-0.35 -0.2)"/><path class="cls-4" d="M9.14,11.64A9.54,9.54,0,0,1,17,4.41" transform="translate(-0.35 -0.2)"/><path class="cls-3" d="M17.72,4.33c.23,0,.46,0,.7,0" transform="translate(-0.35 -0.2)"/><path class="cls-5" d="M18.84,18.87a5.46,5.46,0,0,1-1.95-.33,3.9,3.9,0,0,1-1.46-1A4.43,4.43,0,0,1,14.51,16a6.75,6.75,0,0,1-.32-2.15,5.92,5.92,0,0,1,.37-2.14,4.66,4.66,0,0,1,1-1.58,4.29,4.29,0,0,1,1.5-1,5.19,5.19,0,0,1,1.85-.33A6,6,0,0,1,20,8.89a6.71,6.71,0,0,1,.85.2,3.61,3.61,0,0,1,.6.23l.33.19-.51,1.43a4.33,4.33,0,0,0-1-.4A4.77,4.77,0,0,0,19,10.35a3.2,3.2,0,0,0-1.17.22,2.53,2.53,0,0,0-.94.65,3.07,3.07,0,0,0-.62,1.08A5,5,0,0,0,16,13.82a5.11,5.11,0,0,0,.18,1.4,3,3,0,0,0,.53,1.11,2.43,2.43,0,0,0,.92.72,3,3,0,0,0,1.33.26,4.9,4.9,0,0,0,1.52-.19,6,6,0,0,0,.91-.35l.47,1.43a1.88,1.88,0,0,1-.45.22,5.46,5.46,0,0,1-.68.22,8.12,8.12,0,0,1-.88.17,8.45,8.45,0,0,1-1,.06" transform="translate(-0.35 -0.2)"/></g></g></g></svg>