<svg xmlns="http://www.w3.org/2000/svg" viewBox="0 0 45.91 38.81"><defs><style>.cls-1,.cls-2,.cls-3{fill:none;stroke:#fff;}.cls-2{stroke-width:5.17px;}.cls-3{stroke-dasharray:1 1;}</style></defs><title>pcb-prod-ico5</title><g id="Layer_2" data-name="Layer 2"><g id="Capa_2" data-name="Capa 2"><line class="cls-1" x1="4.08" y1="38.31" x2="4.08" y2="14.76"/><line class="cls-1" x1="16.57" y1="14.76" x2="16.57" y2="24.57"/><rect class="cls-1" x="3.73" y="11.53" width="13.2" height="3.69"/><line class="cls-1" x1="6.12" y1="18.33" x2="7.79" y2="18.33"/><line class="cls-1" x1="9.46" y1="18.33" x2="11.14" y2="18.33"/><line class="cls-1" x1="12.8" y1="18.33" x2="14.48" y2="18.33"/><line class="cls-1" x1="6.12" y1="21.49" x2="7.79" y2="21.49"/><line class="cls-1" x1="9.46" y1="21.49" x2="11.14" y2="21.49"/><line class="cls-1" x1="12.8" y1="21.49" x2="14.48" y2="21.49"/><line class="cls-1" x1="6.12" y1="24.65" x2="7.79" y2="24.65"/><line class="cls-1" x1="6.12" y1="27.82" x2="7.79" y2="27.82"/><line class="cls-1" x1="6.12" y1="30.98" x2="7.79" y2="30.98"/><line class="cls-1" x1="6.12" y1="34.14" x2="7.79" y2="34.14"/><line class="cls-1" x1="30.29" y1="24.42" x2="30.29" y2="14.76"/><line class="cls-1" x1="42.78" y1="14.76" x2="42.78" y2="38.31"/><rect class="cls-1" x="29.93" y="11.53" width="13.2" height="3.69"/><line class="cls-1" x1="32.33" y1="18.33" x2="34" y2="18.33"/><line class="cls-1" x1="35.67" y1="18.33" x2="37.34" y2="18.33"/><line class="cls-1" x1="39.01" y1="18.33" x2="40.69" y2="18.33"/><line class="cls-1" x1="32.33" y1="21.49" x2="34" y2="21.49"/><line class="cls-1" x1="35.67" y1="21.49" x2="37.34" y2="21.49"/><line class="cls-1" x1="39.01" y1="21.49" x2="40.69" y2="21.49"/><line class="cls-1" x1="39.01" y1="24.65" x2="40.69" y2="24.65"/><line class="cls-1" x1="39.01" y1="27.82" x2="40.69" y2="27.82"/><line class="cls-1" x1="39.01" y1="30.98" x2="40.69" y2="30.98"/><line class="cls-1" x1="39.01" y1="34.14" x2="40.69" y2="34.14"/><line class="cls-1" x1="45.91" y1="38.31" y2="38.31"/><rect class="cls-1" x="9.69" y="24.6" width="26.58" height="13.71"/><polyline class="cls-1" points="14.06 38.27 14.06 31.68 32.81 31.68 32.81 38.27"/><line class="cls-1" x1="23.48" y1="31.34" x2="23.48" y2="38.12"/><line class="cls-1" x1="36.27" y1="27.92" x2="9.7" y2="27.92"/><path class="cls-2" d="M37.11,8.07c-.16-.25-.33-.5-.51-.74"/><path class="cls-3" d="M35.45,5.91a16.48,16.48,0,0,0-25,.69"/><path class="cls-2" d="M9.88,7.33c-.17.24-.35.49-.51.74"/></g></g></svg>