<svg id="Layer_1" data-name="Layer 1" xmlns="http://www.w3.org/2000/svg" viewBox="0 0 176.68 200"><defs><style>.cls-1{fill:#adb0ba;}</style></defs><title>pcb-ico-diario</title><circle class="cls-1" cx="149.03" cy="56.22" r="7.47"/><circle class="cls-1" cx="27.35" cy="56.22" r="7.47"/><path class="cls-1" d="M177,0H24.4a11.83,11.83,0,0,0-12,12.05v88.34a11.83,11.83,0,0,0,12,12H177a11.83,11.83,0,0,0,12-12V12.05A11.83,11.83,0,0,0,177,0Zm4,100.39a3.78,3.78,0,0,1-4,4H24.4a3.79,3.79,0,0,1-4-4V12.05a3.8,3.8,0,0,1,4-4H177a3.79,3.79,0,0,1,4,4Z" transform="translate(-12.35)"/><path class="cls-1" d="M185,116.45a3.8,3.8,0,0,0-4,4,3.78,3.78,0,0,1-4,4H24.4a3.79,3.79,0,0,1-4-4,3.8,3.8,0,0,0-4-4,3.8,3.8,0,0,0-4,4,11.83,11.83,0,0,0,12,12H177a11.83,11.83,0,0,0,12-12A3.79,3.79,0,0,0,185,116.45Z" transform="translate(-12.35)"/><path class="cls-1" d="M185,136.53a3.8,3.8,0,0,0-4,4,3.79,3.79,0,0,1-4,4H24.4a3.8,3.8,0,0,1-4-4,3.8,3.8,0,0,0-4-4,3.79,3.79,0,0,0-4,4,11.83,11.83,0,0,0,12,12.05H177a11.83,11.83,0,0,0,12-12.05A3.79,3.79,0,0,0,185,136.53Z" transform="translate(-12.35)"/><path class="cls-1" d="M100.69,19.81A36.41,36.41,0,1,0,137.1,56.22,36.52,36.52,0,0,0,100.69,19.81Zm0,64.71A28.3,28.3,0,1,1,129,56.22,28.39,28.39,0,0,1,100.69,84.52Z" transform="translate(-12.35)"/><path class="cls-1" d="M104,53.82H97.44a3.26,3.26,0,1,1,0-6.51h9.76a3.26,3.26,0,1,0,0-6.51H104V37.55a3.26,3.26,0,1,0-6.51,0V40.8a9.77,9.77,0,1,0,0,19.54H104a3.26,3.26,0,0,1,0,6.51H94.18a3.26,3.26,0,1,0,0,6.51h3.26v3.25a3.26,3.26,0,1,0,6.51,0V73.36a9.77,9.77,0,0,0,0-19.54Z" transform="translate(-12.35)"/><path class="cls-1" d="M110.42,183.92l-5.92,4.23V170.39a4.23,4.23,0,0,0-8.46,0v17.34l-5.93-4.23a4.28,4.28,0,1,0-4.65,7.19l12.69,8.46a6,6,0,0,0,2.54.85,5.93,5.93,0,0,0,2.54-.85l12.69-8.46a4.15,4.15,0,0,0,1.27-5.92C115.08,183.08,112.54,182.65,110.42,183.92Z" transform="translate(-12.35)"/></svg>