<?xml version="1.0" standalone="no"?><!-- Generator: Gravit.io --><svg xmlns="http://www.w3.org/2000/svg" xmlns:xlink="http://www.w3.org/1999/xlink" style="isolation:isolate" viewBox="0 0 200 200" width="200" height="200"><defs><clipPath id="_clipPath_12p6xEB59MQeuzF76H0m3wf1gbRvGvgk"><rect width="200" height="200"/></clipPath></defs><g clip-path="url(#_clipPath_12p6xEB59MQeuzF76H0m3wf1gbRvGvgk)"><linearGradient id="_lgradient_2" x1="0.0005865589018185791" y1="0.5002587184385359" x2="1.0001185425020187" y2="0.5002587184385359" gradientTransform="matrix(35.982,0,0,35.989,53.006,37.009)" gradientUnits="userSpaceOnUse"><stop offset="0%" stop-opacity="1" style="stop-color:rgb(24,199,164)"/><stop offset="100%" stop-opacity="1" style="stop-color:rgb(21,171,141)"/></linearGradient><path d=" M 70.9 72.995 C 72.07 72.967 73.237 72.85 74.389 72.647 L 74.946 72.568 C 79.597 71.53 83.635 68.664 86.149 64.615 C 88.726 60.604 89.595 55.731 88.565 51.076 C 86.393 41.378 76.771 35.276 67.073 37.447 C 57.375 39.619 51.273 49.241 53.444 58.939 C 55.108 67.223 62.452 73.137 70.9 72.995 L 70.9 72.995 Z  M 68.186 43.78 C 69.018 43.621 69.865 43.558 70.711 43.591 C 76.148 43.454 80.909 47.216 82.034 52.537 L 82.034 52.537 C 83.076 57.121 81.252 61.881 77.413 64.594 C 73.575 67.307 68.479 67.438 64.506 64.925 C 60.533 62.412 58.467 57.752 59.273 53.121 C 60.079 48.49 63.598 44.802 68.186 43.78 Z " fill="url(#_lgradient_2)"/><linearGradient id="_lgradient_3" x1="0" y1="0.5" x2="1" y2="0.5" gradientTransform="matrix(53.242,0,0,84.496,44.18,76.295)" gradientUnits="userSpaceOnUse"><stop offset="100%" stop-opacity="1" style="stop-color:rgb(24,199,164)"/><stop offset="100%" stop-opacity="1" style="stop-color:rgb(24,198,164)"/></linearGradient><path d=" M 83.445 76.295 L 58.156 76.295 C 50.442 76.306 44.191 82.558 44.18 90.272 L 44.18 128.931 C 44.225 135.34 48.641 140.888 54.876 142.371 L 54.876 157.511 C 54.876 159.323 56.344 160.791 58.156 160.791 C 59.968 160.791 61.437 159.323 61.437 157.511 L 61.437 139.618 C 61.415 137.815 59.959 136.359 58.156 136.337 C 54.068 136.332 50.756 133.019 50.75 128.931 L 50.75 90.272 C 50.756 86.184 54.068 82.872 58.156 82.866 L 83.445 82.866 C 87.533 82.872 90.846 86.184 90.851 90.272 L 90.851 128.931 C 90.846 133.019 87.533 136.332 83.445 136.337 C 81.642 136.359 80.186 137.815 80.165 139.618 L 80.165 157.511 C 80.165 159.323 81.634 160.791 83.445 160.791 C 85.257 160.791 86.726 159.323 86.726 157.511 L 86.726 142.371 C 92.96 140.888 97.376 135.34 97.422 128.931 L 97.422 90.272 C 97.411 82.558 91.16 76.306 83.445 76.295 L 83.445 76.295 Z " fill="url(#_lgradient_3)"/><linearGradient id="_lgradient_4" x1="0" y1="0.5" x2="1" y2="0.5" gradientTransform="matrix(35.909,0,0,36.005,111.444,36.992)" gradientUnits="userSpaceOnUse"><stop offset="100%" stop-opacity="1" style="stop-color:rgb(24,199,164)"/><stop offset="100%" stop-opacity="1" style="stop-color:rgb(24,198,163)"/></linearGradient><path d=" M 129.292 72.995 C 130.462 72.967 131.628 72.85 132.781 72.647 L 133.338 72.568 C 142.955 70.284 148.998 60.748 146.956 51.076 C 145.938 46.405 143.093 42.335 139.056 39.775 C 135.018 37.214 130.124 36.376 125.464 37.447 C 115.849 39.736 109.806 49.266 111.836 58.939 C 113.5 67.223 120.843 73.137 129.292 72.995 L 129.292 72.995 Z  M 126.568 43.78 C 129.583 43.257 132.686 43.809 135.336 45.34 L 135.336 45.34 C 137.922 46.97 139.745 49.57 140.395 52.557 C 141.426 57.141 139.592 61.895 135.749 64.599 C 131.907 67.303 126.813 67.425 122.846 64.907 C 118.879 62.389 116.82 57.729 117.631 53.101 C 118.441 48.473 121.961 44.789 126.548 43.77 L 126.568 43.78 Z " fill="url(#_lgradient_4)"/><linearGradient id="_lgradient_5" x1="0" y1="0.5" x2="1" y2="0.5" gradientTransform="matrix(51.089,0,0,84.466,102.666,76.295)" gradientUnits="userSpaceOnUse"><stop offset="100%" stop-opacity="1" style="stop-color:rgb(24,199,164)"/><stop offset="100%" stop-opacity="1" style="stop-color:rgb(24,198,164)"/></linearGradient><path d=" M 139.759 76.295 L 118.814 76.295 C 111.097 76.301 104.843 82.555 104.838 90.272 L 104.838 113.921 C 104.838 120.462 107.611 125.323 112.293 127.053 L 102.8 156.517 C 102.311 158.189 103.202 159.953 104.838 160.553 L 105.007 160.553 C 105.091 160.573 105.174 160.6 105.255 160.632 C 105.45 160.705 105.654 160.748 105.861 160.761 C 107.279 160.751 108.521 159.808 108.913 158.445 L 119.609 125.552 C 119.967 124.616 119.775 123.559 119.112 122.808 C 118.521 121.981 117.564 121.495 116.548 121.506 C 113.138 121.506 111.398 119.011 111.398 114.1 L 111.398 90.242 C 111.404 86.151 114.722 82.836 118.814 82.836 L 139.58 82.836 C 143.668 82.842 146.981 86.154 146.986 90.242 L 146.986 113.891 C 146.986 120.333 143.755 121.297 141.837 121.297 C 140.821 121.288 139.864 121.774 139.272 122.599 C 138.728 123.407 138.548 124.406 138.775 125.353 L 147.016 157.67 L 147.215 158.266 C 147.701 160.012 149.51 161.034 151.256 160.548 C 153.001 160.062 154.023 158.253 153.537 156.507 L 146.062 126.834 C 150.823 125.094 153.756 120.114 153.756 113.682 L 153.756 90.262 C 153.597 82.604 147.418 76.438 139.759 76.295 L 139.759 76.295 Z " fill="url(#_lgradient_5)"/><linearGradient id="_lgradient_6" x1="0" y1="0.5" x2="1" y2="0.5" gradientTransform="matrix(25.572,0,0,25.516,6.277,71.128)" gradientUnits="userSpaceOnUse"><stop offset="100%" stop-opacity="1" style="stop-color:rgb(24,199,164)"/><stop offset="100%" stop-opacity="1" style="stop-color:rgb(24,198,163)"/></linearGradient><path d=" M 19.089 96.644 C 19.612 96.637 20.133 96.597 20.65 96.525 C 21.028 96.525 21.396 96.435 21.883 96.425 C 25.177 95.691 28.041 93.668 29.835 90.809 C 31.65 87.922 32.271 84.443 31.565 81.107 C 30.829 77.813 28.807 74.949 25.948 73.154 C 23.07 71.319 19.582 70.697 16.246 71.425 C 12.952 72.16 10.089 74.182 8.294 77.041 C 6.482 79.914 5.859 83.379 6.554 86.703 C 7.933 92.516 13.116 96.626 19.089 96.644 Z  M 13.851 80.52 C 14.742 79.036 16.218 77.996 17.916 77.657 C 18.296 77.54 18.693 77.493 19.089 77.518 C 20.28 77.516 21.449 77.839 22.469 78.453 C 24.64 79.779 25.791 82.287 25.38 84.797 C 24.97 87.307 23.08 89.319 20.6 89.884 C 18.98 90.252 17.28 89.967 15.869 89.089 C 14.454 88.222 13.455 86.814 13.105 85.192 C 12.699 83.599 12.969 81.908 13.851 80.52 Z " fill="url(#_lgradient_6)"/><linearGradient id="_lgradient_7" x1="0" y1="0.5" x2="1" y2="0.5" gradientTransform="matrix(36.552,0,0,62.449,0.59,98.712)" gradientUnits="userSpaceOnUse"><stop offset="0%" stop-opacity="1" style="stop-color:rgb(24,199,164)"/><stop offset="100%" stop-opacity="1" style="stop-color:rgb(24,198,163)"/></linearGradient><path d=" M 27.111 98.712 L 10.66 98.712 C 5.1 98.717 0.595 103.222 0.59 108.782 L 0.59 130.76 C 0.635 135.135 3.418 139.011 7.548 140.453 L 7.548 157.69 C 7.481 158.907 8.092 160.061 9.136 160.689 C 10.181 161.318 11.487 161.318 12.531 160.689 C 13.575 160.061 14.186 158.907 14.119 157.69 L 14.119 137.769 C 14.098 135.966 12.641 134.51 10.839 134.488 C 8.795 134.472 7.149 132.804 7.161 130.76 L 7.161 108.782 C 7.161 107.798 7.551 106.855 8.247 106.16 C 8.942 105.464 9.885 105.074 10.868 105.074 L 27.31 105.074 C 28.294 105.074 29.237 105.464 29.932 106.16 C 30.627 106.855 31.018 107.798 31.018 108.782 L 31.018 130.572 C 31.018 132.619 29.358 134.279 27.31 134.279 C 25.504 134.301 24.046 135.763 24.03 137.57 L 24.03 157.511 C 24.051 159.314 25.507 160.77 27.31 160.791 C 28.288 160.805 29.215 160.359 29.815 159.588 C 30.234 159.039 30.371 158.325 30.183 157.66 L 30.183 140.473 C 34.34 139.067 37.139 135.168 37.142 130.78 L 37.142 108.782 C 37.136 103.238 32.655 98.739 27.111 98.712 L 27.111 98.712 Z " fill="url(#_lgradient_7)"/><linearGradient id="_lgradient_8" x1="0" y1="0.5" x2="1" y2="0.5" gradientTransform="matrix(25.518,0,0,25.566,168.804,71.078)" gradientUnits="userSpaceOnUse"><stop offset="100%" stop-opacity="1" style="stop-color:rgb(24,199,164)"/><stop offset="100%" stop-opacity="1" style="stop-color:rgb(24,198,163)"/></linearGradient><path d=" M 181.51 96.644 C 181.932 96.635 182.354 96.602 182.772 96.545 C 183.28 96.477 183.791 96.437 184.303 96.425 C 187.618 95.706 190.502 93.681 192.306 90.809 C 194.125 87.924 194.745 84.443 194.035 81.107 C 193.328 77.801 191.322 74.917 188.469 73.105 C 185.59 71.269 182.102 70.647 178.766 71.375 C 175.472 72.11 172.608 74.132 170.814 76.991 C 168.997 79.881 168.38 83.366 169.094 86.703 C 170.44 92.487 175.572 96.596 181.51 96.644 L 181.51 96.644 Z  M 176.271 80.52 C 177.167 79.035 178.646 77.996 180.347 77.657 C 180.723 77.54 181.117 77.493 181.51 77.518 C 182.693 77.568 183.849 77.888 184.89 78.453 C 187.06 79.779 188.211 82.287 187.801 84.797 C 187.391 87.307 185.501 89.319 183.021 89.884 C 181.401 90.251 179.701 89.966 178.289 89.089 C 175.409 87.247 174.526 83.442 176.301 80.52 L 176.271 80.52 Z " fill="url(#_lgradient_8)"/><linearGradient id="_lgradient_9" x1="0" y1="0.5" x2="1" y2="0.5" gradientTransform="matrix(36.582,0,0,62.258,162.822,98.712)" gradientUnits="userSpaceOnUse"><stop offset="100%" stop-opacity="1" style="stop-color:rgb(24,199,164)"/><stop offset="100%" stop-opacity="1" style="stop-color:rgb(24,198,163)"/></linearGradient><path d=" M 189.333 98.712 L 172.891 98.712 C 167.332 98.717 162.827 103.222 162.822 108.782 L 162.822 130.76 C 162.858 135.138 165.644 139.019 169.78 140.453 L 169.78 157.69 C 169.78 158.862 170.405 159.945 171.42 160.531 C 172.435 161.117 173.686 161.117 174.701 160.531 C 175.716 159.945 176.341 158.862 176.341 157.69 L 176.341 137.769 C 176.319 135.966 174.863 134.51 173.06 134.488 C 171.019 134.466 169.377 132.802 169.382 130.76 L 169.382 108.782 C 169.388 106.736 171.045 105.079 173.09 105.074 L 189.542 105.074 C 191.588 105.079 193.245 106.736 193.25 108.782 L 193.25 130.572 C 193.245 132.617 191.588 134.274 189.542 134.279 C 187.736 134.301 186.278 135.763 186.262 137.57 L 186.262 157.511 C 186.283 159.314 187.739 160.77 189.542 160.791 C 190.524 160.797 191.45 160.336 192.037 159.549 C 192.476 159.002 192.628 158.278 192.445 157.6 L 192.445 140.473 C 196.601 139.067 199.4 135.168 199.403 130.78 L 199.403 108.782 C 199.398 103.222 194.893 98.717 189.333 98.712 L 189.333 98.712 Z " fill="url(#_lgradient_9)"/></g></svg>