<svg id="Layer_2" data-name="Layer 2" xmlns="http://www.w3.org/2000/svg" xmlns:xlink="http://www.w3.org/1999/xlink" viewBox="0 0 199.52 190.45"><defs><style>.cls-1{fill:url(#Degradado_sin_nombre_30);}</style><linearGradient id="Degradado_sin_nombre_30" x1="100.24" y1="-11.32" x2="100.24" y2="196.11" gradientUnits="userSpaceOnUse"><stop offset="0" stop-color="#18c7a4"/><stop offset="1" stop-color="#15ab8d"/></linearGradient></defs><title>pcb-ico-patrimonio</title><path class="cls-1" d="M86.64,105.08H41.29a4.53,4.53,0,0,0-4.53,4.53V186.7H27.69V82.4a4.54,4.54,0,0,0-9.07,0V191.23a4.54,4.54,0,0,0,4.54,4.54H86.64a4.53,4.53,0,0,0,4.53-4.54V109.61A4.53,4.53,0,0,0,86.64,105.08Zm-40.81,9.07H82.1V186.7H45.83Zm31.74,36.27A4.54,4.54,0,1,1,73,145.89,4.54,4.54,0,0,1,77.57,150.42Zm45.34-90.69A22.67,22.67,0,1,0,100.24,82.4,22.7,22.7,0,0,0,122.91,59.73Zm-22.67-13.6A13.58,13.58,0,0,1,113,55.2H87.47A13.59,13.59,0,0,1,100.24,46.13ZM87.47,64.27H113a13.52,13.52,0,0,1-25.54,0Zm17.31,104.29h54.41a4.53,4.53,0,0,0,4.53-4.54V109.61a4.53,4.53,0,0,0-4.53-4.53H104.78a4.53,4.53,0,0,0-4.54,4.53V164A4.54,4.54,0,0,0,104.78,168.56Zm49.88-54.41v45.34H136.52V127.75a4.54,4.54,0,1,0-9.07,0v31.74H109.31V114.15ZM200,78.64V82.4a4.53,4.53,0,0,1-4.53,4.54H181.86V191.23a4.53,4.53,0,0,1-4.53,4.54H104.78a4.54,4.54,0,1,1,0-9.07h68V82.4a4.53,4.53,0,0,1,4.54-4.53h13.58a13.54,13.54,0,0,0-6.17-10.63L106.11,16.13a10.93,10.93,0,0,0-11.74,0L15.74,67.24a13.56,13.56,0,0,0-6.19,11.4V82.4a4.54,4.54,0,1,1-9.07,0V78.64a22.6,22.6,0,0,1,10.32-19L89.43,8.52a20.16,20.16,0,0,1,21.62,0l57.21,37.19V14.39h-9.07V28a4.54,4.54,0,0,1-9.07,0V14.39a4.54,4.54,0,0,1,0-9.07h27.21a4.54,4.54,0,0,1,0,9.07V50.66a4.52,4.52,0,0,1-.17.83l12.52,8.14A22.6,22.6,0,0,1,200,78.64Z" transform="translate(-0.48 -5.32)"/></svg>