<svg xmlns="http://www.w3.org/2000/svg" xmlns:xlink="http://www.w3.org/1999/xlink" viewBox="0 0 36.36 36.17"><defs><style>.cls-1,.cls-3{fill:none;}.cls-2{clip-path:url(#clip-path);}.cls-3{stroke:#686868;}</style><clipPath id="clip-path" transform="translate(-0.2 -0.2)"><rect class="cls-1" width="36.76" height="36.57"/></clipPath></defs><title>pcb-prod-bico10</title><g id="Layer_2" data-name="Layer 2"><g id="Capa_2" data-name="Capa 2"><g class="cls-2"><path class="cls-3" d="M35.72,20.58A17.59,17.59,0,1,0,18.28,35.87a17.77,17.77,0,0,0,2.65-.2" transform="translate(-0.2 -0.2)"/><path class="cls-3" d="M33,18.28A14.73,14.73,0,1,0,18.28,33" transform="translate(-0.2 -0.2)"/><line class="cls-3" x1="18.08" y1="4.94" x2="18.08" y2="7.67"/><line class="cls-3" x1="24.65" y1="6.7" x2="23.29" y2="9.07"/><line class="cls-3" x1="29.46" y1="11.51" x2="27.1" y2="12.88"/><line class="cls-3" x1="31.22" y1="17.39" x2="28.49" y2="17.39"/><line class="cls-3" x1="17.39" y1="31.22" x2="17.39" y2="28.49"/><line class="cls-3" x1="11.51" y1="29.46" x2="12.88" y2="27.1"/><line class="cls-3" x1="6.7" y1="24.65" x2="9.07" y2="23.29"/><line class="cls-3" x1="4.94" y1="18.08" x2="7.67" y2="18.08"/><line class="cls-3" x1="6.7" y1="11.51" x2="9.07" y2="12.88"/><line class="cls-3" x1="11.51" y1="6.7" x2="12.88" y2="9.07"/><path class="cls-3" d="M17.67,17.73a.83.83,0,0,0,.07,1.17.82.82,0,1,0-.07-1.17Z" transform="translate(-0.2 -0.2)"/><line class="cls-3" x1="24.35" y1="11.08" x2="18.63" y2="17.47"/><line class="cls-3" x1="12.1" y1="12.73" x2="17.73" y2="17.76"/><path class="cls-3" d="M36.06,27.94a7.86,7.86,0,1,1-7.86-7.86A7.86,7.86,0,0,1,36.06,27.94Z" transform="translate(-0.2 -0.2)"/><line class="cls-3" x1="27.93" y1="24.36" x2="27.93" y2="31.12"/><line class="cls-3" x1="31.3" y1="27.74" x2="24.55" y2="27.74"/></g></g></g></svg>