<svg xmlns="http://www.w3.org/2000/svg" xmlns:xlink="http://www.w3.org/1999/xlink" viewBox="0 0 39.67 39.19"><defs><style>.cls-1,.cls-3{fill:none;}.cls-2{clip-path:url(#clip-path);}.cls-3{stroke:#fff;stroke-miterlimit:10;}.cls-4{clip-path:url(#clip-path-2);}.cls-5{fill:#fff;}</style><clipPath id="clip-path" transform="translate(-0.35)"><rect class="cls-1" y="0.34" width="40.02" height="39.2"/></clipPath><clipPath id="clip-path-2" transform="translate(-0.35)"><rect class="cls-1" width="40.02" height="39.2"/></clipPath></defs><title>pcb-prod-ico7</title><g id="Layer_2" data-name="Layer 2"><g id="Capa_2" data-name="Capa 2"><g class="cls-2"><polyline class="cls-3" points="30.35 1.26 11.4 1.26 11.4 9.07 11.4 18.51 11.4 38.69 38.75 38.69 38.75 18.51 38.75 9.67"/></g><g class="cls-4"><path class="cls-5" d="M34.16,4.09l1.78,1.77H34.16ZM32.47,0V7.56H40Z" transform="translate(-0.35)"/><rect class="cls-3" x="14.87" y="4.86" width="10.49" height="2.87"/><rect class="cls-3" x="14.87" y="13.35" width="20.17" height="15.02"/><line class="cls-3" x1="14.76" y1="17" x2="35.11" y2="17"/><line class="cls-3" x1="30.49" y1="13.3" x2="30.49" y2="28.58"/><line class="cls-3" x1="22.26" y1="13.3" x2="22.26" y2="28.58"/><line class="cls-3" x1="35.41" y1="32.45" x2="27.07" y2="32.45"/></g><g class="cls-4"><polyline class="cls-3" points="3.84 34.53 3.84 1.11 7.47 1.11 7.47 34.53"/></g><line class="cls-3" x1="4.08" y1="21.46" x2="7.61" y2="21.46"/><line class="cls-3" x1="4.08" y1="19.03" x2="7.61" y2="19.03"/><polyline class="cls-3" points="8.01 4.21 0.5 4.21 0.5 16.06"/><polygon class="cls-3" points="7.47 35.29 7.47 34.91 3.84 34.91 3.84 35.29 3.84 35.72 4.64 38.57 6.67 38.57 7.47 35.72 7.47 35.29"/></g></g></svg>