<svg id="Layer_3" data-name="Layer 3" xmlns="http://www.w3.org/2000/svg" xmlns:xlink="http://www.w3.org/1999/xlink" viewBox="0 0 199.19 165"><defs><style>.cls-1{fill:url(#Degradado_sin_nombre_30);}</style><linearGradient id="Degradado_sin_nombre_30" x1="0.25" y1="101.5" x2="199.44" y2="101.5" gradientUnits="userSpaceOnUse"><stop offset="0" stop-color="#18c7a4"/><stop offset="1" stop-color="#15ab8d"/></linearGradient></defs><title>pcb-ico-salud</title><path class="cls-1" d="M87.17,184a4.07,4.07,0,0,1-2.42-.79C81.3,180.67.25,120.6.25,75.55c0-25.22,15.6-48.26,37.09-54.78,17.75-5.39,35.41,1.67,49.07,19.41,15.35-18,33.81-25,51.29-19.13,20.33,6.8,34.52,29.21,34.52,54.5A47.37,47.37,0,0,1,170.44,88a4.08,4.08,0,1,1-7.88-2.15,39.21,39.21,0,0,0,1.49-10.27c0-21.48-12.17-41.14-28.94-46.76-15.49-5.2-31.69,2.13-45.62,20.6A3.88,3.88,0,0,1,86.12,51a4.1,4.1,0,0,1-3.28-1.81C70.76,31.13,55.43,23.81,39.71,28.58,21.87,34,8.42,54.19,8.42,75.55c0,16.68,13.9,39.36,40.21,65.61a414.59,414.59,0,0,0,38.51,33.62c9.78-7.68,46.69-37.72,65.62-67.9a4.08,4.08,0,1,1,6.92,4.34c-22.65,36.11-68.14,70.51-70.06,72A4.06,4.06,0,0,1,87.17,184ZM38.48,116.25a4.08,4.08,0,0,1-2.47-.83,42.94,42.94,0,0,1-5.75-5.26,4.08,4.08,0,0,1,6-5.5A34.36,34.36,0,0,0,41,108.92a4.08,4.08,0,0,1-2.48,7.33Zm37.9-1.47a4.08,4.08,0,0,1-3.29-1.66L60.76,96.35H50.19a4.08,4.08,0,1,1,0-8.16H62.83a4.11,4.11,0,0,1,3.29,1.66L76,103.34,95,71.75a4.16,4.16,0,0,1,3.71-2,4.06,4.06,0,0,1,3.49,2.34l11.58,24.74,11.58-24.74a4.07,4.07,0,0,1,3.7-2.35h0a4.09,4.09,0,0,1,3.7,2.38l10.65,23.33h52a4.09,4.09,0,0,1,0,8.17h-54.6a4.06,4.06,0,0,1-3.71-2.39L129,83.57l-11.53,24.65a4.08,4.08,0,0,1-7.39,0L98,82.53,79.88,112.8a4.09,4.09,0,0,1-3.31,2ZM25.76,102.21a4.08,4.08,0,0,1-3.53-2c-9.58-16.35-6.88-35.07-6.76-35.86a4.08,4.08,0,1,1,8.07,1.22c0,.32-2.31,16.78,5.74,30.51a4.1,4.1,0,0,1-3.52,6.15Z" transform="translate(-0.25 -19)"/></svg>