<?xml version="1.0" standalone="no"?><!-- Generator: Gravit.io --><svg xmlns="http://www.w3.org/2000/svg" xmlns:xlink="http://www.w3.org/1999/xlink" style="isolation:isolate" viewBox="0 0 39 39" width="39" height="39"><defs><clipPath id="_clipPath_nWVvoQtIQgmpcs5yrq9lAja8krAARtn8"><rect width="39" height="39"/></clipPath></defs><g clip-path="url(#_clipPath_nWVvoQtIQgmpcs5yrq9lAja8krAARtn8)"><g><path d=" M 19.53 38.41 C 11.878 38.422 4.973 33.821 2.038 26.755 C -0.898 19.689 0.715 11.55 6.122 6.136 C 11.53 0.723 19.667 -0.898 26.737 2.03 C 33.806 4.958 38.414 11.858 38.41 19.51 C 38.399 29.936 29.956 38.388 19.53 38.41 L 19.53 38.41 Z " fill="none" vector-effect="non-scaling-stroke" stroke-width="1.181" stroke="rgb(91,41,110)" stroke-linejoin="miter" stroke-linecap="butt" stroke-miterlimit="4"/><path d=" M 16.193 16.4 C 16.193 18.086 14.828 19.455 13.141 19.461 L 13.141 19.461 C 11.451 19.461 10.08 18.09 10.08 16.4 L 10.08 12.226 C 10.08 11.415 10.403 10.637 10.977 10.065 C 11.552 9.492 12.33 9.172 13.141 9.174 L 13.141 9.174 C 14.827 9.174 16.193 10.541 16.193 12.226 L 16.193 16.4 Z " fill="none" vector-effect="non-scaling-stroke" stroke-width="1.181" stroke="rgb(91,41,110)" stroke-linejoin="miter" stroke-linecap="butt" stroke-miterlimit="4"/><path d=" M 28.96 26.814 C 28.96 27.625 28.637 28.403 28.063 28.975 C 27.488 29.548 26.71 29.868 25.899 29.865 L 25.899 29.865 C 25.089 29.865 24.313 29.544 23.741 28.972 C 23.169 28.399 22.847 27.623 22.847 26.814 L 22.847 22.66 C 22.844 21.849 23.165 21.07 23.737 20.496 C 24.31 19.922 25.088 19.599 25.899 19.599 L 25.899 19.599 C 27.589 19.599 28.96 20.969 28.96 22.66 L 28.96 26.814 Z " fill="none" vector-effect="non-scaling-stroke" stroke-width="1.181" stroke="rgb(91,41,110)" stroke-linejoin="miter" stroke-linecap="butt" stroke-miterlimit="4"/><path d=" M 29.993 15.081 L 29.993 9.046 L 23.959 9.046" fill="none" vector-effect="non-scaling-stroke" stroke-width="1.181" stroke="rgb(91,41,110)" stroke-linejoin="miter" stroke-linecap="butt" stroke-miterlimit="4"/><line x1="29.915" y1="9.135" x2="9.046" y2="29.993" vector-effect="non-scaling-stroke" stroke-width="1.181" stroke="rgb(91,41,110)" stroke-linejoin="miter" stroke-linecap="butt" stroke-miterlimit="4"/></g></g></svg>