<svg xmlns="http://www.w3.org/2000/svg" xmlns:xlink="http://www.w3.org/1999/xlink" viewBox="0 0 41.03 40.8"><defs><style>.cls-1{fill:none;}.cls-2{clip-path:url(#clip-path);}.cls-3{fill:#fff;}</style><clipPath id="clip-path" transform="translate(0 0)"><rect class="cls-1" width="41.03" height="40.8"/></clipPath></defs><title>pcb-prod-ico3</title><g id="Layer_2" data-name="Layer 2"><g id="Capa_2" data-name="Capa 2"><g class="cls-2"><g class="cls-2"><polygon class="cls-3" points="7.65 0 7.65 1.69 24.41 1.69 24.41 6.66 26.11 6.66 26.11 0 7.65 0"/><polygon class="cls-3" points="26.11 35.06 15.92 35.06 15.92 33.37 24.41 33.37 24.41 24.74 26.11 24.74 26.11 35.06"/><polygon class="cls-3" points="0 7.65 0 35.06 3.02 35.06 3.02 33.37 1.69 33.37 1.69 7.65 0 7.65"/><path class="cls-3" d="M4.81,4.14v.67H4.14ZM.06,6.5H6.5V.06Z" transform="translate(0 0)"/><rect class="cls-3" x="2.73" y="38.34" width="2.89" height="1.69" transform="translate(-26.49 14.44) rotate(-45.01)"/><polygon class="cls-3" points="34.42 4.65 35.62 5.85 36.8 4.67 38.64 6.5 37.45 7.68 38.65 8.88 41.03 6.5 36.8 2.27 34.42 4.65"/><polygon class="cls-3" points="14.02 33.61 9.68 29.27 22.66 16.29 23.86 17.48 12.07 29.27 14.02 31.22 25.8 19.43 27 20.63 14.02 33.61"/><polygon class="cls-3" points="2.82 37.5 5.79 40.47 8.08 38.18 6.88 36.98 5.79 38.08 5.21 37.5 6.3 36.41 5.11 35.21 2.82 37.5"/><path class="cls-3" d="M27,21.34l-5-5L34.54,3.75l5,5Zm-2.62-5L27,19,37.17,8.76,34.54,6.14Z" transform="translate(0 0)"/><polygon class="cls-3" points="21.2 15.77 20.01 14.58 30.36 4.22 36.63 10.48 35.43 11.68 30.36 6.61 21.2 15.77"/><path class="cls-3" d="M8.06,39.17l-3.94-4L11,28.34,15,32.28Zm-1.55-4,1.55,1.56,4.5-4.5L11,30.73Z" transform="translate(0 0)"/><path class="cls-3" d="M19,12.55a3.07,3.07,0,0,1-1.8-.55,1.4,1.4,0,0,0-.91-.3,1.42,1.42,0,0,0-.91.3,3.22,3.22,0,0,1-3.6,0,1.37,1.37,0,0,0-.9-.3,1.4,1.4,0,0,0-.91.3,3.07,3.07,0,0,1-1.8.55A3.07,3.07,0,0,1,6.32,12a1.37,1.37,0,0,0-.9-.3V10a3.07,3.07,0,0,1,1.8.55,1.37,1.37,0,0,0,.9.3,1.4,1.4,0,0,0,.91-.3,3.22,3.22,0,0,1,3.6,0,1.37,1.37,0,0,0,.9.3,1.4,1.4,0,0,0,.91-.3,3.22,3.22,0,0,1,3.6,0,1.4,1.4,0,0,0,.91.3Z" transform="translate(0 0)"/><path class="cls-3" d="M13.45,17.63a3,3,0,0,1-1.79-.56,1.36,1.36,0,0,0-.89-.29,1.38,1.38,0,0,0-.89.29,3,3,0,0,1-1.79.56,3,3,0,0,1-1.79-.56,1.35,1.35,0,0,0-.88-.29V15.09a3.06,3.06,0,0,1,1.79.55,1.33,1.33,0,0,0,.88.29A1.36,1.36,0,0,0,9,15.64a3.19,3.19,0,0,1,3.58,0,1.38,1.38,0,0,0,.89.29Z" transform="translate(0 0)"/></g></g></g></g></svg>