<svg xmlns="http://www.w3.org/2000/svg" xmlns:xlink="http://www.w3.org/1999/xlink" viewBox="0 0 35.47 38.51"><defs><style>.cls-1{fill:none;}.cls-2{clip-path:url(#clip-path);}.cls-3{fill:#fff;}</style><clipPath id="clip-path"><rect class="cls-1" width="35.47" height="38.51"/></clipPath></defs><title>pcb-prod-ico2</title><g id="Layer_2" data-name="Layer 2"><g id="Capa_2" data-name="Capa 2"><g class="cls-2"><g class="cls-2"><path class="cls-3" d="M31.28,38.51H29.71V25l.23-.23A13.57,13.57,0,1,0,6.76,15.14c0,.2,0,.41,0,.61V16L2.71,23H5.47v6.45a3.1,3.1,0,0,0,3.09,3.09h6.91v5.93H13.91V34.14H8.56a4.66,4.66,0,0,1-4.65-4.65V24.61H0l5.21-9c0-.15,0-.3,0-.45A15.14,15.14,0,1,1,31.28,25.59Z"/><path class="cls-3" d="M13.72,15.05H12.15a8,8,0,0,1,8-8h0a8,8,0,0,1,8,8H26.54a6.42,6.42,0,0,0-6.41-6.41h0a6.42,6.42,0,0,0-6.41,6.41"/><rect class="cls-3" x="19.57" y="3.89" width="1.57" height="2.03"/><rect class="cls-3" x="14.55" y="5.09" width="1.57" height="2.03" transform="translate(-1 8.49) rotate(-30.02)"/><rect class="cls-3" x="10.81" y="8.64" width="1.57" height="2.03" transform="matrix(0.5, -0.87, 0.87, 0.5, -2.57, 14.87)"/><rect class="cls-3" x="9.1" y="13.82" width="2.03" height="1.57"/><rect class="cls-3" x="29.03" y="14.36" width="2.03" height="1.57"/><rect class="cls-3" x="27.83" y="9.34" width="2.03" height="1.57" transform="translate(-1.19 15.8) rotate(-30.04)"/><rect class="cls-3" x="21.32" y="12.09" width="4.65" height="1.57" transform="matrix(0.87, -0.5, 0.5, 0.87, -3.27, 13.55)"/><rect class="cls-3" x="24.28" y="5.6" width="2.03" height="1.57" transform="translate(7.12 25.09) rotate(-59.98)"/><path class="cls-3" d="M20.13,17.47a2.44,2.44,0,1,1,1.71-.72,2.39,2.39,0,0,1-1.71.72Zm0-3.28a.85.85,0,0,0-.85.86.82.82,0,0,0,.25.6.84.84,0,0,0,.6.25h0a.88.88,0,0,0,.61-.25h0a.86.86,0,0,0,.25-.6.87.87,0,0,0-.86-.86"/></g></g></g></g></svg>