<?xml version="1.0" encoding="utf-8"?>
<!-- Generator: Adobe Illustrator 23.0.1, SVG Export Plug-In . SVG Version: 6.00 Build 0)  -->
<svg version="1.1" id="Capa_1" xmlns="http://www.w3.org/2000/svg" xmlns:xlink="http://www.w3.org/1999/xlink" x="0px" y="0px"
	 viewBox="0 0 219.34 252.02" style="enable-background:new 0 0 219.34 252.02;" xml:space="preserve">
<style type="text/css">
	.st0{fill:#FFFFFF;}
</style>
<g>
	<g>
		<path class="st0" d="M109.91,124.9l37.17-55.76c0.38-0.56,1.01-0.9,1.68-0.9h19.87c1.62,0,2.58,1.8,1.68,3.15l-35.68,53.51
			c-0.45,0.68-0.45,1.57,0,2.25l35.68,53.51c0.9,1.35-0.07,3.15-1.68,3.15h-19.87c-0.68,0-1.31-0.34-1.68-0.9l-37.17-55.76
			C109.45,126.46,109.45,125.58,109.91,124.9z"/>
		<path class="st0" d="M126.32,180.66L55.08,73.8c-1.11-1.67-3.71-0.88-3.71,1.12v106.86c0,1.12,0.91,2.02,2.02,2.02h71.24
			C126.25,183.8,127.22,182,126.32,180.66z"/>
		<path class="st0" d="M74.42,68.24h50.22c1.62,0,2.58,1.8,1.68,3.15l-25.11,37.66c-0.8,1.2-2.57,1.2-3.37,0L72.73,71.39
			C71.84,70.04,72.8,68.24,74.42,68.24z"/>
	</g>
	<g>
		<path class="st0" d="M203.51,71.06V52.78L113.05,0.55c-1.26-0.73-2.8-0.73-4.06,0L2.04,62.3c-1.26,0.73-2.03,2.07-2.03,3.52v15.93
			l108.98-62.92c1.26-0.73,2.8-0.73,4.06,0L203.51,71.06z"/>
		<path class="st0" d="M15.83,72.62L0,81.76v104.45c0,1.45,0.77,2.79,2.03,3.52l106.95,61.75c1.26,0.73,2.8,0.73,4.06,0l13.8-7.97
			L17.86,180.59c-1.26-0.73-2.03-2.07-2.03-3.52L15.83,72.62z"/>
		<path class="st0" d="M111.02,234.38l15.83,9.14l90.46-52.23c1.26-0.73,2.03-2.07,2.03-3.52V64.27c0-1.45-0.77-2.79-2.03-3.52
			l-13.8-7.97v125.84c0,1.45-0.77,2.79-2.03,3.52L111.02,234.38z"/>
	</g>
</g>
</svg>
