<?xml version="1.0" encoding="utf-8"?>
<!-- Generator: Adobe Illustrator 23.0.1, SVG Export Plug-In . SVG Version: 6.00 Build 0)  -->
<svg version="1.1" id="Capa_1" xmlns="http://www.w3.org/2000/svg" xmlns:xlink="http://www.w3.org/1999/xlink" x="0px" y="0px"
	 viewBox="0 0 292.16 374.45" style="enable-background:new 0 0 292.16 374.45;" xml:space="preserve">
<style type="text/css">
	.st0{fill-rule:evenodd;clip-rule:evenodd;fill:#FFFFFF;}
</style>
<g>
	<g>
		<path class="st0" d="M177.55,270.93c16.79,29.13,33.8,58.76,50.96,88.39c-18.92,17.7-49.23,20.1-72.69,6.03
			c-22.23-13.52-40.56-31.17-57.22-50.59c-32.85-38.48-58.44-81.49-77.41-128.27c-10.48-25.82-18.29-52.32-20.65-80.18
			C-0.59,92.79-0.5,79.27,6.13,66.65c4.58-8.98,11.93-15.61,20.1-21.19c4.81-3.27,9.89-6.22,15.47-9.8
			c17.38,30.13,34.62,59.89,51.82,89.98c-18.1,13.43-18.56,32.08-14.84,51.09c6.72,33.12,22.51,61.57,48.46,83.94
			c9.35,8.17,20.1,14.11,32.81,13.66C165.67,274.19,171.25,272.24,177.55,270.93"/>
	</g>
	<g>
		<path class="st0" d="M117.33,122.75c-5.49-0.09-8.98-2.09-11.07-5.81C89.88,88.72,73.5,60.49,57.39,32.18
			c-3.4-6.08-1.5-12.43,4.36-15.97c8.35-4.9,16.83-9.85,25.27-14.57c6.17-3.31,12.7-1.54,16.24,4.63
			c16.24,28,32.49,55.99,48.55,83.99c3.4,6.03,1.77,12.66-3.95,16.15c-8.58,5.17-17.24,10.07-25.91,14.93
			C120.28,122.29,118.24,122.52,117.33,122.75"/>
	</g>
	<g>
		<path class="st0" d="M231.48,239.91c5.63,0.54,8.76,3.63,11.43,8.03c14.25,25.05,28.77,49.82,43.01,74.87
			c1.54,2.63,3.22,5.26,4.63,8.03c3.18,6.17,1.54,12.39-4.27,15.88c-8.39,5.08-16.7,9.89-25.27,14.52
			c-6.13,3.54-12.75,1.77-16.33-4.4c-16.15-27.86-32.44-55.86-48.41-83.85c-3.63-6.53-1.86-12.89,4.45-16.74
			c8.03-4.81,16.2-9.44,24.41-14.02C227.08,241.09,229.39,240.68,231.48,239.91"/>
	</g>
</g>
</svg>
