<?xml version="1.0" encoding="utf-8"?>
<!-- Generator: Adobe Illustrator 23.0.1, SVG Export Plug-In . SVG Version: 6.00 Build 0)  -->
<svg version="1.1" id="Capa_1" xmlns="http://www.w3.org/2000/svg" xmlns:xlink="http://www.w3.org/1999/xlink" x="0px" y="0px"
	 viewBox="0 0 194.83 284.37" style="enable-background:new 0 0 194.83 284.37;" xml:space="preserve">
<style type="text/css">
	.st0{fill:#0C88C5;}
</style>
<g>
	<path class="st0" d="M96.42,0C43.41,0.53,0.2,44.03,0,97.04c-0.03,8.84,1.12,17.4,3.29,25.54c1.37,5.13,3.14,10.1,5.29,14.86
		c2,4.43,4.32,8.69,6.94,12.74c3.46,5.35,6.68,10.85,9.86,16.36l23.33,40.41l42.69,73.94c2.67,4.63,9.36,4.63,12.03,0l42.69-73.94
		l23.33-40.41c3.18-5.51,6.4-11.01,9.86-16.35c2.62-4.05,4.94-8.31,6.94-12.74c2.15-4.76,3.92-9.73,5.29-14.86
		c2.14-8.03,3.29-16.46,3.29-25.17C194.82,43.28,150.68-0.53,96.42,0z M97.41,150.18c-30.99,0-56.12-25.12-56.12-56.12
		s25.12-56.12,56.12-56.12c30.99,0,56.12,25.12,56.12,56.12S128.4,150.18,97.41,150.18z"/>
</g>
</svg>
