<svg xmlns="http://www.w3.org/2000/svg" viewBox="0 0 94.4 75.71"><defs><style>.cls-1{fill:#606363;}.cls-2{fill:#f5f2f0;}.cls-3{fill:#cac2cd;}.cls-4{fill:#adadad;}</style></defs><title>Asset 2</title><g id="Layer_2" data-name="Layer 2"><g id="Site"><polygon class="cls-1" points="89.47 32.85 87.65 32.85 87.66 24.67 79.27 24.67 79.27 22.86 89.47 22.86 89.47 32.85"/><path class="cls-2" d="M24.32,40.76l22.5-25.83a30.23,30.23,0,1,0,.26,51.51Z"/><path class="cls-1" d="M31.13,71.89a36.67,36.67,0,0,1-4.75-.36,31.76,31.76,0,0,1-12.77-5A31.13,31.13,0,0,1,47.29,14.16l.92.56-22.68,26L48.47,66.64l-.91.57A31.12,31.12,0,0,1,31.13,71.89Zm0-60.44A29.32,29.32,0,0,0,14.64,65a30.72,30.72,0,0,0,12,4.72,35.37,35.37,0,0,0,4.52.35,29.2,29.2,0,0,0,14.54-3.86L23.11,40.77,45.42,15.16A29.3,29.3,0,0,0,31.13,11.45Z"/><path class="cls-3" d="M54.58,21.71,38,40.73,54.77,59.58a30.2,30.2,0,0,0-.19-37.87Z"/><path class="cls-4" d="M70,14.07c0,2.35-1.66,4-4.46,4.23v2.79H64V18.28A8.06,8.06,0,0,1,59.24,16l1.2-1.43a6.6,6.6,0,0,0,4.45,1.91c1.7,0,3-.85,3-2.3,0-1.65-1.32-2.2-3.45-2.86-2.52-.81-4.81-1.6-4.81-4.35,0-2.23,1.56-3.93,4.37-4.07V0h1.54V3a9.41,9.41,0,0,1,3.93,1.68L68.26,6.12a7.1,7.1,0,0,0-3.88-1.36c-1.61,0-2.73.75-2.73,2.1S63,8.83,65,9.46c2.83.9,5,1.65,5,4.61Z"/><polygon class="cls-1" points="24.08 65.73 22.66 64.61 37.56 45.63 69.26 45.63 87.13 23.2 88.55 24.33 70.13 47.45 38.44 47.45 24.08 65.73"/><path class="cls-1" d="M54.8,61l-18-20.25L54.58,20.34l.68.77a31.37,31.37,0,0,1,7,20.66c0,.25-.28,6.29-2.15,10.36a27.49,27.49,0,0,1-4.62,8ZM39.21,40.72,54.72,58.17a25.46,25.46,0,0,0,3.66-6.65l0-.11c1.74-3.74,2-9.66,2-9.72a30.15,30.15,0,0,0-5.87-18.56Z"/><polygon class="cls-3" points="81.97 49.49 71.84 58.93 77.19 58.93 77.19 74.81 86.76 74.81 86.76 58.93 92.1 58.93 81.97 49.49"/><path class="cls-1" d="M87.66,75.71H76.28V59.83H69.54L82,48.25,94.4,59.83H87.66ZM78.09,73.9h7.76V58h4L82,50.73,74.14,58h4Z"/></g></g></svg>