<svg xmlns="http://www.w3.org/2000/svg" viewBox="0 0 67.43 80.4"><defs><style>.cls-1{fill:#cac2cd;}.cls-2{fill:#fff;}.cls-3{fill:#606363;}.cls-4{fill:#d6d7d7;}</style></defs><title>Asset 4</title><g id="Layer_2" data-name="Layer 2"><g id="Site"><circle class="cls-1" cx="36.55" cy="42.34" r="30.62" transform="translate(-19.23 38.25) rotate(-45)"/><path class="cls-2" d="M34.73,79.5V63.21H14.66V48.29h-9l9-17.3h0c0-12.09,9.8-20.83,21.9-20.83h.34A21.89,21.89,0,0,1,58.79,32.05V79.5Z"/><path class="cls-3" d="M59.7,80.4H33.83V64.11H13.76V49.19H4.22l9.54-18.42a21.08,21.08,0,0,1,6.7-15.39,23.43,23.43,0,0,1,16.1-6.13h.34a22.83,22.83,0,0,1,22.8,22.8ZM35.63,78.6H57.89V32.05a21,21,0,0,0-21-21h-.34c-12,0-21,8.57-21,19.93v.22L7.18,47.39h8.38V62.3H35.63Z"/><path class="cls-3" d="M66.17,21l-1.59-.84A9.18,9.18,0,0,0,54.25,7l-.43-1.75A11,11,0,0,1,66.17,21Z"/><polygon class="cls-3" points="58.03 12.33 52.07 6.07 58.46 0 59.7 1.31 54.62 6.14 59.33 11.09 58.03 12.33"/><path class="cls-3" d="M11,73.25A11,11,0,0,1,1.25,57.18l1.6.84A9.18,9.18,0,0,0,13.18,71.18l.42,1.75A11,11,0,0,1,11,73.25Z"/><polygon class="cls-3" points="8.97 78.2 7.73 76.89 12.8 72.06 8.09 67.11 9.4 65.86 15.35 72.12 8.97 78.2"/><path class="cls-4" d="M30.8,18.42H42.31a8,8,0,0,1,8,8h0a8,8,0,0,1-8,8H39.86l1.06,5.79-8.41-5.79H30.8a8,8,0,0,1-8-8h0A8,8,0,0,1,30.8,18.42Z"/><path class="cls-3" d="M42.2,42.12l-10-6.86H30.8a8.87,8.87,0,0,1,0-17.74H42.31a8.87,8.87,0,0,1,0,17.74H41ZM30.8,19.32a7.07,7.07,0,1,0,0,14.14h2l6.86,4.71-.87-4.71h3.53a7.07,7.07,0,0,0,0-14.14Z"/><path class="cls-3" d="M32.41,26.08a1.32,1.32,0,1,1-1.32-1.32A1.32,1.32,0,0,1,32.41,26.08Z"/><path class="cls-3" d="M37.87,26.08a1.32,1.32,0,1,1-1.32-1.32A1.32,1.32,0,0,1,37.87,26.08Z"/><path class="cls-3" d="M43.34,26.08A1.33,1.33,0,1,1,42,24.76,1.33,1.33,0,0,1,43.34,26.08Z"/></g></g></svg>