<?xml version="1.0" standalone="no"?><!-- Generator: Gravit.io --><svg xmlns="http://www.w3.org/2000/svg" xmlns:xlink="http://www.w3.org/1999/xlink" style="isolation:isolate" viewBox="0 0 135 40" width="135" height="40"><defs><clipPath id="_clipPath_lavqVnSnSXz4Q7YsCTxBxf3jhXJrbiS6"><rect width="135" height="40"/></clipPath></defs><g clip-path="url(#_clipPath_lavqVnSnSXz4Q7YsCTxBxf3jhXJrbiS6)"><rect x="0" y="0" width="135.036" height="40.005" transform="matrix(1,0,0,1,0,0)" fill="none"/><clipPath id="_clipPath_goBhZsTKwSESRFsrICtILuGMh24YX9Jq"><rect x="0" y="0" width="135.036" height="40.005" transform="matrix(1,0,0,1,0,0)" fill="rgb(255,255,255)"/></clipPath><g clip-path="url(#_clipPath_goBhZsTKwSESRFsrICtILuGMh24YX9Jq)"><g><g><path d=" M 130.023 39.982 L 5.023 39.982 C 2.273 39.982 0.023 37.732 0.023 34.982 L 0.023 4.982 C 0.023 2.232 2.273 -0.018 5.023 -0.018 L 130.023 -0.018 C 132.773 -0.018 135.023 2.232 135.023 4.982 L 135.023 34.982 C 135.023 37.732 132.773 39.982 130.023 39.982 Z " fill="rgb(0,0,0)"/><path d=" M 130.023 -0.017 L 5.023 -0.017 C 2.273 -0.017 0.023 2.233 0.023 4.982 L 0.023 34.983 C 0.023 37.732 2.273 39.983 5.023 39.983 L 130.023 39.983 C 132.773 39.983 135.023 37.732 135.023 34.983 L 135.023 4.982 C 135.023 2.233 132.773 -0.017 130.023 -0.017 Z  M 130.023 0.782 C 132.339 0.782 134.223 2.667 134.223 4.982 L 134.223 34.983 C 134.223 37.298 132.339 39.183 130.023 39.183 L 5.023 39.183 C 2.707 39.183 0.823 37.298 0.823 34.983 L 0.823 4.982 C 0.823 2.667 2.707 0.782 5.023 0.782 L 130.023 0.782 Z " fill="rgb(166,166,166)"/><path d=" M 106.959 29.983 L 108.825 29.983 L 108.825 17.481 L 106.959 17.481 L 106.959 29.983 Z  M 123.766 21.984 L 121.627 27.404 L 121.563 27.404 L 119.343 21.984 L 117.333 21.984 L 120.662 29.56 L 118.764 33.773 L 120.711 33.773 L 125.841 21.984 L 123.766 21.984 Z  M 113.184 28.562 C 112.572 28.562 111.72 28.257 111.72 27.501 C 111.72 26.536 112.782 26.166 113.698 26.166 C 114.519 26.166 114.904 26.343 115.403 26.584 C 115.258 27.742 114.261 28.562 113.184 28.562 Z  M 113.409 21.711 C 112.058 21.711 110.659 22.306 110.08 23.625 L 111.736 24.317 C 112.09 23.625 112.749 23.4 113.441 23.4 C 114.406 23.4 115.387 23.979 115.403 25.008 L 115.403 25.137 C 115.065 24.944 114.342 24.654 113.457 24.654 C 111.672 24.654 109.854 25.635 109.854 27.469 C 109.854 29.141 111.318 30.219 112.958 30.219 C 114.213 30.219 114.904 29.656 115.339 28.997 L 115.403 28.997 L 115.403 29.962 L 117.204 29.962 L 117.204 25.169 C 117.204 22.949 115.548 21.711 113.409 21.711 Z  M 101.877 23.506 L 99.223 23.506 L 99.223 19.221 L 101.877 19.221 C 103.272 19.221 104.064 20.376 104.064 21.364 C 104.064 22.333 103.272 23.506 101.877 23.506 Z  M 101.829 17.481 L 97.358 17.481 L 97.358 29.983 L 99.223 29.983 L 99.223 25.246 L 101.829 25.246 C 103.897 25.246 105.93 23.749 105.93 21.364 C 105.93 18.978 103.897 17.481 101.829 17.481 Z  M 77.447 28.565 C 76.159 28.565 75.079 27.485 75.079 26.003 C 75.079 24.505 76.159 23.41 77.447 23.41 C 78.72 23.41 79.719 24.505 79.719 26.003 C 79.719 27.485 78.72 28.565 77.447 28.565 Z  M 79.59 22.685 L 79.526 22.685 C 79.107 22.185 78.301 21.734 77.286 21.734 C 75.16 21.734 73.21 23.603 73.21 26.003 C 73.21 28.388 75.16 30.24 77.286 30.24 C 78.301 30.24 79.107 29.789 79.526 29.274 L 79.59 29.274 L 79.59 29.886 C 79.59 31.513 78.72 32.383 77.318 32.383 C 76.175 32.383 75.466 31.561 75.176 30.869 L 73.549 31.545 C 74.016 32.673 75.256 34.059 77.318 34.059 C 79.51 34.059 81.362 32.77 81.362 29.628 L 81.362 21.992 L 79.59 21.992 L 79.59 22.685 Z  M 82.651 29.983 L 84.52 29.983 L 84.52 17.481 L 82.651 17.481 L 82.651 29.983 Z  M 87.275 25.858 C 87.226 24.215 88.548 23.377 89.498 23.377 C 90.24 23.377 90.868 23.748 91.077 24.28 L 87.275 25.858 Z  M 93.075 24.441 C 92.721 23.49 91.641 21.734 89.434 21.734 C 87.243 21.734 85.422 23.458 85.422 25.987 C 85.422 28.372 87.226 30.24 89.643 30.24 C 91.593 30.24 92.721 29.048 93.188 28.355 L 91.738 27.389 C 91.255 28.098 90.594 28.565 89.643 28.565 C 88.692 28.565 88.016 28.13 87.581 27.276 L 93.268 24.924 L 93.075 24.441 Z  M 47.766 23.039 L 47.766 24.843 L 52.084 24.843 C 51.955 25.858 51.617 26.599 51.101 27.115 C 50.473 27.743 49.49 28.436 47.766 28.436 C 45.108 28.436 43.03 26.293 43.03 23.635 C 43.03 20.977 45.108 18.834 47.766 18.834 C 49.2 18.834 50.247 19.398 51.021 20.123 L 52.293 18.85 C 51.214 17.819 49.78 17.03 47.766 17.03 C 44.125 17.03 41.064 19.994 41.064 23.635 C 41.064 27.276 44.125 30.24 47.766 30.24 C 49.732 30.24 51.214 29.596 52.374 28.388 C 53.566 27.195 53.937 25.52 53.937 24.167 C 53.937 23.748 53.904 23.361 53.84 23.039 L 47.766 23.039 Z  M 58.845 28.565 C 57.556 28.565 56.445 27.502 56.445 25.987 C 56.445 24.457 57.556 23.41 58.845 23.41 C 60.134 23.41 61.245 24.457 61.245 25.987 C 61.245 27.502 60.134 28.565 58.845 28.565 Z  M 58.845 21.734 C 56.493 21.734 54.576 23.522 54.576 25.987 C 54.576 28.436 56.493 30.24 58.845 30.24 C 61.197 30.24 63.114 28.436 63.114 25.987 C 63.114 23.522 61.197 21.734 58.845 21.734 Z  M 68.158 28.565 C 66.87 28.565 65.758 27.502 65.758 25.987 C 65.758 24.457 66.87 23.41 68.158 23.41 C 69.447 23.41 70.559 24.457 70.559 25.987 C 70.559 27.502 69.447 28.565 68.158 28.565 Z  M 68.158 21.734 C 65.806 21.734 63.889 23.522 63.889 25.987 C 63.889 28.436 65.806 30.24 68.158 30.24 C 70.511 30.24 72.428 28.436 72.428 25.987 C 72.428 23.522 70.511 21.734 68.158 21.734 Z " fill="rgb(255,255,255)"/><linearGradient id="_lgradient_0" x1="0.9150394553612873" y1="0.0443013964000325" x2="-0.12044915668317735" y2="-0.9911872156444324" gradientTransform="matrix(12.926,0,0,24.778,9.995,7.594)" gradientUnits="userSpaceOnUse"><stop offset="0%" stop-opacity="1" style="stop-color:rgb(0,160,255)"/><stop offset="100%" stop-opacity="1" style="stop-color:rgb(0,226,255)"/></linearGradient><path d=" M 10.532 32.372 L 10.458 32.301 C 10.167 31.993 9.995 31.515 9.995 30.896 L 9.995 31.041 L 9.995 8.925 C 9.995 8.924 9.995 8.922 9.995 8.92 L 9.995 9.072 C 9.995 8.402 10.196 7.896 10.531 7.594 L 22.921 19.983 L 10.532 32.372 Z  M 9.995 8.919 C 9.995 8.864 9.997 8.81 9.999 8.758 C 9.997 8.81 9.995 8.864 9.995 8.919 Z  M 10 8.755 C 10 8.755 10 8.754 10 8.753 C 10 8.754 10 8.755 10 8.755 Z  M 10 8.748 L 10 8.747 L 10 8.748 Z " fill-rule="evenodd" fill="url(#_lgradient_0)"/><linearGradient id="_lgradient_1" x1="1.0759937032664308" y1="0.49124643196955287" x2="-1.3046635182998827" y2="0.49124643218331804" gradientTransform="matrix(10.164,0,0,8.408,22.921,15.853)" gradientUnits="userSpaceOnUse"><stop offset="0%" stop-opacity="1" style="stop-color:rgb(255,223,0)"/><stop offset="100%" stop-opacity="1" style="stop-color:rgb(255,156,0)"/></linearGradient><path d=" M 27.05 24.261 L 27.144 24.207 L 32.037 21.427 C 32.504 21.162 32.815 20.841 32.97 20.5 C 32.815 20.841 32.504 21.162 32.037 21.428 L 27.144 24.208 L 27.05 24.261 Z  M 27.051 24.114 L 22.921 19.983 L 27.051 15.853 L 32.037 18.686 C 32.671 19.045 33.026 19.509 33.085 19.983 C 33.085 19.983 33.085 19.984 33.085 19.985 C 33.026 20.457 32.671 20.921 32.037 21.281 L 27.051 24.114 Z " fill-rule="evenodd" fill="url(#_lgradient_1)"/><linearGradient id="_lgradient_2" x1="0.8673057213480437" y1="0.1784542415053263" x2="-0.5047507083860856" y2="-1.1936021882288033" gradientTransform="matrix(16.587,0,0,12.861,10.464,19.983)" gradientUnits="userSpaceOnUse"><stop offset="0%" stop-opacity="1" style="stop-color:rgb(255,58,68)"/><stop offset="100%" stop-opacity="1" style="stop-color:rgb(195,17,98)"/></linearGradient><path d=" M 11.415 32.844 C 11.069 32.844 10.768 32.731 10.532 32.519 L 10.532 32.518 C 10.768 32.731 11.07 32.844 11.416 32.844 C 11.446 32.844 11.477 32.843 11.508 32.841 C 11.477 32.843 11.446 32.844 11.415 32.844 Z  M 11.416 32.697 C 11.07 32.698 10.768 32.585 10.532 32.372 L 22.921 19.983 L 27.051 24.114 L 12.536 32.362 C 12.135 32.59 11.754 32.697 11.416 32.697 Z  M 10.529 32.516 C 10.507 32.496 10.485 32.475 10.464 32.453 L 10.529 32.516 Z " fill-rule="evenodd" fill="url(#_lgradient_2)"/><linearGradient id="_lgradient_3" x1="-0.19326431108168274" y1="-0.5415863141524102" x2="0.4184554264732441" y2="-1.1533060517073368" gradientTransform="matrix(16.613,0,0,12.86,10.531,7.123)" gradientUnits="userSpaceOnUse"><stop offset="0%" stop-opacity="1" style="stop-color:rgb(49,160,112)"/><stop offset="100%" stop-opacity="1" style="stop-color:rgb(0,239,117)"/></linearGradient><path d=" M 22.921 19.983 L 10.531 7.594 C 10.767 7.382 11.068 7.269 11.414 7.269 C 11.753 7.269 12.134 7.377 12.536 7.606 L 27.051 15.853 L 22.921 19.983 Z  M 27.144 15.76 L 12.536 7.46 C 12.134 7.231 11.753 7.123 11.414 7.123 C 11.413 7.123 11.411 7.123 11.41 7.123 C 11.411 7.123 11.413 7.123 11.415 7.123 C 11.754 7.123 12.134 7.231 12.536 7.459 L 27.144 15.759 L 27.144 15.76 Z " fill-rule="evenodd" fill="url(#_lgradient_3)"/><path d=" M 11.508 32.841 C 11.822 32.823 12.17 32.715 12.536 32.508 L 27.05 24.261 L 12.536 32.508 C 12.17 32.716 11.822 32.824 11.508 32.841 Z  M 10.532 32.519 L 10.529 32.516 C 10.53 32.517 10.531 32.518 10.532 32.519 Z  M 10.464 32.453 L 10.458 32.447 C 10.46 32.449 10.462 32.451 10.464 32.453 Z " fill="rgb(0,0,0)"/><line x1="27.05" y1="24.261" x2="27.144" y2="24.207"/><linearGradient id="_lgradient_4" x1="0.8625194774062086" y1="-0.21029782359679183" x2="-0.5013963801989689" y2="-1.5742136812019696" gradientTransform="matrix(16.686,0,0,8.73,10.458,24.114)" gradientUnits="userSpaceOnUse"><stop offset="0%" stop-opacity="1" style="stop-color:rgb(204,45,54)"/><stop offset="100%" stop-opacity="1" style="stop-color:rgb(156,14,77)"/></linearGradient><path d=" M 11.416 32.844 C 11.07 32.844 10.768 32.731 10.532 32.518 L 10.532 32.519 C 10.531 32.518 10.53 32.517 10.529 32.516 L 10.464 32.453 C 10.462 32.451 10.46 32.449 10.458 32.447 L 10.532 32.372 C 10.768 32.585 11.07 32.698 11.416 32.697 C 11.754 32.697 12.135 32.59 12.536 32.362 L 27.051 24.114 L 27.144 24.207 L 27.05 24.261 L 12.536 32.508 C 12.17 32.715 11.822 32.823 11.508 32.841 C 11.477 32.843 11.446 32.844 11.416 32.844 Z " fill-rule="evenodd" fill="url(#_lgradient_4)"/><path d=" M 10.458 32.447 C 10.167 32.139 9.995 31.661 9.995 31.042 L 9.995 31.041 C 9.995 31.661 10.167 32.139 10.458 32.446 L 10.458 32.447 Z " fill="rgb(0,0,0)"/><linearGradient id="_lgradient_5" x1="22.025698324022386" y1="-14.325354838709705" x2="-1.3617021244591285" y2="-37.71275528719122" gradientTransform="matrix(0.537,0,0,1.55,9.995,30.896)" gradientUnits="userSpaceOnUse"><stop offset="0%" stop-opacity="1" style="stop-color:rgb(0,140,223)"/><stop offset="100%" stop-opacity="1" style="stop-color:rgb(0,198,223)"/></linearGradient><path d=" M 10.458 32.446 C 10.167 32.139 9.995 31.661 9.995 31.041 L 9.995 30.896 C 9.995 31.515 10.167 31.993 10.458 32.301 L 10.532 32.372 L 10.458 32.446 Z " fill-rule="evenodd" fill="url(#_lgradient_5)"/><linearGradient id="_lgradient_6" x1="194.48648648648225" y1="-134.58533333332826" x2="-111.01469092560433" y2="-440.08651074541484" gradientTransform="matrix(0.074,0,0,0.075,10.458,32.372)" gradientUnits="userSpaceOnUse"><stop offset="0%" stop-opacity="1" style="stop-color:rgb(223,51,59)"/><stop offset="100%" stop-opacity="1" style="stop-color:rgb(170,14,86)"/></linearGradient><path d=" M 10.458 32.447 L 10.458 32.446 L 10.532 32.372 L 10.458 32.447 Z " fill-rule="evenodd" fill="url(#_lgradient_6)"/><path d=" M 32.97 20.5 C 33.047 20.332 33.085 20.158 33.085 19.985 C 33.085 19.984 33.086 19.984 33.086 19.984 C 33.086 20.158 33.047 20.331 32.97 20.5 Z " fill="rgb(0,0,0)"/><linearGradient id="_lgradient_7" x1="1.1280079549221087" y1="-0.0003789673140692784" x2="-2.8821014252568773" y2="-0.00037896695399155064" gradientTransform="matrix(6.034,0,0,4.222,27.051,19.985)" gradientUnits="userSpaceOnUse"><stop offset="0%" stop-opacity="1" style="stop-color:rgb(223,196,0)"/><stop offset="100%" stop-opacity="1" style="stop-color:rgb(223,137,0)"/></linearGradient><path d=" M 27.144 24.207 L 27.051 24.114 L 32.037 21.281 C 32.671 20.921 33.026 20.457 33.085 19.985 C 33.085 20.158 33.047 20.332 32.97 20.5 C 32.815 20.841 32.504 21.162 32.037 21.427 L 27.144 24.207 Z " fill-rule="evenodd" fill="url(#_lgradient_7)"/><path d=" M 33.086 19.983 L 33.085 19.983 C 33.085 19.46 32.736 18.937 32.037 18.54 L 27.144 15.76 L 27.144 15.759 L 32.037 18.54 C 32.736 18.937 33.086 19.46 33.086 19.983 Z " fill="rgb(64,64,64)"/><linearGradient id="_lgradient_8" x1="1.1280079549221087" y1="1.000094719393796" x2="-2.8821014252568773" y2="1.0000947197538737" gradientTransform="matrix(6.034,0,0,4.223,27.051,15.76)" gradientUnits="userSpaceOnUse"><stop offset="0%" stop-opacity="1" style="stop-color:rgb(255,232,63)"/><stop offset="100%" stop-opacity="1" style="stop-color:rgb(255,181,63)"/></linearGradient><path d=" M 33.085 19.983 C 33.026 19.509 32.671 19.045 32.037 18.686 L 27.051 15.853 L 27.144 15.76 L 32.037 18.54 C 32.736 18.937 33.085 19.46 33.085 19.983 Z " fill-rule="evenodd" fill="url(#_lgradient_8)"/><path d=" M 9.995 8.92 L 9.995 8.919 L 9.995 8.92 Z  M 9.999 8.758 C 10 8.757 10 8.756 10 8.755 C 10 8.756 10 8.757 9.999 8.758 Z  M 10 8.753 C 10 8.752 10 8.75 10 8.748 C 10 8.75 10 8.752 10 8.753 Z  M 10 8.747 C 10.058 7.72 10.616 7.127 11.406 7.123 C 11.064 7.125 10.766 7.237 10.532 7.448 L 10.529 7.451 C 10.505 7.473 10.481 7.496 10.458 7.52 C 10.196 7.798 10.03 8.214 10 8.747 Z " fill="rgb(64,64,64)"/><linearGradient id="_lgradient_9" x1="22.025698324022386" y1="0.7658251231527107" x2="-1.249831902235492" y2="-22.509705103105176" gradientTransform="matrix(0.537,0,0,1.624,9.995,7.448)" gradientUnits="userSpaceOnUse"><stop offset="0%" stop-opacity="1" style="stop-color:rgb(63,184,255)"/><stop offset="100%" stop-opacity="1" style="stop-color:rgb(63,233,255)"/></linearGradient><path d=" M 9.995 9.072 L 9.995 8.926 C 9.995 8.924 9.995 8.922 9.995 8.92 L 9.995 8.919 C 9.995 8.864 9.997 8.81 9.999 8.758 C 10 8.757 10 8.756 10 8.755 C 10 8.755 10 8.754 10 8.753 C 10 8.752 10 8.75 10 8.748 L 10 8.747 C 10.03 8.214 10.196 7.798 10.458 7.52 L 10.531 7.594 C 10.196 7.896 9.995 8.402 9.995 9.072 Z  M 10.529 7.451 L 10.532 7.448 C 10.531 7.449 10.53 7.45 10.529 7.451 Z " fill-rule="evenodd" fill="url(#_lgradient_9)"/><path d=" M 11.406 7.123 C 11.407 7.123 11.408 7.123 11.41 7.123 C 11.408 7.123 11.407 7.123 11.406 7.123 Z " fill="rgb(64,64,64)"/><linearGradient id="_lgradient_10" x1="-0.18804386911183024" y1="-0.7978006872852232" x2="0.42099964041711635" y2="-1.4068441968141696" gradientTransform="matrix(16.686,0,0,8.73,10.458,7.123)" gradientUnits="userSpaceOnUse"><stop offset="0%" stop-opacity="1" style="stop-color:rgb(100,184,149)"/><stop offset="100%" stop-opacity="1" style="stop-color:rgb(63,244,151)"/></linearGradient><path d=" M 27.051 15.853 L 12.536 7.606 C 12.134 7.377 11.753 7.269 11.414 7.269 C 11.068 7.269 10.767 7.382 10.531 7.594 L 10.458 7.52 C 10.481 7.496 10.505 7.473 10.529 7.451 C 10.53 7.45 10.531 7.449 10.532 7.448 C 10.766 7.237 11.064 7.125 11.406 7.123 L 11.414 7.123 C 11.753 7.123 12.134 7.231 12.536 7.46 L 27.144 15.76 L 27.051 15.853 Z " fill-rule="evenodd" fill="url(#_lgradient_10)"/><path d=" M 42.073 12.245 L 43.138 12.245 C 43.83 12.245 44.379 12.047 44.784 11.65 C 45.19 11.253 45.392 10.697 45.392 9.982 C 45.392 9.273 45.19 8.719 44.784 8.319 C 44.379 7.92 43.83 7.72 43.138 7.72 L 42.073 7.72 L 42.073 12.245 Z  M 41.303 12.982 L 41.303 6.982 L 43.138 6.982 C 44.06 6.982 44.797 7.26 45.351 7.816 C 45.903 8.372 46.18 9.094 46.18 9.982 C 46.18 10.871 45.903 11.593 45.351 12.148 C 44.797 12.705 44.06 12.982 43.138 12.982 L 41.303 12.982 Z " fill="rgb(255,255,255)"/><path d=" M 42.073 12.245 L 42.073 12.345 L 43.138 12.345 C 43.848 12.346 44.428 12.139 44.854 11.721 C 45.282 11.303 45.492 10.715 45.492 9.982 C 45.492 9.255 45.282 8.669 44.855 8.248 L 44.854 8.248 C 44.429 7.828 43.849 7.619 43.138 7.62 L 42.073 7.62 L 41.973 7.62 L 41.973 12.345 L 42.073 12.345 L 42.073 12.245 L 42.173 12.245 L 42.173 7.82 L 43.138 7.82 C 43.812 7.821 44.329 8.012 44.714 8.39 C 45.097 8.769 45.291 9.291 45.292 9.982 C 45.291 10.679 45.097 11.204 44.714 11.578 C 44.33 11.954 43.812 12.144 43.138 12.145 L 42.073 12.145 L 42.073 12.245 L 42.173 12.245 L 42.073 12.245 Z  M 41.303 12.982 L 41.403 12.982 L 41.403 7.082 L 43.138 7.082 C 44.04 7.083 44.746 7.352 45.28 7.887 C 45.813 8.424 46.079 9.114 46.08 9.982 C 46.079 10.85 45.813 11.541 45.28 12.078 C 44.746 12.613 44.04 12.882 43.138 12.882 L 41.303 12.882 L 41.303 12.982 L 41.403 12.982 L 41.303 12.982 L 41.303 13.082 L 43.138 13.082 C 44.079 13.083 44.848 12.796 45.422 12.219 C 45.994 11.644 46.281 10.891 46.28 9.982 C 46.281 9.074 45.994 8.32 45.422 7.746 C 44.848 7.169 44.079 6.882 43.138 6.882 L 41.203 6.882 L 41.203 13.082 L 41.303 13.082 L 41.303 12.982 Z " fill="rgb(255,255,255)"/><rect x="47.262" y="6.982" width="0.77" height="6" transform="matrix(1,0,0,1,0,0)" fill="rgb(255,255,255)"/><path d=" M 47.262 12.982 L 47.362 12.982 L 47.362 7.082 L 47.932 7.082 L 47.932 12.882 L 47.262 12.882 L 47.262 12.982 L 47.362 12.982 L 47.262 12.982 L 47.262 13.082 L 48.132 13.082 L 48.132 6.882 L 47.262 6.882 L 47.162 6.882 L 47.162 13.082 L 47.262 13.082 L 47.262 12.982 Z " fill="rgb(255,255,255)"/><path d=" M 51.099 13.116 C 50.663 13.116 50.237 12.974 49.821 12.689 C 49.404 12.404 49.132 12.005 49.004 11.491 L 49.708 11.206 C 49.792 11.536 49.963 11.814 50.223 12.04 C 50.483 12.266 50.775 12.379 51.099 12.379 C 51.434 12.379 51.721 12.291 51.958 12.115 C 52.195 11.939 52.314 11.7 52.314 11.398 C 52.314 11.064 52.195 10.805 51.958 10.624 C 51.721 10.442 51.345 10.273 50.831 10.116 C 50.3 9.949 49.898 9.732 49.624 9.467 C 49.351 9.202 49.213 8.862 49.213 8.449 C 49.213 8.019 49.384 7.645 49.725 7.326 C 50.066 7.008 50.51 6.848 51.057 6.848 C 51.566 6.848 51.979 6.976 52.297 7.23 C 52.615 7.484 52.822 7.762 52.917 8.064 L 52.214 8.356 C 52.163 8.167 52.039 7.991 51.841 7.829 C 51.643 7.667 51.387 7.586 51.073 7.586 C 50.777 7.586 50.525 7.668 50.316 7.833 C 50.106 7.998 50.001 8.203 50.001 8.449 C 50.001 8.672 50.098 8.861 50.29 9.015 C 50.483 9.168 50.767 9.307 51.141 9.429 C 51.437 9.524 51.684 9.616 51.883 9.706 C 52.081 9.795 52.282 9.914 52.485 10.062 C 52.69 10.21 52.843 10.395 52.946 10.615 C 53.05 10.836 53.102 11.091 53.102 11.382 C 53.102 11.672 53.042 11.932 52.922 12.161 C 52.802 12.391 52.642 12.572 52.443 12.706 C 52.245 12.84 52.032 12.942 51.803 13.012 C 51.573 13.082 51.339 13.116 51.099 13.116 Z " fill="rgb(255,255,255)"/><path d=" M 51.099 13.116 L 51.099 13.016 C 50.685 13.016 50.281 12.882 49.878 12.607 C 49.481 12.334 49.225 11.96 49.101 11.467 L 49.004 11.491 L 49.041 11.583 L 49.746 11.299 L 49.708 11.206 L 49.611 11.231 C 49.7 11.579 49.883 11.877 50.157 12.115 C 50.433 12.355 50.751 12.48 51.099 12.479 C 51.451 12.479 51.762 12.385 52.018 12.196 C 52.279 12.005 52.416 11.726 52.414 11.398 C 52.415 11.041 52.282 10.743 52.019 10.544 C 51.765 10.35 51.38 10.18 50.86 10.021 L 50.861 10.021 C 50.339 9.857 49.951 9.646 49.694 9.395 C 49.44 9.148 49.314 8.84 49.313 8.449 C 49.314 8.046 49.469 7.703 49.793 7.399 C 50.114 7.1 50.529 6.949 51.057 6.948 C 51.549 6.949 51.937 7.071 52.235 7.308 C 52.542 7.553 52.734 7.815 52.822 8.093 L 52.917 8.064 L 52.879 7.971 L 52.175 8.264 L 52.214 8.356 L 52.311 8.331 C 52.253 8.116 52.114 7.922 51.904 7.751 C 51.686 7.573 51.403 7.486 51.073 7.486 C 50.759 7.485 50.481 7.575 50.254 7.755 L 50.254 7.754 C 50.024 7.933 49.899 8.174 49.901 8.449 C 49.9 8.702 50.016 8.926 50.228 9.093 C 50.436 9.257 50.729 9.399 51.11 9.524 C 51.404 9.619 51.648 9.71 51.842 9.797 C 52.033 9.883 52.228 9.998 52.427 10.143 C 52.618 10.282 52.759 10.452 52.856 10.658 C 52.952 10.863 53.002 11.103 53.002 11.382 C 53.002 11.659 52.945 11.901 52.833 12.115 C 52.72 12.331 52.572 12.498 52.387 12.623 L 52.388 12.623 C 52.197 12.752 51.994 12.849 51.774 12.916 C 51.554 12.983 51.329 13.016 51.099 13.016 L 51.099 13.216 C 51.349 13.216 51.593 13.18 51.832 13.107 C 52.071 13.035 52.293 12.928 52.499 12.789 L 52.5 12.789 C 52.712 12.645 52.884 12.45 53.011 12.208 C 53.139 11.963 53.202 11.686 53.202 11.382 C 53.202 11.08 53.148 10.809 53.037 10.573 C 52.927 10.337 52.761 10.138 52.544 9.981 C 52.336 9.83 52.129 9.707 51.924 9.615 L 51.923 9.614 L 51.924 9.615 C 51.72 9.523 51.47 9.43 51.171 9.334 L 51.172 9.334 C 50.805 9.214 50.531 9.079 50.352 8.936 L 50.353 8.937 C 50.179 8.796 50.103 8.643 50.101 8.449 C 50.103 8.232 50.187 8.063 50.377 7.912 C 50.568 7.761 50.796 7.686 51.073 7.686 C 51.37 7.686 51.6 7.761 51.778 7.906 L 51.779 7.907 L 51.778 7.906 C 51.964 8.059 52.073 8.218 52.117 8.382 L 52.147 8.493 L 52.956 8.156 L 53.04 8.121 L 53.012 8.034 C 52.91 7.708 52.689 7.414 52.359 7.151 C 52.02 6.881 51.582 6.748 51.057 6.748 C 50.491 6.747 50.017 6.916 49.656 7.253 C 49.299 7.586 49.112 7.991 49.113 8.449 C 49.112 8.884 49.261 9.256 49.554 9.539 C 49.844 9.819 50.26 10.041 50.801 10.212 L 50.802 10.212 C 51.309 10.366 51.677 10.534 51.897 10.703 C 52.109 10.867 52.212 11.086 52.214 11.398 C 52.212 11.674 52.112 11.874 51.899 12.035 C 51.68 12.197 51.416 12.279 51.099 12.279 C 50.798 12.278 50.534 12.176 50.288 11.964 C 50.043 11.75 49.885 11.492 49.805 11.181 L 49.777 11.07 L 48.967 11.398 L 48.886 11.431 L 48.907 11.515 C 49.039 12.05 49.328 12.474 49.765 12.772 C 50.194 13.066 50.641 13.216 51.099 13.216 L 51.099 13.116 Z " fill="rgb(255,255,255)"/><path d=" M 54.979 9.814 L 56.27 9.814 C 56.594 9.814 56.854 9.706 57.049 9.488 C 57.244 9.27 57.342 9.03 57.342 8.768 C 57.342 8.505 57.244 8.265 57.049 8.047 C 56.854 7.829 56.594 7.72 56.27 7.72 L 54.979 7.72 L 54.979 9.814 Z  M 54.979 12.982 L 54.208 12.982 L 54.208 6.982 L 56.253 6.982 C 56.761 6.982 57.201 7.151 57.572 7.489 C 57.944 7.827 58.13 8.253 58.13 8.768 C 58.13 9.281 57.944 9.707 57.572 10.045 C 57.201 10.383 56.761 10.552 56.253 10.552 L 54.979 10.552 L 54.979 12.982 Z " fill="rgb(255,255,255)"/><path d=" M 54.979 9.814 L 54.979 9.914 L 56.27 9.914 C 56.616 9.916 56.91 9.795 57.123 9.555 C 57.332 9.323 57.443 9.056 57.442 8.768 C 57.443 8.48 57.332 8.212 57.123 7.98 C 56.91 7.74 56.616 7.618 56.27 7.62 L 54.979 7.62 L 54.879 7.62 L 54.879 9.914 L 54.979 9.914 L 54.979 9.814 L 55.079 9.814 L 55.079 7.82 L 56.27 7.82 C 56.572 7.821 56.797 7.917 56.974 8.114 C 57.156 8.317 57.241 8.53 57.242 8.768 C 57.241 9.005 57.156 9.217 56.974 9.422 C 56.797 9.617 56.572 9.713 56.27 9.714 L 54.979 9.714 L 54.979 9.814 L 55.079 9.814 L 54.979 9.814 Z  M 54.979 12.982 L 54.979 12.882 L 54.308 12.882 L 54.308 7.082 L 56.253 7.082 C 56.739 7.083 57.15 7.241 57.505 7.563 C 57.857 7.885 58.029 8.277 58.03 8.768 C 58.029 9.257 57.857 9.649 57.505 9.971 C 57.15 10.293 56.739 10.451 56.253 10.452 L 54.979 10.452 L 54.879 10.452 L 54.879 12.982 L 54.979 12.982 L 54.979 12.882 L 54.979 12.982 L 55.079 12.982 L 55.079 10.652 L 56.253 10.652 C 56.783 10.653 57.252 10.473 57.64 10.119 C 58.031 9.765 58.231 9.305 58.23 8.768 C 58.231 8.229 58.031 7.769 57.64 7.415 C 57.252 7.061 56.783 6.882 56.253 6.882 L 54.108 6.882 L 54.108 13.082 L 55.079 13.082 L 55.079 12.982 L 54.979 12.982 Z " fill="rgb(255,255,255)"/><path d=" M 60.178 11.705 C 60.622 12.154 61.165 12.379 61.808 12.379 C 62.45 12.379 62.994 12.154 63.438 11.705 C 63.882 11.255 64.105 10.681 64.105 9.982 C 64.105 9.284 63.882 8.71 63.438 8.26 C 62.994 7.811 62.45 7.586 61.808 7.586 C 61.165 7.586 60.622 7.811 60.178 8.26 C 59.734 8.71 59.512 9.284 59.512 9.982 C 59.512 10.681 59.734 11.255 60.178 11.705 Z  M 64.008 12.207 C 63.418 12.814 62.685 13.116 61.808 13.116 C 60.931 13.116 60.197 12.814 59.608 12.207 C 59.019 11.601 58.725 10.859 58.725 9.982 C 58.725 9.105 59.019 8.364 59.608 7.758 C 60.197 7.151 60.931 6.848 61.808 6.848 C 62.68 6.848 63.411 7.153 64.004 7.762 C 64.596 8.371 64.892 9.111 64.892 9.982 C 64.892 10.859 64.597 11.601 64.008 12.207 Z " fill="rgb(255,255,255)"/><path d=" M 60.178 11.705 L 60.107 11.775 C 60.567 12.243 61.142 12.48 61.808 12.479 C 62.474 12.48 63.049 12.243 63.509 11.775 C 63.972 11.307 64.206 10.702 64.205 9.982 C 64.206 9.263 63.972 8.658 63.509 8.19 L 63.507 8.189 L 63.509 8.19 C 63.049 7.722 62.474 7.485 61.808 7.486 C 61.142 7.485 60.567 7.722 60.107 8.19 L 60.103 8.193 L 60.107 8.19 C 59.644 8.658 59.411 9.263 59.412 9.982 C 59.411 10.702 59.644 11.307 60.107 11.775 L 60.178 11.705 L 60.249 11.634 C 59.825 11.203 59.613 10.66 59.612 9.982 C 59.613 9.305 59.825 8.762 60.249 8.33 L 60.249 8.331 C 60.677 7.899 61.188 7.687 61.808 7.686 C 62.427 7.687 62.939 7.899 63.366 8.33 L 63.366 8.331 C 63.792 8.762 64.004 9.305 64.005 9.982 C 64.004 10.66 63.792 11.203 63.366 11.634 C 62.939 12.066 62.427 12.278 61.808 12.279 C 61.188 12.278 60.677 12.066 60.249 11.634 L 60.178 11.705 Z  M 64.008 12.207 L 63.936 12.137 C 63.363 12.725 62.662 13.015 61.808 13.016 C 60.954 13.015 60.252 12.725 59.68 12.137 C 59.108 11.548 58.826 10.837 58.825 9.982 C 58.826 9.128 59.108 8.417 59.68 7.828 C 60.252 7.24 60.954 6.949 61.808 6.948 C 62.657 6.949 63.356 7.241 63.932 7.832 C 64.507 8.424 64.791 9.133 64.792 9.982 C 64.791 10.837 64.507 11.548 63.936 12.137 L 64.08 12.277 C 64.686 11.654 64.993 10.882 64.992 9.982 C 64.993 9.088 64.685 8.318 64.076 7.692 C 63.466 7.065 62.703 6.747 61.808 6.748 C 60.908 6.747 60.142 7.063 59.537 7.688 C 58.929 8.311 58.624 9.083 58.625 9.982 C 58.624 10.882 58.929 11.654 59.537 12.277 L 59.539 12.28 L 59.537 12.277 C 60.142 12.902 60.908 13.217 61.808 13.216 C 62.708 13.217 63.473 12.902 64.08 12.277 L 64.008 12.207 Z " fill="rgb(255,255,255)"/><path d=" M 65.974 12.982 L 65.974 6.982 L 66.912 6.982 L 69.828 11.65 L 69.861 11.65 L 69.828 10.494 L 69.828 6.982 L 70.6 6.982 L 70.6 12.982 L 69.795 12.982 L 66.744 8.089 L 66.711 8.089 L 66.744 9.245 L 66.744 12.982 L 65.974 12.982 Z " fill="rgb(255,255,255)"/><path d=" M 65.974 12.982 L 66.074 12.982 L 66.074 7.082 L 66.857 7.082 L 69.773 11.75 L 69.964 11.75 L 69.928 10.492 L 69.928 7.082 L 70.5 7.082 L 70.5 12.882 L 69.85 12.882 L 66.8 7.989 L 66.711 7.989 L 66.608 7.989 L 66.644 9.247 L 66.644 12.882 L 65.974 12.882 L 65.974 12.982 L 66.074 12.982 L 65.974 12.982 L 65.974 13.082 L 66.844 13.082 L 66.844 9.244 L 66.811 8.086 L 66.711 8.089 L 66.711 8.189 L 66.744 8.189 L 66.744 8.089 L 66.659 8.142 L 69.74 13.082 L 70.7 13.082 L 70.7 6.882 L 69.828 6.882 L 69.728 6.882 L 69.728 10.495 L 69.761 11.653 L 69.861 11.65 L 69.861 11.55 L 69.828 11.55 L 69.828 11.65 L 69.913 11.597 L 66.968 6.882 L 65.974 6.882 L 65.874 6.882 L 65.874 13.082 L 65.974 13.082 L 65.974 12.982 Z " fill="rgb(255,255,255)"/><rect x="71.974" y="6.982" width="0.77" height="6" transform="matrix(1,0,0,1,0,0)" fill="rgb(255,255,255)"/><path d=" M 71.974 12.982 L 72.074 12.982 L 72.074 7.082 L 72.644 7.082 L 72.644 12.882 L 71.974 12.882 L 71.974 12.982 L 72.074 12.982 L 71.974 12.982 L 71.974 13.082 L 72.844 13.082 L 72.844 6.882 L 71.974 6.882 L 71.874 6.882 L 71.874 13.082 L 71.974 13.082 L 71.974 12.982 Z " fill="rgb(255,255,255)"/><path d=" M 74.889 12.245 L 76.44 12.245 C 76.735 12.245 76.976 12.142 77.16 11.935 C 77.345 11.729 77.437 11.502 77.437 11.256 C 77.437 11.01 77.342 10.786 77.151 10.582 C 76.962 10.378 76.713 10.275 76.405 10.275 L 74.889 10.275 L 74.889 12.245 Z  M 74.889 9.555 L 76.288 9.555 C 76.579 9.555 76.813 9.459 76.988 9.266 C 77.164 9.073 77.252 8.862 77.252 8.633 C 77.252 8.404 77.167 8.194 76.996 8.005 C 76.826 7.815 76.602 7.72 76.322 7.72 L 74.889 7.72 L 74.889 9.555 Z  M 74.118 12.982 L 74.118 6.982 L 76.288 6.982 C 76.758 6.982 77.164 7.138 77.508 7.447 C 77.852 7.758 78.024 8.147 78.024 8.616 C 78.024 8.901 77.949 9.153 77.801 9.371 C 77.653 9.589 77.456 9.753 77.21 9.865 L 77.21 9.898 C 77.506 9.999 77.749 10.172 77.94 10.418 C 78.129 10.664 78.225 10.949 78.225 11.273 C 78.225 11.765 78.044 12.172 77.684 12.496 C 77.323 12.82 76.898 12.982 76.405 12.982 L 74.118 12.982 Z " fill="rgb(255,255,255)"/><path d=" M 74.889 12.245 L 74.889 12.345 L 76.44 12.345 C 76.758 12.346 77.033 12.229 77.235 12.001 C 77.433 11.781 77.537 11.527 77.537 11.256 C 77.537 10.984 77.429 10.731 77.225 10.513 C 77.017 10.289 76.735 10.174 76.405 10.175 L 74.789 10.175 L 74.789 12.345 L 74.889 12.345 L 74.889 12.245 L 74.989 12.245 L 74.989 10.375 L 76.405 10.375 C 76.691 10.377 76.907 10.467 77.078 10.65 C 77.255 10.84 77.336 11.037 77.337 11.256 C 77.336 11.477 77.257 11.676 77.086 11.868 C 76.918 12.054 76.712 12.144 76.44 12.145 L 74.889 12.145 L 74.889 12.245 L 74.989 12.245 L 74.889 12.245 Z  M 74.889 9.555 L 74.889 9.655 L 76.288 9.655 C 76.601 9.656 76.868 9.548 77.062 9.333 C 77.252 9.127 77.353 8.889 77.352 8.633 C 77.353 8.379 77.255 8.142 77.07 7.938 L 77.071 7.938 C 76.883 7.727 76.624 7.618 76.322 7.62 L 74.789 7.62 L 74.789 9.655 L 74.889 9.655 L 74.889 9.555 L 74.989 9.555 L 74.989 7.82 L 76.322 7.82 C 76.579 7.821 76.769 7.903 76.922 8.072 C 77.079 8.247 77.151 8.43 77.152 8.633 C 77.151 8.836 77.077 9.02 76.915 9.198 L 76.914 9.198 C 76.757 9.37 76.558 9.453 76.288 9.455 L 74.889 9.455 L 74.889 9.555 L 74.989 9.555 L 74.889 9.555 Z  M 74.118 12.982 L 74.218 12.982 L 74.218 7.082 L 76.288 7.082 C 76.736 7.083 77.114 7.228 77.441 7.522 L 77.441 7.521 C 77.765 7.816 77.922 8.172 77.924 8.616 C 77.923 8.884 77.855 9.113 77.718 9.314 L 77.718 9.315 C 77.581 9.518 77.399 9.669 77.169 9.774 L 77.11 9.801 L 77.11 9.97 L 77.178 9.993 C 77.456 10.088 77.681 10.248 77.861 10.479 L 77.86 10.479 C 78.036 10.709 78.124 10.969 78.125 11.273 C 78.123 11.74 77.958 12.114 77.617 12.422 C 77.273 12.73 76.876 12.882 76.405 12.882 L 74.118 12.882 L 74.118 12.982 L 74.218 12.982 L 74.118 12.982 L 74.118 13.082 L 76.405 13.082 C 76.919 13.083 77.374 12.91 77.751 12.57 C 78.131 12.231 78.326 11.789 78.325 11.273 C 78.325 10.93 78.222 10.62 78.019 10.357 C 77.817 10.096 77.556 9.91 77.242 9.804 L 77.21 9.898 L 77.31 9.898 L 77.31 9.865 L 77.21 9.865 L 77.251 9.956 C 77.513 9.838 77.726 9.66 77.884 9.427 L 77.883 9.427 C 78.044 9.192 78.124 8.919 78.124 8.616 C 78.125 8.123 77.938 7.7 77.575 7.373 L 77.573 7.371 L 77.575 7.373 C 77.215 7.048 76.78 6.882 76.288 6.882 L 74.018 6.882 L 74.018 13.082 L 74.118 13.082 L 74.118 12.982 Z " fill="rgb(255,255,255)"/><path d=" M 79.264 12.982 L 79.264 6.982 L 80.034 6.982 L 80.034 12.245 L 82.632 12.245 L 82.632 12.982 L 79.264 12.982 Z " fill="rgb(255,255,255)"/><path d=" M 79.264 12.982 L 79.364 12.982 L 79.364 7.082 L 79.934 7.082 L 79.934 12.345 L 82.532 12.345 L 82.532 12.882 L 79.264 12.882 L 79.264 12.982 L 79.364 12.982 L 79.264 12.982 L 79.264 13.082 L 82.732 13.082 L 82.732 12.245 L 82.732 12.145 L 80.134 12.145 L 80.134 6.882 L 79.264 6.882 L 79.164 6.882 L 79.164 13.082 L 79.264 13.082 L 79.264 12.982 Z " fill="rgb(255,255,255)"/><path d=" M 87.108 7.72 L 84.375 7.72 L 84.375 9.622 L 86.839 9.622 L 86.839 10.343 L 84.375 10.343 L 84.375 12.245 L 87.108 12.245 L 87.108 12.982 L 83.605 12.982 L 83.605 6.982 L 87.108 6.982 L 87.108 7.72 Z " fill="rgb(255,255,255)"/><path d=" M 87.108 7.72 L 87.108 7.62 L 84.275 7.62 L 84.275 9.722 L 86.739 9.722 L 86.739 10.243 L 84.275 10.243 L 84.275 12.345 L 87.008 12.345 L 87.008 12.882 L 83.705 12.882 L 83.705 7.082 L 87.008 7.082 L 87.008 7.72 L 87.108 7.72 L 87.108 7.62 L 87.108 7.72 L 87.208 7.72 L 87.208 6.982 L 87.208 6.882 L 83.505 6.882 L 83.505 13.082 L 87.208 13.082 L 87.208 12.245 L 87.208 12.145 L 84.475 12.145 L 84.475 10.443 L 86.939 10.443 L 86.939 9.622 L 86.939 9.522 L 84.475 9.522 L 84.475 7.82 L 87.208 7.82 L 87.208 7.72 L 87.108 7.72 Z " fill="rgb(255,255,255)"/><path d=" M 93.829 7.72 L 91.096 7.72 L 91.096 9.622 L 93.56 9.622 L 93.56 10.343 L 91.096 10.343 L 91.096 12.245 L 93.829 12.245 L 93.829 12.982 L 90.326 12.982 L 90.326 6.982 L 93.829 6.982 L 93.829 7.72 Z " fill="rgb(255,255,255)"/><path d=" M 93.829 7.72 L 93.829 7.62 L 90.996 7.62 L 90.996 9.722 L 93.46 9.722 L 93.46 10.243 L 90.996 10.243 L 90.996 12.345 L 93.729 12.345 L 93.729 12.882 L 90.426 12.882 L 90.426 7.082 L 93.729 7.082 L 93.729 7.72 L 93.829 7.72 L 93.829 7.62 L 93.829 7.72 L 93.929 7.72 L 93.929 6.982 L 93.929 6.882 L 90.226 6.882 L 90.226 13.082 L 93.929 13.082 L 93.929 12.245 L 93.929 12.145 L 91.196 12.145 L 91.196 10.443 L 93.66 10.443 L 93.66 9.622 L 93.66 9.522 L 91.196 9.522 L 91.196 7.82 L 93.929 7.82 L 93.929 7.72 L 93.829 7.72 Z " fill="rgb(255,255,255)"/><path d=" M 95.035 12.982 L 95.035 6.982 L 95.973 6.982 L 98.889 11.65 L 98.922 11.65 L 98.889 10.494 L 98.889 6.982 L 99.661 6.982 L 99.661 12.982 L 98.856 12.982 L 95.805 8.089 L 95.772 8.089 L 95.805 9.245 L 95.805 12.982 L 95.035 12.982 Z " fill="rgb(255,255,255)"/><path d=" M 95.035 12.982 L 95.135 12.982 L 95.135 7.082 L 95.918 7.082 L 98.834 11.75 L 99.025 11.75 L 98.989 10.492 L 98.989 7.082 L 99.561 7.082 L 99.561 12.882 L 98.911 12.882 L 95.861 7.989 L 95.772 7.989 L 95.669 7.989 L 95.705 9.247 L 95.705 12.882 L 95.035 12.882 L 95.035 12.982 L 95.135 12.982 L 95.035 12.982 L 95.035 13.082 L 95.905 13.082 L 95.905 9.244 L 95.872 8.086 L 95.772 8.089 L 95.772 8.189 L 95.805 8.189 L 95.805 8.089 L 95.72 8.142 L 98.801 13.082 L 99.761 13.082 L 99.761 6.882 L 98.889 6.882 L 98.789 6.882 L 98.789 10.495 L 98.822 11.653 L 98.922 11.65 L 98.922 11.55 L 98.889 11.55 L 98.889 11.65 L 98.974 11.597 L 96.029 6.882 L 95.035 6.882 L 94.935 6.882 L 94.935 13.082 L 95.035 13.082 L 95.035 12.982 Z " fill="rgb(255,255,255)"/></g></g></g></g></svg>