<?xml version="1.0" standalone="no"?><!-- Generator: Gravit.io --><svg xmlns="http://www.w3.org/2000/svg" xmlns:xlink="http://www.w3.org/1999/xlink" style="isolation:isolate" viewBox="0 0 236 95" width="236" height="95"><defs><clipPath id="_clipPath_9YOYIuVmZjcoBDDVaZ88vZ08p3JzUNi1"><rect width="236" height="95"/></clipPath></defs><g clip-path="url(#_clipPath_9YOYIuVmZjcoBDDVaZ88vZ08p3JzUNi1)"><g><path d=" M 30.89 66.644 L 29.661 67.427 C 29.333 67.043 28.928 66.732 28.472 66.515 C 28.025 66.308 27.537 66.203 27.044 66.208 C 25.997 66.19 24.994 66.632 24.299 67.417 C 23.541 68.242 23.136 69.33 23.169 70.45 C 23.103 71.532 23.458 72.597 24.16 73.423 C 24.849 74.171 25.83 74.58 26.846 74.543 C 27.351 74.543 27.849 74.427 28.303 74.206 C 28.845 73.957 29.344 73.622 29.78 73.215 L 30.84 74.206 C 30.242 74.761 29.547 75.202 28.789 75.504 C 28.079 75.811 27.312 75.966 26.539 75.96 C 25.091 75.996 23.692 75.436 22.669 74.411 C 21.646 73.386 21.089 71.986 21.127 70.539 C 21.094 69.01 21.702 67.537 22.802 66.475 C 23.899 65.402 25.382 64.816 26.916 64.85 C 27.686 64.836 28.45 64.988 29.156 65.296 C 29.827 65.61 30.42 66.07 30.89 66.644 L 30.89 66.644 Z " fill="rgb(113,79,131)"/><path d=" M 41.872 67.982 L 41.753 72.353 L 41.753 72.848 C 41.72 73.308 41.781 73.77 41.931 74.206 C 42.017 74.449 42.249 74.609 42.506 74.603 C 42.672 74.601 42.836 74.571 42.992 74.513 C 43.169 74.445 43.338 74.359 43.497 74.256 L 43.983 75.068 C 43.624 75.302 43.242 75.498 42.843 75.653 C 42.526 75.772 42.19 75.832 41.852 75.832 C 41.35 75.864 40.853 75.705 40.464 75.385 C 40.117 75.074 39.928 74.623 39.949 74.156 C 39.392 74.712 38.75 75.174 38.046 75.524 C 37.448 75.807 36.795 75.952 36.133 75.95 C 35.251 75.938 34.402 75.607 33.745 75.019 C 33.104 74.49 32.739 73.699 32.753 72.868 C 32.802 71.708 33.522 70.682 34.597 70.242 C 36.303 69.484 38.151 69.099 40.018 69.112 C 40.018 69.032 40.018 68.963 40.018 68.874 L 40.018 68.527 C 40.077 67.913 39.916 67.298 39.562 66.792 C 39.148 66.421 38.601 66.235 38.046 66.277 C 37.489 66.289 36.939 66.399 36.421 66.604 C 35.757 66.862 35.126 67.195 34.537 67.595 L 33.635 66.535 C 34.438 66.023 35.296 65.604 36.193 65.286 C 36.933 65.017 37.714 64.876 38.502 64.87 C 39.411 64.794 40.317 65.043 41.059 65.573 C 41.648 66.163 41.946 66.983 41.872 67.813 L 41.872 67.982 Z  M 39.979 70.073 C 38.615 70.141 37.273 70.446 36.014 70.975 C 35.274 71.255 34.771 71.949 34.736 72.739 C 34.733 73.238 34.951 73.713 35.33 74.038 C 35.734 74.394 36.258 74.585 36.797 74.573 C 37.184 74.561 37.563 74.463 37.907 74.285 C 38.595 73.943 39.258 73.552 39.89 73.116 L 39.979 70.073 Z " fill="rgb(113,79,131)"/><path d=" M 53.468 65.811 L 52.576 66.901 C 52.193 66.68 51.783 66.507 51.357 66.386 C 50.933 66.274 50.497 66.217 50.059 66.218 C 49.469 66.194 48.886 66.345 48.384 66.654 C 47.991 66.899 47.754 67.331 47.759 67.793 C 47.759 68.517 48.75 69.221 50.733 69.914 L 51.149 70.073 C 51.801 70.28 52.388 70.652 52.854 71.153 C 53.237 71.584 53.446 72.143 53.438 72.719 C 53.47 73.643 53.048 74.524 52.308 75.078 C 51.427 75.708 50.357 76.019 49.276 75.96 C 48.607 75.965 47.941 75.885 47.293 75.722 C 46.641 75.551 46.009 75.309 45.41 74.999 L 46.282 73.859 C 46.739 74.101 47.216 74.3 47.71 74.454 C 48.135 74.577 48.575 74.64 49.018 74.642 C 49.64 74.687 50.261 74.534 50.792 74.206 C 51.208 73.962 51.467 73.519 51.476 73.037 C 51.476 72.392 50.713 71.758 49.176 71.134 L 49.117 71.134 C 48.142 70.802 47.233 70.302 46.431 69.657 C 46.008 69.243 45.774 68.673 45.787 68.081 C 45.764 67.187 46.197 66.343 46.936 65.841 C 47.845 65.242 48.922 64.95 50.009 65.008 C 50.637 65.001 51.263 65.074 51.872 65.226 C 52.43 65.341 52.968 65.538 53.468 65.811 L 53.468 65.811 Z " fill="rgb(113,79,131)"/><path d=" M 65.193 67.982 L 65.064 72.353 L 65.064 72.848 C 65.028 73.309 65.092 73.772 65.253 74.206 C 65.338 74.449 65.57 74.609 65.827 74.603 C 65.993 74.6 66.157 74.57 66.313 74.513 C 66.489 74.443 66.658 74.357 66.819 74.256 L 67.304 75.068 C 66.942 75.302 66.557 75.498 66.155 75.653 C 65.838 75.773 65.502 75.833 65.163 75.832 C 64.661 75.864 64.165 75.705 63.776 75.385 C 63.431 75.073 63.245 74.621 63.27 74.156 C 62.714 74.712 62.071 75.174 61.367 75.524 C 60.769 75.806 60.116 75.951 59.454 75.95 C 58.541 75.978 57.65 75.663 56.957 75.068 C 56.318 74.538 55.954 73.747 55.966 72.918 C 56.012 71.715 56.779 70.658 57.908 70.242 C 59.615 69.486 61.463 69.101 63.33 69.112 C 63.335 69.032 63.335 68.953 63.33 68.874 L 63.33 68.527 C 63.386 67.912 63.221 67.297 62.864 66.792 C 62.456 66.418 61.91 66.231 61.357 66.277 C 60.801 66.29 60.25 66.4 59.732 66.604 C 59.07 66.864 58.438 67.197 57.849 67.595 L 56.947 66.535 C 57.754 66.025 58.615 65.606 59.514 65.286 C 60.254 65.017 61.035 64.876 61.823 64.87 C 62.732 64.797 63.637 65.046 64.38 65.573 C 64.97 66.163 65.267 66.983 65.193 67.813 L 65.193 67.982 Z  M 63.29 70.073 C 61.926 70.14 60.584 70.446 59.326 70.975 C 58.589 71.258 58.091 71.951 58.057 72.739 C 58.049 73.24 58.267 73.717 58.652 74.038 C 59.054 74.397 59.579 74.588 60.119 74.573 C 60.502 74.559 60.878 74.461 61.219 74.285 C 61.892 73.946 62.538 73.555 63.151 73.116 L 63.29 70.073 Z " fill="rgb(113,79,131)"/><path d=" M 85.68 59.845 L 87.741 59.845 L 87.404 75.703 L 85.561 75.703 L 85.561 74.147 C 85.136 74.735 84.566 75.203 83.906 75.504 C 83.192 75.822 82.417 75.977 81.636 75.96 C 80.305 75.983 79.028 75.434 78.127 74.454 C 77.174 73.443 76.661 72.096 76.7 70.707 C 76.669 69.197 77.231 67.734 78.266 66.634 C 79.681 65.074 81.907 64.54 83.876 65.286 C 84.493 65.539 85.062 65.894 85.561 66.336 L 85.68 59.845 Z  M 85.531 68.031 C 85.233 67.52 84.806 67.096 84.292 66.802 C 83.798 66.508 83.232 66.354 82.657 66.356 C 81.612 66.342 80.614 66.783 79.921 67.565 C 78.511 69.269 78.418 71.706 79.693 73.512 C 80.326 74.195 81.232 74.559 82.161 74.503 C 82.792 74.513 83.414 74.355 83.965 74.047 C 84.566 73.692 85.078 73.204 85.462 72.62 L 85.531 68.031 Z " fill="rgb(113,79,131)"/><path d=" M 101.548 70.242 L 93.212 70.242 C 93.178 71.383 93.527 72.503 94.204 73.423 C 94.84 74.184 95.8 74.597 96.79 74.533 C 97.351 74.529 97.906 74.418 98.426 74.206 C 99.064 73.926 99.661 73.559 100.2 73.116 L 101.31 74.107 C 100.538 74.711 99.692 75.214 98.792 75.604 C 98.052 75.9 97.261 76.055 96.463 76.059 C 95.044 76.112 93.666 75.574 92.657 74.573 C 91.661 73.525 91.144 72.111 91.23 70.668 C 91.178 69.121 91.762 67.62 92.846 66.515 C 93.913 65.435 95.381 64.846 96.899 64.889 C 98.184 64.812 99.442 65.275 100.368 66.168 C 101.24 67.156 101.682 68.451 101.597 69.766 L 101.548 70.242 Z  M 99.566 69.013 C 99.567 68.239 99.293 67.491 98.792 66.901 C 98.319 66.391 97.645 66.115 96.949 66.148 C 96.195 66.131 95.46 66.384 94.878 66.862 C 94.217 67.439 93.721 68.181 93.44 69.013 L 99.566 69.013 Z " fill="rgb(113,79,131)"/><path d=" M 112.787 59.845 L 114.67 59.845 L 114.512 66.584 C 114.968 66.032 115.544 65.592 116.197 65.296 C 116.864 64.999 117.588 64.854 118.318 64.87 C 119.701 64.806 121.047 65.336 122.015 66.327 C 123.405 68.038 123.782 70.358 123.006 72.422 C 122.719 73.093 122.301 73.699 121.777 74.206 C 121.264 74.738 120.651 75.162 119.973 75.455 C 119.33 75.74 118.634 75.885 117.931 75.881 C 117.213 75.897 116.5 75.758 115.84 75.475 C 115.239 75.209 114.717 74.792 114.324 74.266 L 114.324 75.703 L 112.44 75.703 L 112.787 59.845 Z  M 114.413 72.729 C 114.797 73.281 115.297 73.741 115.88 74.077 C 116.414 74.383 117.018 74.544 117.634 74.543 C 118.669 74.548 119.643 74.054 120.251 73.215 C 120.953 72.266 121.303 71.103 121.242 69.924 C 121.277 68.946 120.948 67.989 120.32 67.238 C 119.725 66.572 118.863 66.208 117.971 66.247 C 117.353 66.25 116.746 66.41 116.207 66.713 C 115.55 67.089 114.961 67.571 114.462 68.14 L 114.413 72.729 Z " fill="rgb(113,79,131)"/><path d=" M 132.184 64.889 C 133.719 64.829 135.218 65.366 136.366 66.386 C 137.451 67.368 138.046 68.779 137.992 70.242 C 138.074 71.81 137.482 73.339 136.366 74.444 C 135.15 75.521 133.559 76.077 131.936 75.99 C 130.402 76.065 128.9 75.526 127.763 74.493 C 126.692 73.46 126.118 72.016 126.187 70.529 C 126.124 68.99 126.728 67.498 127.843 66.436 C 129.029 65.368 130.589 64.813 132.184 64.889 Z  M 132.184 66.208 C 131.108 66.164 130.068 66.596 129.339 67.387 C 128.582 68.265 128.192 69.401 128.249 70.559 C 128.205 71.648 128.581 72.712 129.3 73.532 C 129.973 74.294 130.949 74.718 131.966 74.692 C 133.057 74.742 134.113 74.298 134.84 73.483 C 135.598 72.579 135.982 71.419 135.91 70.242 C 135.966 69.152 135.593 68.085 134.87 67.268 C 134.179 66.542 133.205 66.154 132.204 66.208 L 132.184 66.208 Z " fill="rgb(113,79,131)"/><path d=" M 141.58 59.845 L 143.562 59.845 L 143.225 75.703 L 141.243 75.703 L 141.58 59.845 Z " fill="rgb(113,79,131)"/><path d=" M 154.454 65.811 L 153.582 66.901 C 152.824 66.451 151.957 66.214 151.075 66.218 C 150.485 66.189 149.9 66.341 149.4 66.654 C 149.002 66.895 148.761 67.328 148.765 67.793 C 148.765 68.517 149.757 69.221 151.689 69.914 L 152.115 70.073 C 152.766 70.283 153.352 70.655 153.82 71.153 C 154.197 71.587 154.401 72.145 154.395 72.719 C 154.426 73.641 154.009 74.52 153.275 75.078 C 152.392 75.705 151.324 76.016 150.242 75.96 C 149.591 75.962 148.941 75.882 148.309 75.722 C 147.657 75.553 147.025 75.31 146.426 74.999 L 147.289 73.859 C 147.747 74.103 148.229 74.302 148.726 74.454 C 149.148 74.577 149.585 74.641 150.024 74.642 C 150.644 74.671 151.258 74.504 151.778 74.166 C 152.199 73.926 152.463 73.482 152.472 72.997 C 152.472 72.353 151.699 71.718 150.163 71.094 L 150.103 71.094 C 149.129 70.762 148.22 70.262 147.417 69.617 C 146.998 69.202 146.768 68.632 146.783 68.041 C 146.758 67.149 147.187 66.306 147.923 65.801 C 148.832 65.204 149.909 64.912 150.995 64.969 C 151.623 64.961 152.25 65.035 152.859 65.187 C 153.419 65.314 153.957 65.525 154.454 65.811 L 154.454 65.811 Z " fill="rgb(113,79,131)"/><path d=" M 166.18 67.982 L 166.061 72.353 L 166.061 72.848 C 166.034 73.292 166.095 73.736 166.239 74.156 C 166.325 74.399 166.557 74.559 166.814 74.553 C 166.98 74.551 167.144 74.521 167.3 74.464 C 167.477 74.398 167.647 74.311 167.805 74.206 L 168.291 75.019 C 167.931 75.25 167.549 75.446 167.151 75.604 C 166.85 75.716 166.531 75.777 166.209 75.782 C 165.707 75.815 165.211 75.655 164.822 75.336 C 164.471 75.027 164.281 74.574 164.306 74.107 C 163.751 74.664 163.109 75.126 162.403 75.475 C 161.805 75.757 161.152 75.903 160.49 75.901 C 159.58 75.927 158.693 75.612 158.003 75.019 C 157.362 74.49 156.997 73.699 157.012 72.868 C 157.069 71.696 157.811 70.667 158.905 70.242 C 160.611 69.484 162.459 69.099 164.326 69.112 C 164.326 69.032 164.326 68.963 164.326 68.874 L 164.326 68.527 C 164.388 67.911 164.222 67.294 163.86 66.792 C 163.443 66.413 162.885 66.229 162.324 66.287 C 161.767 66.298 161.217 66.409 160.699 66.614 C 160.035 66.872 159.404 67.204 158.815 67.605 L 157.904 66.545 C 158.72 66.03 159.591 65.607 160.5 65.286 C 161.241 65.019 162.022 64.878 162.81 64.87 C 163.719 64.794 164.625 65.043 165.367 65.573 C 165.956 66.163 166.254 66.983 166.18 67.813 L 166.18 67.982 Z  M 164.286 70.073 C 162.923 70.142 161.581 70.447 160.322 70.975 C 159.586 71.258 159.087 71.951 159.053 72.739 C 159.051 73.238 159.268 73.713 159.648 74.038 C 160.052 74.394 160.576 74.585 161.115 74.573 C 161.499 74.562 161.875 74.463 162.215 74.285 C 162.904 73.946 163.567 73.555 164.197 73.116 L 164.286 70.073 Z " fill="rgb(113,79,131)"/></g><g><path d=" M 228.363 17.523 L 228.314 17.464 C 224.094 13.107 218.262 10.686 212.198 10.774 C 206.098 10.771 200.255 13.229 195.993 17.593 C 191.729 21.899 189.341 27.717 189.352 33.778 C 189.316 39.952 191.721 45.89 196.042 50.3 C 200.293 54.681 206.143 57.146 212.247 57.129 C 224.736 57.129 234.944 46.653 234.944 33.778 C 234.867 27.726 232.518 21.924 228.363 17.523 L 228.363 17.523 Z  M 212.198 48.595 C 208.392 48.601 204.755 47.025 202.158 44.244 C 199.493 41.414 198.024 37.665 198.054 33.778 C 198.086 30.008 199.549 26.39 202.148 23.658 C 204.757 20.889 208.393 19.319 212.198 19.317 C 215.994 19.226 219.631 20.84 222.109 23.718 L 222.228 23.847 C 224.891 26.47 226.436 30.021 226.539 33.758 C 226.541 37.664 225.011 41.415 222.278 44.204 C 219.651 46.972 216.014 48.557 212.198 48.595 Z " fill="rgb(113,79,131)"/><g><path d=" M 24.428 10.506 C 18.332 10.509 12.484 12.925 8.163 17.226 C 3.759 21.544 1.204 27.404 1.037 33.57 L 1.037 70.737 C 1.02 73.155 2.932 75.146 5.349 75.227 C 6.539 75.256 7.688 74.789 8.521 73.937 C 9.353 73.086 9.795 71.927 9.739 70.737 L 9.739 52.57 C 13.847 56.031 19.057 57.908 24.428 57.862 C 37.465 57.721 47.929 47.053 47.819 34.016 C 47.698 27.765 45.166 21.802 40.752 17.375 C 36.718 12.885 31.059 10.506 24.428 10.506 Z  M 24.428 49.041 C 16.499 49.041 9.739 42.163 9.739 34.016 C 9.824 25.926 16.339 19.376 24.428 19.248 C 28.343 19.223 32.087 20.854 34.736 23.738 C 37.387 26.497 38.843 30.19 38.789 34.016 C 38.779 42.302 32.337 49.041 24.428 49.041 Z " fill="rgb(139,154,166)"/><path d=" M 94.471 10.625 C 93.306 10.599 92.182 11.056 91.366 11.888 C 90.549 12.719 90.113 13.851 90.16 15.016 L 89.823 33.57 L 89.823 33.57 C 89.823 41.756 83.559 47.604 75.56 47.604 C 67.562 47.604 61.298 41.796 61.298 33.57 L 61.298 15.382 C 61.196 12.897 59.137 10.943 56.65 10.972 C 54.281 11.09 52.403 13.012 52.338 15.382 L 52.338 33.57 C 52.291 39.81 54.743 45.809 59.147 50.231 C 68.235 59.241 82.886 59.241 91.974 50.231 C 96.377 45.809 98.829 39.81 98.783 33.57 L 98.783 15.035 C 98.752 12.65 96.855 10.709 94.471 10.625 L 94.471 10.625 Z " fill="rgb(139,154,166)"/><path d=" M 145.742 57.03 C 144.577 57.058 143.451 56.602 142.634 55.77 C 141.817 54.938 141.381 53.804 141.431 52.639 L 141.094 34.085 L 141.094 34.085 C 141.094 25.898 134.82 20.051 126.822 20.051 C 118.823 20.051 112.559 25.898 112.559 34.085 L 112.559 52.272 C 112.458 54.758 110.398 56.712 107.911 56.683 C 105.542 56.565 103.664 54.643 103.599 52.272 L 103.599 34.045 C 103.553 27.808 106.005 21.812 110.409 17.394 C 119.493 8.367 134.161 8.367 143.245 17.394 C 147.642 21.815 150.09 27.81 150.044 34.045 L 150.044 52.619 C 150.014 55.001 148.122 56.94 145.742 57.03 L 145.742 57.03 Z " fill="rgb(139,154,166)"/><path d=" M 183.623 47.862 L 178.024 47.862 C 171.839 47.862 164.286 43.689 164.029 32.093 L 164.029 19.753 L 183.128 19.753 C 184.28 19.778 185.393 19.33 186.207 18.514 C 187.022 17.698 187.467 16.584 187.439 15.432 C 187.439 12.627 185.665 10.674 183.128 10.674 L 164.029 10.674 L 164.029 4.411 C 164.077 3.258 163.653 2.135 162.854 1.302 C 162.055 0.469 160.951 -0.001 159.797 0 C 158.582 -0.087 157.387 0.342 156.504 1.181 C 155.621 2.021 155.133 3.193 155.158 4.411 L 155.158 34.561 L 155.158 34.561 C 155.446 41.915 157.854 46.018 161.729 50.082 C 165.967 54.537 171.855 57.048 178.004 57.02 L 183.604 57.02 C 185.974 56.906 187.855 54.982 187.915 52.609 C 187.996 50.13 186.099 48.031 183.623 47.862 L 183.623 47.862 Z " fill="rgb(139,154,166)"/></g></g><line x1="21.126" y1="94" x2="168.291" y2="94" vector-effect="non-scaling-stroke" stroke-width="2" stroke="rgb(113,79,131)" stroke-linejoin="miter" stroke-linecap="square" stroke-miterlimit="3"/></g></svg>