<?xml version="1.0" standalone="no"?><!-- Generator: Gravit.io --><svg xmlns="http://www.w3.org/2000/svg" xmlns:xlink="http://www.w3.org/1999/xlink" style="isolation:isolate" viewBox="0 0 60 60" width="60" height="60"><defs><clipPath id="_clipPath_AP9omnUw0WoRJ7leUq0vrOrJKUiByGYe"><rect width="60" height="60"/></clipPath></defs><g clip-path="url(#_clipPath_AP9omnUw0WoRJ7leUq0vrOrJKUiByGYe)"><path d=" M 0 30 C 0 13.443 13.443 0 30 0 C 46.557 0 60 13.443 60 30 C 60 46.557 46.557 60 30 60 C 13.443 60 0 46.557 0 30 Z  M 15.375 21.281 C 15.047 21.281 14.777 21.176 14.566 20.965 C 14.355 20.754 14.25 20.484 14.25 20.156 L 14.25 17.344 C 14.25 17.016 14.355 16.746 14.566 16.535 C 14.777 16.324 15.047 16.219 15.375 16.219 L 44.625 16.219 C 44.953 16.219 45.223 16.324 45.434 16.535 C 45.645 16.746 45.75 17.016 45.75 17.344 L 45.75 20.156 C 45.75 20.484 45.645 20.754 45.434 20.965 C 45.223 21.176 44.953 21.281 44.625 21.281 L 15.375 21.281 L 15.375 21.281 Z  M 15.375 32.531 C 15.047 32.531 14.777 32.426 14.566 32.215 C 14.355 32.004 14.25 31.734 14.25 31.406 L 14.25 28.594 C 14.25 28.266 14.355 27.996 14.566 27.785 C 14.777 27.574 15.047 27.469 15.375 27.469 L 44.625 27.469 C 44.953 27.469 45.223 27.574 45.434 27.785 C 45.645 27.996 45.75 28.266 45.75 28.594 L 45.75 31.406 C 45.75 31.734 45.645 32.004 45.434 32.215 C 45.223 32.426 44.953 32.531 44.625 32.531 L 15.375 32.531 L 15.375 32.531 Z  M 15.375 43.781 C 15.047 43.781 14.777 43.676 14.566 43.465 C 14.355 43.254 14.25 42.984 14.25 42.656 L 14.25 39.844 C 14.25 39.516 14.355 39.246 14.566 39.035 C 14.777 38.824 15.047 38.719 15.375 38.719 L 44.625 38.719 C 44.953 38.719 45.223 38.824 45.434 39.035 C 45.645 39.246 45.75 39.516 45.75 39.844 L 45.75 42.656 C 45.75 42.984 45.645 43.254 45.434 43.465 C 45.223 43.676 44.953 43.781 44.625 43.781 L 15.375 43.781 L 15.375 43.781 Z " fill-rule="evenodd" fill="rgb(120,89,148)"/></g></svg>