<?xml version="1.0" standalone="no"?><!-- Generator: Gravit.io --><svg xmlns="http://www.w3.org/2000/svg" xmlns:xlink="http://www.w3.org/1999/xlink" style="isolation:isolate" viewBox="0 0 60 60" width="60" height="60"><defs><clipPath id="_clipPath_Arv24XwoN3PwfCJN4hHKzmJ7hY57OwnP"><rect width="60" height="60"/></clipPath></defs><g clip-path="url(#_clipPath_Arv24XwoN3PwfCJN4hHKzmJ7hY57OwnP)"><clipPath id="_clipPath_882lTgvby2oyOAz8xN0CI3P7jBwMAhCI"><rect x="0" y="0" width="60" height="60" transform="matrix(1,0,0,1,0,0)" fill="rgb(255,255,255)"/></clipPath><g clip-path="url(#_clipPath_882lTgvby2oyOAz8xN0CI3P7jBwMAhCI)"><g><circle vector-effect="non-scaling-stroke" cx="30" cy="30" r="30" fill="rgb(120,89,148)"/><path d=" M 33.926 30 L 39.785 35.859 C 40.137 36.211 40.313 36.641 40.313 37.148 C 40.313 37.656 40.137 38.105 39.785 38.496 L 38.496 39.785 C 38.105 40.137 37.656 40.313 37.148 40.313 C 36.641 40.313 36.211 40.137 35.859 39.785 L 30 33.926 L 24.141 39.785 C 23.789 40.137 23.359 40.313 22.852 40.313 C 22.344 40.313 21.895 40.137 21.504 39.785 L 20.215 38.496 C 19.863 38.105 19.688 37.656 19.688 37.148 C 19.688 36.641 19.863 36.211 20.215 35.859 L 26.074 30 L 20.215 24.141 C 19.863 23.789 19.688 23.359 19.688 22.852 C 19.688 22.344 19.863 21.895 20.215 21.504 L 21.504 20.215 C 21.895 19.863 22.344 19.688 22.852 19.688 C 23.359 19.688 23.789 19.863 24.141 20.215 L 30 26.074 L 35.859 20.215 C 36.211 19.863 36.641 19.688 37.148 19.688 C 37.656 19.688 38.105 19.863 38.496 20.215 L 39.785 21.504 C 40.137 21.895 40.313 22.344 40.313 22.852 C 40.313 23.359 40.137 23.789 39.785 24.141 L 33.926 30 L 33.926 30 Z " fill="rgb(255,255,255)"/></g></g></g></svg>