<?xml version="1.0" standalone="no"?><!-- Generator: Gravit.io --><svg xmlns="http://www.w3.org/2000/svg" xmlns:xlink="http://www.w3.org/1999/xlink" style="isolation:isolate" viewBox="0 0 198 199" width="198" height="199"><defs><clipPath id="_clipPath_tkKefykypaAtDOaezBenuVBiL3H17RzW"><rect width="198" height="199"/></clipPath></defs><g clip-path="url(#_clipPath_tkKefykypaAtDOaezBenuVBiL3H17RzW)"><linearGradient id="_lgradient_1" x1="0.00009248363432613066" y1="0.5002584392999789" x2="0.9993307793322507" y2="0.5002584392999789" gradientTransform="matrix(174.973,0,0,175.106,11.571,11.894)" gradientUnits="userSpaceOnUse"><stop offset="0%" stop-opacity="1" style="stop-color:rgb(24,199,164)"/><stop offset="100%" stop-opacity="1" style="stop-color:rgb(21,171,141)"/></linearGradient><path d=" M 71.751 186.973 L 70.221 186.973 C 66.966 186.546 64.112 184.584 62.546 181.698 L 48.074 155.621 L 41.92 161.775 C 41.203 162.45 40.266 162.84 39.282 162.874 C 38.29 162.883 37.337 162.486 36.644 161.775 C 35.975 161.056 35.587 160.12 35.554 159.138 C 35.544 158.147 35.938 157.195 36.644 156.5 L 42.799 150.346 L 16.941 135.891 C 14.055 134.325 12.094 131.472 11.666 128.216 C 11.22 124.902 12.356 121.572 14.735 119.222 L 17.583 116.153 C 19.568 114.183 22.26 113.091 25.056 113.12 C 26.092 113.158 27.12 113.306 28.125 113.559 L 53.78 121.472 L 88.421 86.744 L 88.21 86.744 L 93.687 81.257 L 93.687 81.257 L 116.274 58.679 L 31.633 32.839 C 31.413 32.839 30.974 32.62 30.754 32.62 C 29.986 32.534 29.233 32.87 28.784 33.499 L 24.388 37.666 C 23.698 38.263 23.366 39.174 23.509 40.075 C 23.586 41.03 24.175 41.868 25.048 42.264 L 84.693 75.595 C 85.762 76.182 86.492 77.237 86.663 78.444 C 86.879 79.654 86.469 80.891 85.572 81.732 C 84.856 82.407 83.918 82.797 82.935 82.831 C 82.323 82.818 81.722 82.668 81.176 82.392 L 21.329 49.281 C 18.285 47.674 16.289 44.608 16.053 41.174 C 15.654 37.883 16.881 34.603 19.342 32.382 L 23.509 28.215 C 25.496 26.255 28.183 25.169 30.974 25.199 C 32.009 25.237 33.038 25.384 34.042 25.639 L 61.016 33.754 L 68.05 26.72 C 70.346 24.323 73.522 22.968 76.842 22.968 C 80.161 22.968 83.337 24.323 85.634 26.72 C 89.61 30.747 90.415 36.931 87.603 41.842 L 122.684 52.586 L 158.362 16.838 C 162.497 12.609 168.586 10.929 174.305 12.438 C 180.023 13.948 184.489 18.414 185.999 24.133 C 187.508 29.851 185.828 35.94 181.6 40.075 L 146.299 75.815 L 156.788 110.482 C 161.589 107.852 167.542 108.65 171.48 112.452 C 173.812 114.783 175.122 117.946 175.122 121.244 C 175.122 124.542 173.812 127.704 171.48 130.036 L 164.903 136.612 L 173.229 164.457 C 174.408 168.116 173.382 172.126 170.592 174.77 L 166.196 179.166 C 164.226 181.147 161.543 182.253 158.749 182.234 L 157.43 182.234 C 154.131 181.763 151.222 179.823 149.517 176.959 L 116.195 117.322 C 115.294 115.825 115.57 113.9 116.855 112.715 C 117.57 112.041 118.509 111.653 119.492 111.625 C 120.875 111.598 122.152 112.363 122.78 113.595 L 156.102 173.451 C 156.57 174.264 157.376 174.825 158.301 174.981 L 158.74 174.981 C 159.564 175.024 160.364 174.702 160.929 174.102 L 165.325 169.706 C 166.048 168.947 166.3 167.856 165.985 166.857 L 140.162 81.952 L 117.576 104.328 L 117.356 104.548 L 111.878 110.025 L 111.878 110.025 L 76.78 145.097 L 84.456 170.532 C 85.617 174.266 84.6 178.335 81.818 181.083 L 78.741 183.931 C 76.936 185.903 74.38 187.018 71.707 187 L 71.751 186.973 Z  M 69.114 177.768 C 69.587 178.576 70.39 179.135 71.312 179.298 L 71.742 179.298 C 72.512 179.383 73.268 179.047 73.721 178.419 L 76.78 175.544 C 77.606 174.845 77.875 173.686 77.44 172.695 L 68.463 142.907 L 176.342 35.029 C 179.85 31.517 179.85 25.827 176.342 22.315 C 172.825 18.811 167.136 18.811 163.62 22.315 L 55.969 129.966 L 25.716 120.76 C 25.496 120.76 25.056 120.54 24.837 120.54 C 24.013 120.496 23.212 120.818 22.647 121.42 L 19.79 124.488 C 19.186 125.141 18.869 126.009 18.911 126.897 C 19.07 127.82 19.631 128.625 20.441 129.095 L 48.285 144.657 L 59.029 133.913 C 59.746 133.239 60.683 132.848 61.667 132.814 C 62.659 132.806 63.612 133.203 64.304 133.913 C 65.039 134.594 65.456 135.55 65.456 136.551 C 65.456 137.552 65.039 138.508 64.304 139.188 L 53.56 149.924 L 69.114 177.768 Z  M 162.31 128.436 L 166.038 124.708 C 166.871 123.815 167.339 122.641 167.348 121.42 C 167.382 120.19 166.908 119 166.038 118.131 C 164.194 116.375 161.296 116.375 159.452 118.131 L 159.232 118.351 L 162.31 128.436 Z  M 79.664 39.416 L 80.323 38.756 C 81.166 37.868 81.637 36.692 81.642 35.468 C 81.668 34.233 81.181 33.043 80.297 32.18 C 78.453 30.434 75.565 30.434 73.721 32.18 L 69.553 36.347 L 79.664 39.416 Z " fill="url(#_lgradient_1)"/></g></svg>