<svg id="Layer_6" data-name="Layer 6" xmlns="http://www.w3.org/2000/svg" xmlns:xlink="http://www.w3.org/1999/xlink" viewBox="0 0 199.65 199.66"><defs><style>.cls-1{fill:url(#Degradado_sin_nombre_30);}</style><linearGradient id="Degradado_sin_nombre_30" x1="100.17" x2="100.17" y2="208.83" gradientUnits="userSpaceOnUse"><stop offset="0" stop-color="#18c7a4"/><stop offset="1" stop-color="#15ab8d"/></linearGradient></defs><title>pcb-ico-ahorro</title><path class="cls-1" d="M198.67,132.92a30.05,30.05,0,0,0-35.57-5.16l-19,8.89a42.63,42.63,0,0,1-16.7,3.94,22.48,22.48,0,0,0,4.59-13.54,9.09,9.09,0,0,0-9.08-9.07h-47a40.86,40.86,0,0,0-30.74,13.94L29,150.28A13.54,13.54,0,0,0,18.5,145.2H4.88a4.54,4.54,0,0,0,0,9.08H18.5A4.54,4.54,0,0,1,23,158.82V186a4.54,4.54,0,0,1-4.53,4.54H4.88a4.54,4.54,0,0,0,0,9.08H18.5a13.6,13.6,0,0,0,12.77-9.08H56.32a58.91,58.91,0,0,0,6.51-.36l63.91-7.1a59,59,0,0,0,28.88-11.44l42.57-31.92a4.54,4.54,0,0,0,.48-6.84Zm-48.49,31.5a50,50,0,0,1-24.44,9.68l-63.91,7.1a50.59,50.59,0,0,1-5.51.31H32.11v-21L51.9,137.9a31.79,31.79,0,0,1,23.91-10.85h47.05a13.63,13.63,0,0,1-13.61,13.62H82a4.54,4.54,0,0,0,0,9.07h44a52,52,0,0,0,21.9-4.87l19.33-9a21.09,21.09,0,0,1,20.77.23ZM95.64,108.9A27.23,27.23,0,1,0,68.41,81.68,27.25,27.25,0,0,0,95.64,108.9Zm0-45.37A18.15,18.15,0,1,1,77.49,81.68,18.17,18.17,0,0,1,95.64,63.53Zm59,18.15A22.69,22.69,0,1,0,131.94,59,22.71,22.71,0,0,0,154.63,81.68Zm0-36.3A13.61,13.61,0,1,1,141,59,13.62,13.62,0,0,1,154.63,45.38ZM109.25,36.3A18.15,18.15,0,1,0,91.1,18.15,18.17,18.17,0,0,0,109.25,36.3Zm0-27.22a9.08,9.08,0,1,1-9.08,9.07A9.08,9.08,0,0,1,109.25,9.08Z" transform="translate(-0.35)"/></svg>