<svg id="Layer_1" data-name="Layer 1" xmlns="http://www.w3.org/2000/svg" xmlns:xlink="http://www.w3.org/1999/xlink" viewBox="0 0 199.78 195.24"><defs><style>.cls-1{fill:url(#Degradado_sin_nombre_30);}</style><linearGradient id="Degradado_sin_nombre_30" x1="100.11" y1="0.06" x2="100.11" y2="195.98" gradientUnits="userSpaceOnUse"><stop offset="0" stop-color="#18c7a4"/><stop offset="1" stop-color="#15ab8d"/></linearGradient></defs><title>pcb-ico-finanzas</title><path class="cls-1" d="M145.51,110.83a9.08,9.08,0,1,1,9.09-9.08A9.09,9.09,0,0,1,145.51,110.83ZM72.87,83.73h54.48a4.54,4.54,0,0,0,0-9.08H72.87a4.54,4.54,0,1,0,0,9.08ZM200,111v18.16a13.64,13.64,0,0,1-13.62,13.62h-5.6c-1.91,2-3.5,3.56-5.13,5.13-2.31,2.23-4.69,4.54-8.28,8.52A33.46,33.46,0,0,0,159.14,179v4.67a13.64,13.64,0,0,1-13.63,13.62h-9.08a13.64,13.64,0,0,1-13.62-13.62v-8.44a4.54,4.54,0,1,1,9.08,0v8.44a4.55,4.55,0,0,0,4.54,4.54h9.08a4.55,4.55,0,0,0,4.55-4.54V179a42.54,42.54,0,0,1,10.56-28.63c3.8-4.21,6.3-6.63,8.72-9,1.89-1.82,3.72-3.6,6.13-6.21a4.52,4.52,0,0,1,3.34-1.47h7.57a4.54,4.54,0,0,0,4.54-4.54V111a4.55,4.55,0,0,0-4.54-4.54A15.81,15.81,0,0,1,172,97.13a63.13,63.13,0,0,0-14.57-19.5A4.55,4.55,0,0,1,156.17,73l6-20.82c-7.79,1-13.83,4.6-18.74,11.08a4.55,4.55,0,0,1-5.53,1.37,113.11,113.11,0,0,0-17.8-6.17A31.94,31.94,0,1,1,126.81,51c4,1.18,8.1,2.62,11.62,4.07,7.63-8.53,17.5-12.52,29.91-12.16a4.53,4.53,0,0,1,4.24,5.78l-6.92,24.24a71.36,71.36,0,0,1,14.58,20.37,6.84,6.84,0,0,0,6.14,4.09A13.64,13.64,0,0,1,200,111ZM100.11,56.49a22.71,22.71,0,1,0-22.7-22.71A22.73,22.73,0,0,0,100.11,56.49Zm10.56,117.45a92.7,92.7,0,0,1-40.84-4.49,4.54,4.54,0,0,0-6,4.28v9.89a4.55,4.55,0,0,1-4.54,4.54H50.17a4.55,4.55,0,0,1-4.55-4.54V173.31a43.07,43.07,0,0,0-9.31-26.65c-1.46-1.84-2.82-3.48-4.08-5-3.56-4.28-6.13-7.38-7.61-11a27.69,27.69,0,0,1-1.7-10.57c0-24.17,16.33-45.95,42.6-56.83a4.54,4.54,0,1,0-3.47-8.39c-27.71,11.48-45.62,34-47.94,59.57a9.06,9.06,0,0,1-4.81-8,4.54,4.54,0,1,0-9.08,0A18.15,18.15,0,0,0,14,124a33.12,33.12,0,0,0,2.22,10c2,5,5.12,8.7,9,13.43,1.22,1.47,2.54,3.06,4,4.84a34,34,0,0,1,7.35,21v10.31a13.64,13.64,0,0,0,13.63,13.62h9.08a13.64,13.64,0,0,0,13.62-13.62v-3.69a102.29,102.29,0,0,0,38.84,3,4.54,4.54,0,0,0-1-9Zm-6-135.62V24.7a4.54,4.54,0,0,0-4.54-4.54H95.57a4.54,4.54,0,1,0,0,9.08v9.08a4.54,4.54,0,1,0,0,9.08h9.08a4.54,4.54,0,0,0,0-9.08Z" transform="translate(-0.22 -2)"/></svg>