<svg xmlns="http://www.w3.org/2000/svg" xmlns:xlink="http://www.w3.org/1999/xlink" viewBox="0 0 36.09 36.05"><defs><style>.cls-1,.cls-3,.cls-4{fill:none;}.cls-2{clip-path:url(#clip-path);}.cls-3,.cls-4{stroke:#686868;}.cls-4{stroke-dasharray:4.31 4.31;}</style><clipPath id="clip-path" transform="translate(-0.67)"><rect class="cls-1" width="37.43" height="36.25"/></clipPath></defs><title>pcb-prod-bicon2</title><g id="Layer_2" data-name="Layer 2"><g id="Capa_2" data-name="Capa 2"><g class="cls-2"><polyline class="cls-3" points="6.54 15.09 18.04 7.56 29.54 15.09"/><rect class="cls-3" x="2.46" y="15.16" width="31.17" height="2.81"/><polygon class="cls-3" points="18.04 4.45 26.23 9.8 34.41 15.16 18.04 15.16 1.68 15.16 9.86 9.8 18.04 4.45"/><line class="cls-3" x1="17.99" y1="4.35" x2="17.99"/><polyline class="cls-3" points="18.2 1.43 23.08 1.43 22.37 3.02 23.08 4.6 18.2 4.6"/><line class="cls-3" x1="3.68" y1="17.97" x2="3.68" y2="21.9"/><line class="cls-3" x1="6.48" y1="17.97" x2="6.48" y2="21.9"/><line class="cls-3" x1="12.11" y1="17.97" x2="12.11" y2="21.9"/><line class="cls-3" x1="14.91" y1="17.97" x2="14.91" y2="21.9"/><line class="cls-3" x1="20.53" y1="17.97" x2="20.53" y2="21.9"/><line class="cls-3" x1="23.33" y1="17.97" x2="23.33" y2="21.9"/><line class="cls-3" x1="28.96" y1="17.97" x2="28.96" y2="21.9"/><line class="cls-3" x1="31.76" y1="17.97" x2="31.76" y2="24.7"/><rect class="cls-3" x="2.07" y="23.97" width="26.9" height="11.58" rx="0.43" ry="0.43"/><line class="cls-4" x1="4.26" y1="26.93" x2="6.3" y2="26.93"/><line class="cls-4" x1="7.67" y1="26.93" x2="9.71" y2="26.93"/><line class="cls-4" x1="11.09" y1="26.93" x2="13.13" y2="26.93"/><line class="cls-4" x1="14.5" y1="26.93" x2="16.54" y2="26.93"/><line class="cls-4" x1="17.91" y1="26.93" x2="19.95" y2="26.93"/><line class="cls-4" x1="21.33" y1="26.93" x2="23.37" y2="26.93"/><line class="cls-4" x1="24.74" y1="26.93" x2="26.78" y2="26.93"/><line class="cls-4" x1="4.26" y1="29.76" x2="6.3" y2="29.76"/><line class="cls-4" x1="7.67" y1="29.76" x2="9.71" y2="29.76"/><line class="cls-4" x1="11.09" y1="29.76" x2="13.13" y2="29.76"/><line class="cls-4" x1="14.5" y1="29.76" x2="16.54" y2="29.76"/><line class="cls-4" x1="17.91" y1="29.76" x2="19.95" y2="29.76"/><line class="cls-4" x1="21.33" y1="29.76" x2="23.37" y2="29.76"/><line class="cls-4" x1="24.74" y1="29.76" x2="26.78" y2="29.76"/><line class="cls-4" x1="4.26" y1="32.6" x2="6.3" y2="32.6"/><line class="cls-4" x1="7.67" y1="32.6" x2="9.71" y2="32.6"/><line class="cls-3" x1="11.09" y1="32.6" x2="23.4" y2="32.6"/><line class="cls-4" x1="24.74" y1="32.6" x2="26.78" y2="32.6"/><path class="cls-3" d="M30.2,29.38h1.53a.7.7,0,0,0,.7-.7v-7" transform="translate(-0.67)"/></g></g></g></svg>