<svg id="Layer_5" data-name="Layer 5" xmlns="http://www.w3.org/2000/svg" viewBox="0 0 200 179.96"><defs><style>.cls-1{fill:#adb0ba;}</style></defs><title>pcb-ico-plus</title><path class="cls-1" d="M183.51,35.72H137.72l-3.55-14.23A16.47,16.47,0,0,0,118.17,9H81.83a16.47,16.47,0,0,0-16,12.49L62.28,35.72H16.49A16.51,16.51,0,0,0,0,52.21V172.47A16.51,16.51,0,0,0,16.49,189h167A16.51,16.51,0,0,0,200,172.47V52.21A16.51,16.51,0,0,0,183.51,35.72ZM71.91,23a10.22,10.22,0,0,1,9.92-7.75h36.34A10.22,10.22,0,0,1,128.09,23l3.18,12.71H124l-2.75-11a3.12,3.12,0,0,0-3-2.37H81.83a3.12,3.12,0,0,0-3,2.37l-2.75,11H68.73ZM117.5,35.72h-35l1.78-7.1h31.44ZM16.49,42h167a10.21,10.21,0,0,1,7.8,3.62l-20.33,61a13.55,13.55,0,0,1-12.87,9.28h-45V109a6.47,6.47,0,0,0-6.47-6.47H93.32A6.47,6.47,0,0,0,86.85,109v6.89h-45A13.55,13.55,0,0,1,29,106.61l-20.33-61A10.21,10.21,0,0,1,16.49,42Zm76.62,80.58V109a.21.21,0,0,1,.21-.21h13.36a.21.21,0,0,1,.21.21v13.57Zm13.78,6.26v6.89a.21.21,0,0,1-.21.21H93.32a.21.21,0,0,1-.21-.21v-6.89Zm86.85,43.64a10.24,10.24,0,0,1-10.23,10.23h-167A10.24,10.24,0,0,1,6.26,172.47V58.15l16.82,50.44a19.8,19.8,0,0,0,18.81,13.56h45v13.57a6.47,6.47,0,0,0,6.47,6.47h13.36a6.47,6.47,0,0,0,6.47-6.47V122.15h45a19.8,19.8,0,0,0,18.81-13.56l16.82-50.44V172.47Z" transform="translate(0 -9)"/></svg>