<svg xmlns="http://www.w3.org/2000/svg" xmlns:xlink="http://www.w3.org/1999/xlink" viewBox="0 0 45.56 38.06"><defs><style>.cls-1,.cls-3{fill:none;}.cls-2{clip-path:url(#clip-path);}.cls-3{stroke:#fff;stroke-miterlimit:10;}</style><clipPath id="clip-path" transform="translate(0 -0.41)"><rect class="cls-1" width="45.55" height="38.88"/></clipPath></defs><title>pcb-prod-ico8</title><g id="Layer_2" data-name="Layer 2"><g id="Capa_2" data-name="Capa 2"><g class="cls-2"><g class="cls-2"><line class="cls-3" x1="29.44" y1="12.48" x2="37.77" y2="4.49"/><line class="cls-3" x1="19.04" y1="8.55" x2="26.15" y2="12.61"/><line class="cls-3" x1="7.35" y1="17.33" x2="15.35" y2="9.01"/><polyline class="cls-3" points="21.09 34.82 21.09 15.14 13.17 15.14 13.17 34.82"/><polyline class="cls-3" points="32.25 34.82 32.25 19.75 24.34 19.75 24.34 34.82"/></g></g><g class="cls-2"><g class="cls-2"><polyline class="cls-3" points="43.41 34.82 43.41 10.62 35.5 10.62 35.5 34.82"/><polyline class="cls-3" points="9.93 34.82 9.93 25.54 2.01 25.54 2.01 34.82"/><line class="cls-3" y1="37.56" x2="45.56" y2="37.56"/><path class="cls-3" d="M8,19.41a2.29,2.29,0,1,1-2.29-2.29A2.29,2.29,0,0,1,8,19.41Z" transform="translate(0 -0.41)"/><path class="cls-3" d="M19.22,7.76a2.28,2.28,0,1,1-2.28-2.28A2.29,2.29,0,0,1,19.22,7.76Z" transform="translate(0 -0.41)"/><path class="cls-3" d="M30.41,14.16a2.29,2.29,0,1,1-2.28-2.29A2.28,2.28,0,0,1,30.41,14.16Z" transform="translate(0 -0.41)"/><path class="cls-3" d="M41.83,3.2A2.29,2.29,0,1,1,39.54.91,2.29,2.29,0,0,1,41.83,3.2Z" transform="translate(0 -0.41)"/></g></g></g></g></svg>