<svg xmlns="http://www.w3.org/2000/svg" xmlns:xlink="http://www.w3.org/1999/xlink" viewBox="0 0 31.86 35.02"><defs><style>.cls-1,.cls-3,.cls-4{fill:none;}.cls-2{clip-path:url(#clip-path);}.cls-3,.cls-4{stroke:#686868;}.cls-4{stroke-dasharray:1 1;}.cls-5{fill:#686868;}</style><clipPath id="clip-path" transform="translate(-0.35 -0.2)"><rect class="cls-1" width="32.41" height="35.22"/></clipPath></defs><title>pcb-prod-bico6</title><g id="Layer_2" data-name="Layer 2"><g id="Capa_2" data-name="Capa 2"><g class="cls-2"><path class="cls-3" d="M27.87,35.22V23.11A13.13,13.13,0,1,0,5.44,13.83c0,.2,0,.4,0,.6L3.62,17.6,1.21,21.78H4.26V27A3.55,3.55,0,0,0,7.8,30.51h5.61v4.71" transform="translate(-0.35 -0.2)"/><path class="cls-3" d="M18.41,4.3a9.53,9.53,0,1,1-9.52,9.53" transform="translate(-0.35 -0.2)"/><path class="cls-3" d="M8.89,13.83c0-.23,0-.47,0-.7" transform="translate(-0.35 -0.2)"/><path class="cls-4" d="M9.14,11.64A9.55,9.55,0,0,1,17,4.41" transform="translate(-0.35 -0.2)"/><path class="cls-3" d="M17.71,4.33l.7,0" transform="translate(-0.35 -0.2)"/><path class="cls-5" d="M21,18.31c-.13-.38-.27-.76-.4-1.13s-.28-.75-.41-1.14H16.09c-.13.39-.26.78-.4,1.15s-.27.75-.4,1.12H13.47c.36-1,.7-2,1-2.85s.64-1.7.95-2.48.62-1.52.93-2.22.62-1.4.94-2.09H19c.33.69.64,1.38,1,2.09s.61,1.44.93,2.22.63,1.61,1,2.48.67,1.82,1,2.85Zm-2.85-7.78c-.21.5-.45,1.09-.73,1.8s-.55,1.47-.85,2.29h3.17c-.3-.82-.58-1.59-.86-2.31s-.52-1.3-.73-1.78" transform="translate(-0.35 -0.2)"/></g></g></g></svg>