<svg xmlns="http://www.w3.org/2000/svg" xmlns:xlink="http://www.w3.org/1999/xlink" viewBox="0 0 39.48 40.01"><defs><style>.cls-1,.cls-3{fill:none;}.cls-2{clip-path:url(#clip-path);}.cls-3{stroke:#fff;}</style><clipPath id="clip-path" transform="translate(-0.4 -0.4)"><rect class="cls-1" width="40.27" height="40.8"/></clipPath></defs><title>pcb-prod-ico4</title><g id="Layer_2" data-name="Layer 2"><g id="Capa_2" data-name="Capa 2"><g class="cls-2"><g class="cls-2"><path class="cls-3" d="M39.37,19.6V5.65a1.76,1.76,0,0,0-1.76-1.77h-.73a1.76,1.76,0,0,0-1.76,1.77v14Z" transform="translate(-0.4 -0.4)"/><polyline class="cls-3" points="35.23 19.65 35.23 32.73 38.47 32.73 38.47 19.65"/><path class="cls-3" d="M39.37,7.17H34a1.76,1.76,0,0,0-1.76,1.77v9.17" transform="translate(-0.4 -0.4)"/><line class="cls-3" x1="34.72" y1="19.27" x2="39.05" y2="19.27"/><line class="cls-3" x1="34.72" y1="32.7" x2="39.05" y2="32.7"/><path class="cls-3" d="M37.29,39.82c0-1.09-.56-2.88-1.29-3.06V34.57" transform="translate(-0.4 -0.4)"/><path class="cls-3" d="M37.29,39.82c0-1.09.56-2.88,1.29-3.06V34.57" transform="translate(-0.4 -0.4)"/><polyline class="cls-3" points="18.1 0.5 0.5 0.5 0.5 8.63 0.5 18.48 0.5 39.51 28.15 39.51 28.15 18.48 28.15 10.55"/><polygon class="cls-3" points="20.9 7.88 27.02 7.88 20.9 1.77 20.9 7.88"/><line class="cls-3" x1="4.49" y1="9.28" x2="13.05" y2="9.28"/><line class="cls-3" x1="4.33" y1="14.59" x2="22.5" y2="14.59"/><line class="cls-3" x1="4.33" y1="19.11" x2="22.5" y2="19.11"/><line class="cls-3" x1="4.33" y1="23.62" x2="22.5" y2="23.62"/><line class="cls-3" x1="4.33" y1="28.13" x2="22.38" y2="28.13"/><line class="cls-3" x1="4.33" y1="32.69" x2="10.17" y2="32.69"/></g></g></g></g></svg>