<svg xmlns="http://www.w3.org/2000/svg" viewBox="0 0 36.26 35.59"><defs><style>.cls-1{fill:none;stroke:#fff;}</style></defs><title>pcb-prod-ico6</title><g id="Layer_2" data-name="Layer 2"><g id="Capa_2" data-name="Capa 2"><polyline class="cls-1" points="0.5 0 0.5 35.09 35.59 35.09"/><line class="cls-1" x1="4.2" y1="34.63" x2="4.2" y2="32.5"/><line class="cls-1" x1="9.05" y1="34.63" x2="9.05" y2="32.5"/><line class="cls-1" x1="13.9" y1="34.63" x2="13.9" y2="32.5"/><line class="cls-1" x1="18.75" y1="34.63" x2="18.75" y2="32.5"/><line class="cls-1" x1="23.6" y1="34.63" x2="23.6" y2="32.5"/><line class="cls-1" x1="28.45" y1="34.63" x2="28.45" y2="32.5"/><line class="cls-1" x1="33.3" y1="34.63" x2="33.3" y2="32.5"/><line class="cls-1" x1="0.43" y1="1.9" x2="2.55" y2="1.9"/><line class="cls-1" x1="0.43" y1="6.75" x2="2.55" y2="6.75"/><line class="cls-1" x1="0.43" y1="11.6" x2="2.55" y2="11.6"/><line class="cls-1" x1="0.43" y1="16.45" x2="2.55" y2="16.45"/><line class="cls-1" x1="0.43" y1="21.3" x2="2.55" y2="21.3"/><line class="cls-1" x1="0.43" y1="26.15" x2="2.55" y2="26.15"/><line class="cls-1" x1="0.43" y1="31" x2="2.55" y2="31"/><polyline class="cls-1" points="15.41 18.87 17.31 16.97 21.83 21.49 35.76 7.56"/><line class="cls-1" x1="3.92" y1="30.35" x2="12.38" y2="21.9"/><polyline class="cls-1" points="35.76 13.35 35.76 7.56 29.97 7.56"/><polyline class="cls-1" points="35.76 22.03 35.76 16.24 29.97 16.24"/><polyline class="cls-1" points="4.65 21.49 9.8 16.33 22.73 29.27 35.76 16.24"/></g></g></svg>