<svg xmlns="http://www.w3.org/2000/svg" xmlns:xlink="http://www.w3.org/1999/xlink" viewBox="0 0 34 34.5"><defs><style>.cls-1,.cls-3,.cls-4{fill:none;}.cls-2{clip-path:url(#clip-path);}.cls-3,.cls-4{stroke:#686868;}.cls-4{stroke-dasharray:4.31 4.31;}</style><clipPath id="clip-path" transform="translate(-0.2 -0.2)"><rect class="cls-1" width="34.4" height="34.9"/></clipPath></defs><title>pcb-prod-bicon3</title><g id="Layer_2" data-name="Layer 2"><g id="Capa_2" data-name="Capa 2"><g class="cls-2"><path class="cls-3" d="M20,3.06,17.13,1.42,15.69,3a10,10,0,0,0-1.08-.27l-.44-2H10.9l-.43,2A10.59,10.59,0,0,0,9.33,3L8,1.55,5.16,3.19,5.75,5A10.21,10.21,0,0,0,4.81,6L3.06,5.38,1.42,8.21l1.3,1.17a10.32,10.32,0,0,0-.42,1.44l-1.6.34v3.28l1.53.32a10.53,10.53,0,0,0,.4,1.61l-1.08,1,1.64,2.83,1.35-.43A9.92,9.92,0,0,0,5.8,21l-.42,1.28,2.83,1.64m1.51-6a6,6,0,1,1,8.43-7.71" transform="translate(-0.2 -0.2)"/><path class="cls-3" d="M33.7,22.63A11.58,11.58,0,1,1,22.13,11.05,11.57,11.57,0,0,1,33.7,22.63Z" transform="translate(-0.2 -0.2)"/><rect class="cls-3" x="19.6" y="5.42" width="4.66" height="3.38" rx="0.5" ry="0.5"/><path class="cls-3" d="M13.19,13.15l-.83-1.22a.31.31,0,0,1,.09-.44l1.88-1.27a.31.31,0,0,1,.43.08l.83,1.22" transform="translate(-0.2 -0.2)"/><path class="cls-3" d="M31.06,13.15l.83-1.22a.32.32,0,0,0-.08-.44l-1.88-1.27a.32.32,0,0,0-.44.08l-.83,1.22" transform="translate(-0.2 -0.2)"/><path class="cls-3" d="M22,16.6h.13a6,6,0,0,1,6,6" transform="translate(-0.2 -0.2)"/><line class="cls-4" x1="21.84" y1="12.87" x2="21.84" y2="14.48"/><line class="cls-4" x1="17.07" y1="14.2" x2="17.87" y2="15.59"/><line class="cls-4" x1="13.61" y1="17.73" x2="15" y2="18.53"/><line class="cls-4" x1="12.37" y1="22.52" x2="13.98" y2="22.52"/><line class="cls-4" x1="13.7" y1="27.28" x2="15.09" y2="26.48"/><line class="cls-4" x1="17.23" y1="30.75" x2="18.03" y2="29.36"/><line class="cls-4" x1="22.02" y1="31.98" x2="22.02" y2="30.38"/><line class="cls-4" x1="26.78" y1="30.66" x2="25.98" y2="29.26"/><line class="cls-4" x1="30.25" y1="27.13" x2="28.85" y2="26.32"/><line class="cls-4" x1="31.48" y1="22.34" x2="29.87" y2="22.34"/><line class="cls-4" x1="30.16" y1="17.57" x2="28.76" y2="18.38"/><line class="cls-4" x1="26.63" y1="14.11" x2="25.82" y2="15.5"/><line class="cls-3" x1="22.57" y1="21.62" x2="25.13" y2="19.02"/><path class="cls-3" d="M23.24,22.62a1.12,1.12,0,0,0-1.11-1.11,1.11,1.11,0,0,0,0,2.22A1.12,1.12,0,0,0,23.24,22.62Z" transform="translate(-0.2 -0.2)"/><line class="cls-3" x1="21.93" y1="10.48" x2="21.93" y2="8.74"/></g></g></g></svg>