<svg id="Layer_1" data-name="Layer 1" xmlns="http://www.w3.org/2000/svg" viewBox="0 0 207.5 61.64"><defs><style>.cls-1{fill:#fff;}.cls-2{fill:none;}</style></defs><title>pcb-ctpdv</title><path class="cls-1" d="M71.43,34.37l-.28.06-.44,0-.51.05h-.53a2,2,0,0,1-1.72-.7,4.08,4.08,0,0,1-.51-2.33V26.85H65.86v5a6.58,6.58,0,0,0,.19,1.66,3.5,3.5,0,0,0,.61,1.29,2.74,2.74,0,0,0,1.12.85,4.38,4.38,0,0,0,1.72.3,11.46,11.46,0,0,0,2.07-.16c.6-.1,1.08-.2,1.44-.29V26.85H71.43Z" transform="translate(0 -0.29)"/><path class="cls-1" d="M38.72,28a3.36,3.36,0,0,0-1.25-1,4.36,4.36,0,0,0-3-.14,5.17,5.17,0,0,0-.88.39V22.46L32,22.73V35.5a12.29,12.29,0,0,0,1.4.31,11.29,11.29,0,0,0,2,.15,4.87,4.87,0,0,0,1.84-.32,4,4,0,0,0,1.4-.93,4.12,4.12,0,0,0,.89-1.46,5.7,5.7,0,0,0,.32-1.95,6.23,6.23,0,0,0-.27-1.88A4.12,4.12,0,0,0,38.72,28Zm-1.38,5.76a2.6,2.6,0,0,1-2,.85,8.11,8.11,0,0,1-1.08-.06,4.59,4.59,0,0,1-.68-.13V28.73a3.36,3.36,0,0,1,.84-.46,3.07,3.07,0,0,1,1.19-.22,2.52,2.52,0,0,1,1.17.25,2.16,2.16,0,0,1,.79.68A3,3,0,0,1,38,30a5.84,5.84,0,0,1,.14,1.28A3.47,3.47,0,0,1,37.34,33.71Z" transform="translate(0 -0.29)"/><path class="cls-2" d="M42.77,23.15a1,1,0,0,0-1,1,1,1,0,0,0,.3.76,1,1,0,0,0,1.74-.76,1,1,0,0,0-.29-.76A1,1,0,0,0,42.77,23.15Z" transform="translate(0 -0.29)"/><path class="cls-1" d="M51.82,27.58a2.64,2.64,0,0,0-1-.71,4.75,4.75,0,0,0-1.61-.24,9.29,9.29,0,0,0-1.55.12,5,5,0,0,0-1,.27l.18,1.32a4.68,4.68,0,0,1,.88-.23A7,7,0,0,1,49,28a2.39,2.39,0,0,1,1,.18,1.6,1.6,0,0,1,.6.48,1.76,1.76,0,0,1,.31.68,4.13,4.13,0,0,1,.08.78v.45l-.24-.05-.4-.08-.48-.07-.5,0A6.57,6.57,0,0,0,48,30.5a3.59,3.59,0,0,0-1.2.48,2.39,2.39,0,0,0-.81.86,2.61,2.61,0,0,0-.29,1.26,3.08,3.08,0,0,0,.25,1.32,2.26,2.26,0,0,0,.72.89,3,3,0,0,0,1.09.48,5.45,5.45,0,0,0,1.38.16c.35,0,.7,0,1.06-.05s.69,0,1-.09.58-.07.82-.11l.57-.09V30a4.92,4.92,0,0,0-.17-1.38A2.55,2.55,0,0,0,51.82,27.58ZM51,34.49a4,4,0,0,1-.72.1l-1,0a2.87,2.87,0,0,1-1.48-.33,1.29,1.29,0,0,1-.54-1.19,1.17,1.17,0,0,1,.22-.75A1.47,1.47,0,0,1,48,31.9a2.21,2.21,0,0,1,.73-.22,6.91,6.91,0,0,1,.76-.05,6.12,6.12,0,0,1,.93.06,1.88,1.88,0,0,1,.55.15Z" transform="translate(0 -0.29)"/><path class="cls-1" d="M63.38,34.38a3.31,3.31,0,0,1-1.15.16,2.17,2.17,0,0,1-.71-.1,1.09,1.09,0,0,1-.51-.35,1.7,1.7,0,0,1-.31-.69,4.85,4.85,0,0,1-.1-1.1V28.19H64V26.85H60.6V24.09L59,24.36v8a7.27,7.27,0,0,0,.15,1.57,2.83,2.83,0,0,0,.5,1.14,2.25,2.25,0,0,0,1,.7A4.2,4.2,0,0,0,62.1,36a4.72,4.72,0,0,0,1.36-.18,5.67,5.67,0,0,0,.83-.3L64,34.15Z" transform="translate(0 -0.29)"/><rect class="cls-1" x="41.99" y="26.56" width="1.58" height="8.91"/><path class="cls-1" d="M5.69,34.44a5,5,0,0,1-1.14.12,3.45,3.45,0,0,1-1.33-.23,2.39,2.39,0,0,1-.9-.66,2.84,2.84,0,0,1-.51-1,5.42,5.42,0,0,1-.16-1.32,3.73,3.73,0,0,1,.71-2.45,2.51,2.51,0,0,1,2-.84,4.58,4.58,0,0,1,1,.1,3.43,3.43,0,0,1,.82.28l.36-1.36a6,6,0,0,0-1.14-.32,6.83,6.83,0,0,0-1.19-.1A4.19,4.19,0,0,0,2.48,27a3.76,3.76,0,0,0-1.34,1A4.62,4.62,0,0,0,.3,29.44,5.66,5.66,0,0,0,0,31.32,6.19,6.19,0,0,0,.27,33.2a4,4,0,0,0,.83,1.46,3.81,3.81,0,0,0,1.36,1A4.78,4.78,0,0,0,4.34,36a5.85,5.85,0,0,0,.71,0l.69-.1c.21,0,.41-.09.58-.14a1.48,1.48,0,0,0,.39-.16l-.22-1.34A4.42,4.42,0,0,1,5.69,34.44Z" transform="translate(0 -0.29)"/><path class="cls-1" d="M13.94,27.58a2.61,2.61,0,0,0-1.06-.71,4.71,4.71,0,0,0-1.61-.24,9.47,9.47,0,0,0-1.55.12,5.41,5.41,0,0,0-1,.27l.19,1.32a4.34,4.34,0,0,1,.87-.23A7.08,7.08,0,0,1,11.14,28a2.34,2.34,0,0,1,1,.18,1.56,1.56,0,0,1,.61.48,1.75,1.75,0,0,1,.3.68,3.46,3.46,0,0,1,.09.78v.45l-.24-.05-.4-.08L12,30.37l-.5,0a6.59,6.59,0,0,0-1.43.16A3.63,3.63,0,0,0,8.89,31a2.39,2.39,0,0,0-.81.86,2.5,2.5,0,0,0-.3,1.26A3.07,3.07,0,0,0,8,34.42a2.32,2.32,0,0,0,.71.89,3.09,3.09,0,0,0,1.09.48,5.45,5.45,0,0,0,1.38.16c.35,0,.71,0,1.07-.05s.68,0,1-.09.58-.07.83-.11l.57-.09V30a5.32,5.32,0,0,0-.17-1.38A2.8,2.8,0,0,0,13.94,27.58Zm-.81,6.91a4.15,4.15,0,0,1-.73.1l-1,0a2.82,2.82,0,0,1-1.48-.33,1.28,1.28,0,0,1-.55-1.19,1.24,1.24,0,0,1,.22-.75,1.5,1.5,0,0,1,.56-.44,2.14,2.14,0,0,1,.73-.22,6.91,6.91,0,0,1,.76-.05,6,6,0,0,1,.92.06,2,2,0,0,1,.56.15Z" transform="translate(0 -0.29)"/><path class="cls-1" d="M28.72,27.81a2.38,2.38,0,0,0-1-.85,4,4,0,0,0-1.67-.3,4.32,4.32,0,0,0-1,.11,7,7,0,0,0-.84.26,4.7,4.7,0,0,0-.63.3,4.09,4.09,0,0,0-.37.24,2.58,2.58,0,0,0-1-.68,4,4,0,0,0-1.43-.23,12.53,12.53,0,0,0-2.07.15c-.6.11-1.08.2-1.44.3v8.65h1.58V28.24a1.61,1.61,0,0,1,.28,0l.45-.07.52,0,.51,0a2.14,2.14,0,0,1,.93.18,1.4,1.4,0,0,1,.57.56,2.66,2.66,0,0,1,.3.95,8.6,8.6,0,0,1,.09,1.35v4.66h1.58v-5A8.11,8.11,0,0,0,24,29.64a5.66,5.66,0,0,0-.2-1,2.6,2.6,0,0,1,.7-.38,3.57,3.57,0,0,1,1.32-.22,2.14,2.14,0,0,1,.95.18,1.42,1.42,0,0,1,.58.56,2.66,2.66,0,0,1,.29.95,10.39,10.39,0,0,1,.07,1.35v4.66h1.59v-5a9.36,9.36,0,0,0-.13-1.65A3.42,3.42,0,0,0,28.72,27.81Z" transform="translate(0 -0.29)"/><path class="cls-2" d="M183.28,23.15a1,1,0,0,0-.73.28,1,1,0,0,0-.3.76,1,1,0,0,0,.3.76A1.05,1.05,0,0,0,184,25a1,1,0,0,0,.3-.76,1,1,0,0,0-1-1Z" transform="translate(0 -0.29)"/><path class="cls-1" d="M178.74,28.64c-.19.63-.39,1.26-.6,1.88s-.42,1.23-.64,1.81-.42,1.1-.61,1.56c-.19-.46-.4-1-.61-1.56s-.43-1.18-.64-1.81-.41-1.25-.6-1.88-.35-1.23-.48-1.79h-1.71a48.16,48.16,0,0,0,1.56,4.8c.6,1.53,1.17,2.9,1.73,4.11h1.43c.56-1.21,1.13-2.58,1.73-4.11a45.7,45.7,0,0,0,1.56-4.8h-1.64C179.09,27.41,178.92,28,178.74,28.64Z" transform="translate(0 -0.29)"/><path class="cls-1" d="M156.19,27.24a5.17,5.17,0,0,0-.88-.39,4,4,0,0,0-1.36-.21,4,4,0,0,0-1.69.35A3.36,3.36,0,0,0,151,28a4.3,4.3,0,0,0-.78,1.47A6.57,6.57,0,0,0,150,31.3a5.7,5.7,0,0,0,.32,1.95,3.93,3.93,0,0,0,2.28,2.39,4.9,4.9,0,0,0,1.84.32,11.41,11.41,0,0,0,2-.15,12.29,12.29,0,0,0,1.4-.31v-13l-1.58.27Zm0,7.13a4.59,4.59,0,0,1-.68.13,8.11,8.11,0,0,1-1.08.06,2.6,2.6,0,0,1-2-.85,3.47,3.47,0,0,1-.77-2.41,5.84,5.84,0,0,1,.14-1.28,3,3,0,0,1,.44-1,2.16,2.16,0,0,1,.79-.68,2.5,2.5,0,0,1,1.17-.25,3.07,3.07,0,0,1,1.19.22,3.55,3.55,0,0,1,.84.46Z" transform="translate(0 -0.29)"/><path class="cls-2" d="M164,28a2.06,2.06,0,0,0-1,.21,2.32,2.32,0,0,0-.71.56,2.46,2.46,0,0,0-.45.79,4.16,4.16,0,0,0-.22.91h4.4a2.72,2.72,0,0,0-.54-1.78A1.85,1.85,0,0,0,164,28Z" transform="translate(0 -0.29)"/><path class="cls-1" d="M198.66,34.38a3.31,3.31,0,0,1-1.15.16,2.28,2.28,0,0,1-.72-.1,1.2,1.2,0,0,1-.51-.35,1.69,1.69,0,0,1-.3-.69,4.79,4.79,0,0,1-.11-1.1V28.19h3.36V26.85h-3.36V24.09l-1.58.27v8a7.27,7.27,0,0,0,.15,1.57,2.7,2.7,0,0,0,.5,1.14,2.22,2.22,0,0,0,.94.7,4.2,4.2,0,0,0,1.49.23,4.79,4.79,0,0,0,1.37-.18,6.16,6.16,0,0,0,.83-.3l-.31-1.32Z" transform="translate(0 -0.29)"/><path class="cls-1" d="M207.33,28.66a2.56,2.56,0,0,0-1.62-1.79,4.75,4.75,0,0,0-1.61-.24,9.38,9.38,0,0,0-1.55.12,5,5,0,0,0-1,.27l.19,1.32a4.34,4.34,0,0,1,.87-.23A7,7,0,0,1,204,28a2.39,2.39,0,0,1,1,.18,1.52,1.52,0,0,1,.6.48,1.76,1.76,0,0,1,.31.68,3.44,3.44,0,0,1,.08.78v.45l-.23-.05-.4-.08-.49-.07-.49,0a6.59,6.59,0,0,0-1.43.16,3.54,3.54,0,0,0-1.19.48,2.23,2.23,0,0,0-.81.86,2.5,2.5,0,0,0-.3,1.26,3.08,3.08,0,0,0,.25,1.32,2.26,2.26,0,0,0,.72.89,3.09,3.09,0,0,0,1.09.48,5.45,5.45,0,0,0,1.38.16c.35,0,.7,0,1.06-.05s.69,0,1-.09.58-.07.82-.11l.57-.09V30A4.92,4.92,0,0,0,207.33,28.66ZM206,34.49a4,4,0,0,1-.72.1l-1,0a2.87,2.87,0,0,1-1.48-.33,1.29,1.29,0,0,1-.54-1.19,1.17,1.17,0,0,1,.22-.75,1.47,1.47,0,0,1,.55-.44,2.2,2.2,0,0,1,.74-.22,6.59,6.59,0,0,1,.75-.05,6,6,0,0,1,.93.06,1.79,1.79,0,0,1,.55.15Z" transform="translate(0 -0.29)"/><rect class="cls-1" x="182.49" y="26.56" width="1.58" height="8.91"/><path class="cls-1" d="M164,26.63a3.84,3.84,0,0,0-1.49.29,3.63,3.63,0,0,0-1.3.87,4.46,4.46,0,0,0-.9,1.47,5.59,5.59,0,0,0-.34,2.06,6.38,6.38,0,0,0,.26,1.86,4,4,0,0,0,.81,1.46,3.59,3.59,0,0,0,1.39,1,5.07,5.07,0,0,0,2,.35,6.83,6.83,0,0,0,1.64-.17,4.76,4.76,0,0,0,1-.32l-.22-1.34a5,5,0,0,1-.87.28,5.5,5.5,0,0,1-1.4.15,2.92,2.92,0,0,1-2.18-.72,3.31,3.31,0,0,1-.8-2.11h6.06a2.66,2.66,0,0,0,0-.3v-.26a5.23,5.23,0,0,0-.95-3.42A3.4,3.4,0,0,0,164,26.63Zm-2.35,3.82a4.16,4.16,0,0,1,.22-.91,2.46,2.46,0,0,1,.45-.79,2.32,2.32,0,0,1,.71-.56,2.06,2.06,0,0,1,1-.21,1.85,1.85,0,0,1,1.52.69,2.72,2.72,0,0,1,.54,1.78Z" transform="translate(0 -0.29)"/><path class="cls-1" d="M191.64,31.65a3.19,3.19,0,0,0-.84-.54c-.33-.16-.7-.31-1.12-.47l-.82-.33a2.52,2.52,0,0,1-.57-.33,1.18,1.18,0,0,1-.34-.41,1.16,1.16,0,0,1-.11-.51.87.87,0,0,1,.49-.83,2.39,2.39,0,0,1,1.16-.27,5,5,0,0,1,1.31.15,4.38,4.38,0,0,1,.8.28l.29-1.37-.38-.12c-.17,0-.36-.09-.57-.13l-.7-.1a6.28,6.28,0,0,0-.75,0,3.71,3.71,0,0,0-2.37.69,2.28,2.28,0,0,0-.87,1.88,2.22,2.22,0,0,0,.21,1,2.34,2.34,0,0,0,.54.7,3.58,3.58,0,0,0,.81.5c.31.15.64.29,1,.43a6.94,6.94,0,0,1,1.52.77,1.1,1.1,0,0,1,.46.92.87.87,0,0,1-.47.82,3,3,0,0,1-1.44.26,5.15,5.15,0,0,1-1.58-.2l-.87-.31-.29,1.37a9,9,0,0,0,.9.3,6.86,6.86,0,0,0,1.84.19,4.56,4.56,0,0,0,2.6-.63,2.14,2.14,0,0,0,.91-1.87,2.81,2.81,0,0,0-.19-1.07A2,2,0,0,0,191.64,31.65Z" transform="translate(0 -0.29)"/><path class="cls-1" d="M88.69,27.78a3.6,3.6,0,1,0,0,7.2,3.6,3.6,0,0,0,3.55-3.63,3.48,3.48,0,0,0-1-2.49A3.44,3.44,0,0,0,88.69,27.78Z" transform="translate(0 -0.29)"/><path class="cls-1" d="M111.19.29a30.83,30.83,0,1,0,30.67,30.82A30.75,30.75,0,0,0,111.19.29ZM88.69,37.11a5.65,5.65,0,0,1-3.64-1.28v4.4A1.06,1.06,0,0,1,84,41.32a1.09,1.09,0,0,1-1.06-1.09v-9a5.69,5.69,0,0,1,1.76-4,5.78,5.78,0,0,1,4-1.63,5.33,5.33,0,0,1,4,1.66,5.69,5.69,0,0,1-4,9.79Zm18.4-5.86a5.6,5.6,0,0,1-1.69,4,5.87,5.87,0,0,1-8.12,0,5.6,5.6,0,0,1-1.69-4V26.84a1.11,1.11,0,0,1,1.07-1.06,1.13,1.13,0,0,1,1.15,1.06v4.41a3.53,3.53,0,0,0,7.06,0h0l.08-4.48A1,1,0,0,1,106,25.69a1.1,1.1,0,0,1,1.07,1.07Zm12.67,4.59a1.1,1.1,0,0,1-1.06,1.07,1,1,0,0,1-1.07-1.06l-.08-4.49h0a3.53,3.53,0,0,0-7.06,0v4.41a1.13,1.13,0,0,1-1.15,1.07,1.11,1.11,0,0,1-1.07-1.07V31.35a5.59,5.59,0,0,1,1.68-4,5.86,5.86,0,0,1,8.13,0,5.59,5.59,0,0,1,1.68,4Zm8.32,1.07h-1.39a5.59,5.59,0,0,1-4-1.68A5.14,5.14,0,0,1,121,31.48h0V24.19a1.06,1.06,0,0,1,1.14-1.07,1,1,0,0,1,1,1.07V25.7H128A1.06,1.06,0,0,1,129,26.85a1,1,0,0,1-1.06,1h-4.73v3c.07,2.81,1.94,3.82,3.46,3.82h1.39a1.11,1.11,0,0,1,0,2.21Zm11-9.59h0a5.76,5.76,0,0,1,1.63,3.93,5.65,5.65,0,1,1-11.29,0,5.48,5.48,0,0,1,1.65-3.91,5.65,5.65,0,0,1,4-1.65A5.52,5.52,0,0,1,139.12,27.32Z" transform="translate(0 -0.29)"/><path class="cls-1" d="M135.13,34.85a3.62,3.62,0,0,0,3.57-3.59,3.45,3.45,0,0,0-1.07-2.4l0,0a3.18,3.18,0,0,0-2.47-1.07,3.47,3.47,0,0,0-2.48,1,3.52,3.52,0,0,0-1,2.45,3.58,3.58,0,0,0,1,2.53A3.42,3.42,0,0,0,135.13,34.85Z" transform="translate(0 -0.29)"/></svg>