<svg id="Layer_6" data-name="Layer 6" xmlns="http://www.w3.org/2000/svg" viewBox="0 0 199.47 199.47"><defs><style>.cls-1{fill:#adb0ba;}</style></defs><title>pcb-ico-global</title><path class="cls-1" d="M62.05,134.74a2.43,2.43,0,1,0,4.62-1.5,108.32,108.32,0,0,1-5.18-31.07H97.83v12.55a2.44,2.44,0,0,0,4.87,0V102.17h21.6a2.44,2.44,0,0,0,0-4.87H102.7V65.43A114.16,114.16,0,0,0,132,61a111.53,111.53,0,0,1,6.51,27.55,2.42,2.42,0,0,0,2.67,2.17A2.46,2.46,0,0,0,143.36,88a117,117,0,0,0-6.71-28.5A113.64,113.64,0,0,0,165.45,45,84.53,84.53,0,0,1,175,59a2.44,2.44,0,1,0,4.28-2.33A90,90,0,1,0,25.76,150.14a2.43,2.43,0,1,0,4-2.73,84.34,84.34,0,0,1-14.61-45.24H56.62A112.76,112.76,0,0,0,62.05,134.74ZM162.18,41.32A109,109,0,0,1,134.83,55,114.46,114.46,0,0,0,106,14.79,85,85,0,0,1,162.18,41.32ZM102.7,18.37a107.89,107.89,0,0,1,27.45,38.06,109,109,0,0,1-27.45,4.13ZM97.83,97.3H61.5a110,110,0,0,1,7-36.34,114.08,114.08,0,0,0,29.29,4.47Zm0-36.74a109.09,109.09,0,0,1-27.45-4.13A107.91,107.91,0,0,1,97.83,18.37ZM94.52,14.81A112.92,112.92,0,0,0,65.7,55,108.88,108.88,0,0,1,38.39,41.34,85,85,0,0,1,94.52,14.81ZM35.12,45A113.71,113.71,0,0,0,63.89,59.5a114.88,114.88,0,0,0-7.26,37.8H15.19A84.68,84.68,0,0,1,35.12,45Z" transform="translate(-0.53)"/><path class="cls-1" d="M1.66,159.68c5.2,8.33,24.77,2.4,32.82-.22a2.43,2.43,0,1,0-1.54-4.62c-11.89,4.22-24.89,5.85-27.13,2.29-.5-.78-1.37-3.92,5.36-12.65,1.4,2.75,2.95,5.52,4.71,8.29a2.38,2.38,0,0,0,3.28.45c1.31-1,1.14-2.42.46-3.57C8,130,5.39,113.43,5.39,99.74A94.86,94.86,0,0,1,181.83,51.32a2.43,2.43,0,1,0,4.22-2.42A63.08,63.08,0,0,0,181,41.12c10.77-1.9,13.22.38,13.75,1.23S196.32,47,187,58c-13.83,16.23-43,38.82-76.18,59A479.47,479.47,0,0,1,59,144.61c-2.59,1.2-5.1,2.28-7.57,3.32l3.17-6.8a2.43,2.43,0,0,0-4.41-2l-5.82,12.47a2.43,2.43,0,0,0,1.18,3.23L58,160.6a2.37,2.37,0,0,0,3.23-1.18A2.42,2.42,0,0,0,60,156.19l-7.47-3.49c2.74-1.14,5.53-2.33,8.42-3.66a487,487,0,0,0,52.32-27.95c34.08-20.7,63-43.11,77.36-60,8.34-9.81,11-16.8,8.21-21.31s-9.64-5.42-21.26-3C165.62,22.3,140.54,0,100.26,0A99.85,99.85,0,0,0,.53,99.74a98.62,98.62,0,0,0,8.32,39.84C1.33,148.76-1,155.36,1.66,159.68Z" transform="translate(-0.53)"/><path class="cls-1" d="M100.26,189.74a90.21,90.21,0,0,0,87.11-112.9,2.38,2.38,0,0,0-3-1.74,2.45,2.45,0,0,0-1.74,3,85.49,85.49,0,0,1,2.67,19.23H158.26a2.44,2.44,0,1,0,0,4.87h27.08a84.74,84.74,0,0,1-20,52.34,119.81,119.81,0,0,0-29-13.8,115,115,0,0,0,6.88-28.36,2.43,2.43,0,1,0-4.84-.51,109.26,109.26,0,0,1-6.71,27.44,114.61,114.61,0,0,0-31.45-4.61,2.43,2.43,0,0,0-2.43,2.43v44A110.25,110.25,0,0,1,74.1,150.85a2.43,2.43,0,1,0-4.3,2.28,114.92,114.92,0,0,0,24.7,31.53,84.6,84.6,0,0,1-51.18-21.73,2.44,2.44,0,0,0-3.27,3.61A89.52,89.52,0,0,0,100.26,189.74Zm34.22-44.46a118.14,118.14,0,0,1,27.63,12.89A85,85,0,0,1,106,184.66,112.67,112.67,0,0,0,134.48,145.28Zm-31.78-5.72a110.44,110.44,0,0,1,27.09,4.3A107.9,107.9,0,0,1,102.7,181.1Z" transform="translate(-0.53)"/><path class="cls-1" d="M192,67.36a2.43,2.43,0,0,0-1.55,3.08,93.3,93.3,0,0,1,4.64,29.3A94.85,94.85,0,0,1,32.81,166.43a2.43,2.43,0,0,0-3.46,3.42A99.72,99.72,0,0,0,200,99.74a98,98,0,0,0-4.89-30.83A2.44,2.44,0,0,0,192,67.36Z" transform="translate(-0.53)"/></svg>