<svg xmlns="http://www.w3.org/2000/svg" xmlns:xlink="http://www.w3.org/1999/xlink" viewBox="0 0 36.84 34.82"><defs><style>.cls-1,.cls-3,.cls-4{fill:none;}.cls-2{clip-path:url(#clip-path);}.cls-3,.cls-4{stroke:#686868;}.cls-3{stroke-dasharray:1 1;}</style><clipPath id="clip-path" transform="translate(-0.35 -0.25)"><rect class="cls-1" width="37.43" height="35.31"/></clipPath></defs><title>pcb-prod-bico9</title><g id="Layer_2" data-name="Layer 2"><g id="Capa_2" data-name="Capa 2"><g class="cls-2"><path class="cls-3" d="M35.64,15.46a17.68,17.68,0,0,1,.14,2.2A16.91,16.91,0,0,1,8.34,30.89l-.48-.4" transform="translate(-0.35 -0.25)"/><path class="cls-3" d="M3,23.62A16.92,16.92,0,0,1,26.82,2.73" transform="translate(-0.35 -0.25)"/><path class="cls-4" d="M29.86,14.46a11.61,11.61,0,0,1,.45,3.2,11.44,11.44,0,0,1-20.8,6.58" transform="translate(-0.35 -0.25)"/><path class="cls-4" d="M7.47,18.58c0-.3,0-.61,0-.92A11.45,11.45,0,0,1,26.59,9.21" transform="translate(-0.35 -0.25)"/><polygon class="cls-4" points="27.92 4.44 27.92 7.64 31.21 7.64 21.04 17.5 15.38 12.64 0.71 28.18 3.04 30.38 15.61 17.07 21.17 21.83 33.13 10.25 33.13 12.85 36.34 12.85 36.34 4.44 27.92 4.44"/></g></g></g></svg>