<svg xmlns="http://www.w3.org/2000/svg" xmlns:xlink="http://www.w3.org/1999/xlink" viewBox="0 0 34.49 30.58"><defs><style>.cls-1,.cls-3{fill:none;}.cls-2{clip-path:url(#clip-path);}.cls-3{stroke:#fff;stroke-miterlimit:10;}</style><clipPath id="clip-path" transform="translate(-0.2 -0.2)"><rect class="cls-1" width="34.89" height="30.98"/></clipPath></defs><title>pcb-prod-icon1</title><g id="Layer_2" data-name="Layer 2"><g id="Capa_2" data-name="Capa 2"><g class="cls-2"><rect class="cls-3" x="10.7" y="16.95" width="23.29" height="13.13"/><path class="cls-3" d="M14.68,27.77a2.46,2.46,0,0,0-1.28-1.24V20.87a2.42,2.42,0,0,0,1.26-1.22H30.43a2.44,2.44,0,0,0,1.25,1.22v5.66a2.44,2.44,0,0,0-1.27,1.24Z" transform="translate(-0.2 -0.2)"/><path class="cls-3" d="M24.39,23.71a1.85,1.85,0,1,1-1.85-1.84A1.85,1.85,0,0,1,24.39,23.71Z" transform="translate(-0.2 -0.2)"/><line class="cls-3" x1="26.61" y1="23.51" x2="29.36" y2="23.51"/><line class="cls-3" x1="18.08" y1="23.51" x2="15.33" y2="23.51"/><polyline class="cls-3" points="0.5 19.67 3.15 17.02 5.79 19.67"/><path class="cls-3" d="M3.28,18.06v3.28A2.67,2.67,0,0,0,6,24H8.33" transform="translate(-0.2 -0.2)"/><rect class="cls-3" x="0.5" y="0.5" width="23.29" height="13.13"/><rect class="cls-3" x="7.72" y="3" width="13.56" height="8.12"/><line class="cls-3" x1="4.15" y1="3.36" x2="2.65" y2="3.36"/><line class="cls-3" x1="5.76" y1="11.13" x2="2.66" y2="11.13"/><line class="cls-3" x1="12.49" y1="5.09" x2="9.74" y2="5.09"/><line class="cls-3" x1="18.9" y1="13.74" x2="18.9" y2="0.8"/><polyline class="cls-3" points="33.99 10.91 31.34 13.56 28.7 10.91"/><path class="cls-3" d="M31.61,12.92V9.64A2.67,2.67,0,0,0,28.94,7H26.56" transform="translate(-0.2 -0.2)"/></g></g></g></svg>