<svg xmlns="http://www.w3.org/2000/svg" xmlns:xlink="http://www.w3.org/1999/xlink" viewBox="0 0 31.86 35.02"><defs><style>.cls-1,.cls-3,.cls-4{fill:none;}.cls-2{clip-path:url(#clip-path);}.cls-3,.cls-4{stroke:#686868;}.cls-4{stroke-dasharray:1 1;}.cls-5{fill:#686868;}</style><clipPath id="clip-path" transform="translate(-0.35 -0.2)"><rect class="cls-1" width="32.41" height="35.22"/></clipPath></defs><title>pcb-prod-bico7</title><g id="Layer_2" data-name="Layer 2"><g id="Capa_2" data-name="Capa 2"><g class="cls-2"><path class="cls-3" d="M27.87,35.22V23.11A13.13,13.13,0,1,0,5.44,13.83c0,.2,0,.4,0,.6L3.63,17.6,1.21,21.78H4.26V27A3.55,3.55,0,0,0,7.8,30.51h5.61v4.71" transform="translate(-0.35 -0.2)"/><path class="cls-3" d="M18.41,4.3a9.53,9.53,0,1,1-9.52,9.53" transform="translate(-0.35 -0.2)"/><path class="cls-3" d="M8.89,13.83c0-.23,0-.47,0-.7" transform="translate(-0.35 -0.2)"/><path class="cls-4" d="M9.14,11.64A9.55,9.55,0,0,1,17,4.41" transform="translate(-0.35 -0.2)"/><path class="cls-3" d="M17.71,4.33l.7,0" transform="translate(-0.35 -0.2)"/><path class="cls-5" d="M17.81,18.77c-.51,0-1,0-1.54-.05a7.13,7.13,0,0,1-1.36-.2V9.16l.65-.11L16.27,9c.24,0,.48,0,.72,0l.67,0a10.26,10.26,0,0,1,1.63.13,4.32,4.32,0,0,1,1.3.44,2.4,2.4,0,0,1,.86.81,2.37,2.37,0,0,1,.3,1.24,2.06,2.06,0,0,1-.33,1.17,2.34,2.34,0,0,1-.91.78,2.51,2.51,0,0,1,1.3.86,2.36,2.36,0,0,1,.41,1.44A2.54,2.54,0,0,1,21.14,18a6,6,0,0,1-3.33.74m-1.18-5.83h1.24a3.56,3.56,0,0,0,1.57-.28,1,1,0,0,0,.57-1,1,1,0,0,0-.59-1,3.4,3.4,0,0,0-1.54-.3l-.71,0-.54,0Zm0,1.38v2.94l.63,0h.61a6.41,6.41,0,0,0,1-.07,2.66,2.66,0,0,0,.81-.24,1.53,1.53,0,0,0,.54-.47,1.3,1.3,0,0,0,.2-.75,1.17,1.17,0,0,0-.6-1.14,3.58,3.58,0,0,0-1.65-.32Z" transform="translate(-0.35 -0.2)"/></g></g></g></svg>