<svg id="Layer_3" data-name="Layer 3" xmlns="http://www.w3.org/2000/svg" viewBox="0 0 199.69 104.94"><defs><style>.cls-1{fill:#fff;}</style></defs><title>pcb-ico-fibras</title><g id="Layer_4" data-name="Layer 4"><path class="cls-1" d="M162.28,116h-6.85a1.15,1.15,0,1,0,0,2.29h6.85a1.15,1.15,0,1,0,0-2.29Z" transform="translate(-0.31 -47)"/><path class="cls-1" d="M155.43,116.26a.9.9,0,1,0,0,1.79h6.85a.9.9,0,1,0,0-1.79Z" transform="translate(-0.31 -47)"/><path class="cls-1" d="M162.28,120.58h-6.85a1.15,1.15,0,1,0,0,2.29h6.85a1.15,1.15,0,1,0,0-2.29Z" transform="translate(-0.31 -47)"/><path class="cls-1" d="M155.43,120.83a.9.9,0,0,0,0,1.8h6.85a.9.9,0,1,0,0-1.8Z" transform="translate(-0.31 -47)"/><path class="cls-1" d="M162.28,125.15h-6.85a1.15,1.15,0,1,0,0,2.29h6.85a1.15,1.15,0,1,0,0-2.29Z" transform="translate(-0.31 -47)"/><path class="cls-1" d="M155.43,125.4a.9.9,0,0,0,0,1.8h6.85a.9.9,0,1,0,0-1.8Z" transform="translate(-0.31 -47)"/><path class="cls-1" d="M180.57,102.8a1.14,1.14,0,0,0-1.14-1.14H169.14a3.44,3.44,0,0,0-3.43,3.43v43.43a1.14,1.14,0,0,1-1.14,1.14H153.14a1.14,1.14,0,0,1-1.14-1.14V112.15a1.15,1.15,0,0,1,1.14-1.15h9.14a1.14,1.14,0,1,0,0-2.28h-9.14a3.44,3.44,0,0,0-3.43,3.43v36.37a3.43,3.43,0,0,0,3.43,3.42h11.43a3.43,3.43,0,0,0,3.43-3.42V105.09a1.15,1.15,0,0,1,1.14-1.15h10.29A1.14,1.14,0,0,0,180.57,102.8Z" transform="translate(-0.31 -47)"/><path class="cls-1" d="M153.14,109a3.19,3.19,0,0,0-3.18,3.19v36.37a3.19,3.19,0,0,0,3.18,3.18h11.43a3.18,3.18,0,0,0,3.18-3.18V105.09a1.39,1.39,0,0,1,1.39-1.39h10.29a.9.9,0,1,0,0-1.8H169.14a3.19,3.19,0,0,0-3.18,3.19v43.43a1.38,1.38,0,0,1-1.39,1.38H153.14a1.39,1.39,0,0,1-1.39-1.38V112.15a1.39,1.39,0,0,1,1.39-1.39h9.14a.9.9,0,0,0,0-1.8Z" transform="translate(-0.31 -47)"/><path class="cls-1" d="M178.29,109.66h-6.86a1.14,1.14,0,1,0,0,2.28h6.86a1.14,1.14,0,1,0,0-2.28Z" transform="translate(-0.31 -47)"/><path class="cls-1" d="M171.43,109.9a.9.9,0,0,0,0,1.8h6.86a.9.9,0,0,0,0-1.8Z" transform="translate(-0.31 -47)"/><path class="cls-1" d="M178.29,114.23h-6.86a1.14,1.14,0,1,0,0,2.28h6.86a1.14,1.14,0,1,0,0-2.28Z" transform="translate(-0.31 -47)"/><path class="cls-1" d="M171.43,114.47a.9.9,0,0,0,0,1.8h6.86a.9.9,0,0,0,0-1.8Z" transform="translate(-0.31 -47)"/><path class="cls-1" d="M178.29,118.8h-6.86a1.15,1.15,0,1,0,0,2.29h6.86a1.15,1.15,0,0,0,0-2.29Z" transform="translate(-0.31 -47)"/><path class="cls-1" d="M171.43,119a.9.9,0,0,0,0,1.8h6.86a.9.9,0,0,0,0-1.8Z" transform="translate(-0.31 -47)"/><path class="cls-1" d="M196.57,105.4H185.14a3.31,3.31,0,0,0-3.43,3.17v40.2a1.11,1.11,0,0,1-1.14,1.06h-9.14a1.06,1.06,0,1,0,0,2.11h9.14a3.31,3.31,0,0,0,3.43-3.17v-40.2a1.11,1.11,0,0,1,1.14-1.06h11.43a1.11,1.11,0,0,1,1.14,1.06v40.2a1.11,1.11,0,0,1-1.14,1.06h-9.14a1.06,1.06,0,1,0,0,2.11h9.14a3.31,3.31,0,0,0,3.43-3.17v-40.2A3.31,3.31,0,0,0,196.57,105.4Z" transform="translate(-0.31 -47)"/><path class="cls-1" d="M187.43,150.07a.82.82,0,1,0,0,1.63h9.14a3.07,3.07,0,0,0,3.19-2.93v-40.2a3.07,3.07,0,0,0-3.19-2.93H185.14a3.07,3.07,0,0,0-3.18,2.93v40.2a1.34,1.34,0,0,1-1.39,1.3h-9.14a.82.82,0,1,0,0,1.63h9.14a3.07,3.07,0,0,0,3.19-2.93v-40.2a1.34,1.34,0,0,1,1.38-1.3h11.43a1.34,1.34,0,0,1,1.39,1.3v40.2a1.34,1.34,0,0,1-1.39,1.3Z" transform="translate(-0.31 -47)"/><path class="cls-1" d="M187.43,116.89h6.86a1.15,1.15,0,0,0,0-2.29h-6.86a1.15,1.15,0,0,0,0,2.29Z" transform="translate(-0.31 -47)"/><path class="cls-1" d="M187.43,121.46h6.86a1.15,1.15,0,0,0,0-2.29h-6.86a1.15,1.15,0,0,0,0,2.29Z" transform="translate(-0.31 -47)"/><path class="cls-1" d="M187.43,126h6.86a1.15,1.15,0,0,0,0-2.29h-6.86a1.15,1.15,0,0,0,0,2.29Z" transform="translate(-0.31 -47)"/><path class="cls-1" d="M187.43,124a.9.9,0,1,0,0,1.79h6.86a.9.9,0,0,0,0-1.79Z" transform="translate(-0.31 -47)"/></g><rect class="cls-1" x="1.43" y="90.32" width="94.75" height="1.95"/><path class="cls-1" d="M119,125.42l-.31,2.44H109.2L108.09,136h9.54l-.3,2.38h-9.56l-1.62,11.93h-2.46l3.37-24.89Z" transform="translate(-0.31 -47)"/><path class="cls-1" d="M124.36,125.42h6.26a12.67,12.67,0,0,1,4.77.64,5.27,5.27,0,0,1,2.34,2,5.84,5.84,0,0,1,.9,3.24,7,7,0,0,1-1.06,3.73,6.73,6.73,0,0,1-2.89,2.6,11.23,11.23,0,0,1-4.8.87l7.51,11.78h-2.82l-7.5-11.78h-2l-1.59,11.78H121Zm2.19,2.4-1.12,8.28h2.86a20.69,20.69,0,0,0,4.16-.26,4.93,4.93,0,0,0,2.65-1.59,4.39,4.39,0,0,0,1-2.91,3.06,3.06,0,0,0-1.41-2.82,7.64,7.64,0,0,0-3.89-.7Z" transform="translate(-0.31 -47)"/><path class="cls-1" d="M25.54,102l-1,.65a3.06,3.06,0,0,0-1-.76,2.92,2.92,0,0,0-1.21-.26,3.09,3.09,0,0,0-2.32,1,3.46,3.46,0,0,0-.95,2.5,3.41,3.41,0,0,0,.86,2.45,3,3,0,0,0,2.27.92,2.91,2.91,0,0,0,1.21-.27,4.55,4.55,0,0,0,1.21-.85l.9.8a5.68,5.68,0,0,1-1.72,1.13,5.06,5.06,0,0,1-1.9.37,4.52,4.52,0,0,1-3.26-1.27,4.27,4.27,0,0,1-1.31-3.21,4.46,4.46,0,0,1,1.41-3.35,4.83,4.83,0,0,1,3.48-1.34,4.69,4.69,0,0,1,1.89.36A4.18,4.18,0,0,1,25.54,102Z" transform="translate(-0.31 -47)"/><path class="cls-1" d="M34.83,103.14l-.11,3.61v.41a2.75,2.75,0,0,0,.15,1.08.52.52,0,0,0,.49.33,1.53,1.53,0,0,0,.41-.07,2,2,0,0,0,.43-.22l.41.67a5.06,5.06,0,0,1-1,.48,2.34,2.34,0,0,1-.79.15,1.79,1.79,0,0,1-1.18-.36,1.31,1.31,0,0,1-.43-1,6.3,6.3,0,0,1-1.6,1.13,3.82,3.82,0,0,1-1.62.36,3.16,3.16,0,0,1-2.11-.74,2.24,2.24,0,0,1-.87-1.77A2.47,2.47,0,0,1,28.68,105a11.18,11.18,0,0,1,4.57-.93.69.69,0,0,0,0-.2c0-.07,0-.16,0-.29a2,2,0,0,0-.4-1.43,1.71,1.71,0,0,0-1.3-.42,3.81,3.81,0,0,0-1.37.28,7.53,7.53,0,0,0-1.6.84l-.76-.88a11.14,11.14,0,0,1,2.17-1,6,6,0,0,1,1.95-.34,3.3,3.3,0,0,1,2.16.58,2.3,2.3,0,0,1,.69,1.85Zm-1.61,1.73a10.21,10.21,0,0,0-3.37.74,1.63,1.63,0,0,0-1.07,1.46,1.41,1.41,0,0,0,.5,1.08,1.84,1.84,0,0,0,1.24.44,2.29,2.29,0,0,0,.93-.24,13.62,13.62,0,0,0,1.64-1Z" transform="translate(-0.31 -47)"/><path class="cls-1" d="M44.62,101.35l-.73.9a4.47,4.47,0,0,0-1-.42,4,4,0,0,0-1.1-.14,2.48,2.48,0,0,0-1.41.36,1.08,1.08,0,0,0-.54.93c0,.6.83,1.19,2.48,1.76l.35.13a3.35,3.35,0,0,1,1.44.89,1.87,1.87,0,0,1,.49,1.29,2.33,2.33,0,0,1-1,2,4.06,4.06,0,0,1-2.56.73,6.8,6.8,0,0,1-1.63-.2,7.75,7.75,0,0,1-1.6-.59l.74-.94a6.46,6.46,0,0,0,1.21.48,4,4,0,0,0,1.1.17,2.55,2.55,0,0,0,1.48-.4,1.14,1.14,0,0,0,.59-1c0-.53-.65-1-2-1.57l-.06,0a7.58,7.58,0,0,1-2.26-1.22,1.76,1.76,0,0,1-.54-1.31,2.14,2.14,0,0,1,1-1.84,4.38,4.38,0,0,1,2.6-.69,6.53,6.53,0,0,1,1.58.18A4.71,4.71,0,0,1,44.62,101.35Z" transform="translate(-0.31 -47)"/><path class="cls-1" d="M54.53,103.14l-.1,3.61v.41a2.75,2.75,0,0,0,.15,1.08.5.5,0,0,0,.49.33,1.53,1.53,0,0,0,.41-.07,2,2,0,0,0,.43-.22l.4.67a4.75,4.75,0,0,1-1,.48,2.35,2.35,0,0,1-.8.15,1.78,1.78,0,0,1-1.17-.36,1.27,1.27,0,0,1-.43-1,6.34,6.34,0,0,1-1.61,1.13,3.82,3.82,0,0,1-1.62.36,3.15,3.15,0,0,1-2.1-.74,2.24,2.24,0,0,1-.87-1.77A2.45,2.45,0,0,1,48.38,105a11.27,11.27,0,0,1,4.58-.93,1.38,1.38,0,0,0,0-.2v-.29a2.09,2.09,0,0,0-.39-1.43,1.72,1.72,0,0,0-1.3-.42,3.86,3.86,0,0,0-1.38.28,7.72,7.72,0,0,0-1.59.84l-.77-.88a11.41,11.41,0,0,1,2.17-1,6,6,0,0,1,2-.34,3.31,3.31,0,0,1,2.17.58,2.3,2.3,0,0,1,.68,1.85Zm-1.6,1.73a10.15,10.15,0,0,0-3.37.74,1.61,1.61,0,0,0-1.07,1.46,1.38,1.38,0,0,0,.5,1.08,1.84,1.84,0,0,0,1.24.44,2.29,2.29,0,0,0,.93-.24,13.7,13.7,0,0,0,1.63-1Z" transform="translate(-0.31 -47)"/><path class="cls-1" d="M71.85,96.42h1.74l-.28,13.1H71.75l0-1.29a3.58,3.58,0,0,1-1.41,1.13,4.76,4.76,0,0,1-1.92.37,4,4,0,0,1-3-1.25,4.26,4.26,0,0,1-1.2-3.08A4.69,4.69,0,0,1,65.6,102a4.26,4.26,0,0,1,3.18-1.38,4.35,4.35,0,0,1,1.55.27,5,5,0,0,1,1.42.86Zm-.13,6.76a2.83,2.83,0,0,0-2.41-1.38,3,3,0,0,0-2.31,1,3.53,3.53,0,0,0-.94,2.52,3.48,3.48,0,0,0,.75,2.38,2.64,2.64,0,0,0,2.09.85,3,3,0,0,0,1.51-.37A3.89,3.89,0,0,0,71.68,107Z" transform="translate(-0.31 -47)"/><path class="cls-1" d="M85.26,105h-7a4.15,4.15,0,0,0,.78,2.66,2.66,2.66,0,0,0,2.19.91,3.68,3.68,0,0,0,1.42-.29,6.29,6.29,0,0,0,1.49-.89l.94.78a9.27,9.27,0,0,1-2.13,1.23,5.23,5.23,0,0,1-2,.38,4.37,4.37,0,0,1-3.21-1.22,4.28,4.28,0,0,1-1.25-3.18,4.65,4.65,0,0,1,1.36-3.43,4.71,4.71,0,0,1,3.43-1.34,4,4,0,0,1,2.93,1,4.09,4.09,0,0,1,1,3Zm-1.72-1a2.58,2.58,0,0,0-.65-1.73,2,2,0,0,0-1.56-.63,2.72,2.72,0,0,0-1.75.59A4.05,4.05,0,0,0,78.37,104Z" transform="translate(-0.31 -47)"/><path class="cls-1" d="M94.76,96.42h1.59L96.22,102a4,4,0,0,1,1.42-1.07,4.48,4.48,0,0,1,1.8-.35,4.09,4.09,0,0,1,3.11,1.21,5,5,0,0,1,.82,5,4.58,4.58,0,0,1-1,1.49,4.86,4.86,0,0,1-1.49,1,4.52,4.52,0,0,1-3.49,0,3.18,3.18,0,0,1-1.29-1l0,1.19H94.48ZM96.14,107a3.7,3.7,0,0,0,1.23,1.12,3,3,0,0,0,1.49.38,2.75,2.75,0,0,0,2.21-1,4.17,4.17,0,0,0,.86-2.71,3.17,3.17,0,0,0-.78-2.22,2.54,2.54,0,0,0-2-.86,3.2,3.2,0,0,0-1.49.38,5.55,5.55,0,0,0-1.47,1.18Z" transform="translate(-0.31 -47)"/><path class="cls-1" d="M111.15,100.59a5.12,5.12,0,0,1,3.54,1.23,4.05,4.05,0,0,1,1.37,3.18,4.49,4.49,0,0,1-1.37,3.47,5.31,5.31,0,0,1-3.75,1.28,5,5,0,0,1-3.52-1.24,4.22,4.22,0,0,1-1.33-3.26,4.37,4.37,0,0,1,1.39-3.38A5.23,5.23,0,0,1,111.15,100.59Zm0,1.08a3.14,3.14,0,0,0-2.4,1,3.66,3.66,0,0,0-.92,2.62,3.47,3.47,0,0,0,.88,2.46,3,3,0,0,0,2.25,1,3.12,3.12,0,0,0,2.41-1,3.77,3.77,0,0,0,.91-2.66,3.37,3.37,0,0,0-.88-2.42A2.91,2.91,0,0,0,111.17,101.67Z" transform="translate(-0.31 -47)"/><path class="cls-1" d="M119.09,96.42h1.7l-.28,13.1h-1.7Z" transform="translate(-0.31 -47)"/><path class="cls-1" d="M130,101.35l-.74.9a4.3,4.3,0,0,0-1-.42,3.88,3.88,0,0,0-1.09-.14,2.51,2.51,0,0,0-1.42.36,1.07,1.07,0,0,0-.53.93c0,.6.82,1.19,2.47,1.76l.36.13a3.48,3.48,0,0,1,1.44.89,1.91,1.91,0,0,1,.48,1.29,2.32,2.32,0,0,1-.94,2,4.11,4.11,0,0,1-2.57.73,6.8,6.8,0,0,1-1.63-.2,7.89,7.89,0,0,1-1.59-.59l.73-.94a6.74,6.74,0,0,0,1.21.48,4,4,0,0,0,1.1.17,2.53,2.53,0,0,0,1.48-.4,1.14,1.14,0,0,0,.59-1c0-.53-.65-1-2-1.57l0,0a7.53,7.53,0,0,1-2.27-1.22,1.76,1.76,0,0,1-.54-1.31,2.14,2.14,0,0,1,1-1.84,4.4,4.4,0,0,1,2.6-.69,6.53,6.53,0,0,1,1.58.18A4.66,4.66,0,0,1,130,101.35Z" transform="translate(-0.31 -47)"/><path class="cls-1" d="M139.89,103.14l-.11,3.61v.41a2.75,2.75,0,0,0,.15,1.08.52.52,0,0,0,.49.33,1.53,1.53,0,0,0,.41-.07,2,2,0,0,0,.43-.22l.41.67a5.32,5.32,0,0,1-1,.48,2.44,2.44,0,0,1-.8.15,1.74,1.74,0,0,1-1.17-.36,1.28,1.28,0,0,1-.44-1,6.3,6.3,0,0,1-1.6,1.13,3.82,3.82,0,0,1-1.62.36A3.16,3.16,0,0,1,133,109a2.24,2.24,0,0,1-.87-1.77,2.47,2.47,0,0,1,1.64-2.18,11.23,11.23,0,0,1,4.58-.93,1.36,1.36,0,0,0,0-.2c0-.07,0-.16,0-.29a2.09,2.09,0,0,0-.4-1.43,1.71,1.71,0,0,0-1.3-.42,3.81,3.81,0,0,0-1.37.28,7.53,7.53,0,0,0-1.6.84l-.76-.88a11.14,11.14,0,0,1,2.17-1,6,6,0,0,1,1.95-.34,3.3,3.3,0,0,1,2.16.58,2.3,2.3,0,0,1,.69,1.85Zm-1.6,1.73a10.22,10.22,0,0,0-3.38.74,1.63,1.63,0,0,0-1.07,1.46,1.41,1.41,0,0,0,.5,1.08,1.84,1.84,0,0,0,1.24.44,2.25,2.25,0,0,0,.93-.24,13.62,13.62,0,0,0,1.64-1Z" transform="translate(-0.31 -47)"/><path class="cls-1" d="M192.44,61.47l0,0a18.83,18.83,0,0,0-13.62-5.53,19.39,19.39,0,0,0-13.7,5.63,18.74,18.74,0,0,0-5.65,13.38,19.29,19.29,0,0,0,38.57,0A19.66,19.66,0,0,0,192.44,61.47ZM178.78,87.13a11.74,11.74,0,0,1-8.49-3.59,12.37,12.37,0,0,1-3.46-8.64,12.09,12.09,0,0,1,3.45-8.37,11.85,11.85,0,0,1,8.5-3.59,10.83,10.83,0,0,1,8.42,3.64l.1.11a11.79,11.79,0,0,1,3.64,8.21,12.16,12.16,0,0,1-3.6,8.62A12,12,0,0,1,178.78,87.13Z" transform="translate(-0.31 -47)"/><path class="cls-1" d="M20.08,55.68A19.73,19.73,0,0,0,6.33,61.23a19.45,19.45,0,0,0-6,13.53v30.69A3.73,3.73,0,0,0,4,109.16a3.59,3.59,0,0,0,3.72-3.71v-15a19.23,19.23,0,0,0,12.41,4.38,19.43,19.43,0,0,0,13.8-33.44A18.22,18.22,0,0,0,20.08,55.68Zm0,31.82a12.31,12.31,0,1,1,0-24.61,12.19,12.19,0,0,1,12.13,12.2A12.28,12.28,0,0,1,20.08,87.5Z" transform="translate(-0.31 -47)"/><path class="cls-1" d="M79.28,55.78a3.52,3.52,0,0,0-3.64,3.62l-.29,15.32v0c0,6.76-5.29,11.58-12,11.58S51.24,81.52,51.24,74.76V59.7a3.84,3.84,0,0,0-3.92-3.64,3.79,3.79,0,0,0-3.65,3.64V74.76a19.09,19.09,0,0,0,5.75,13.75,20,20,0,0,0,27.75,0,19.06,19.06,0,0,0,5.76-13.75V59.42A3.74,3.74,0,0,0,79.28,55.78Z" transform="translate(-0.31 -47)"/><path class="cls-1" d="M122.58,94.09a3.52,3.52,0,0,1-3.65-3.62l-.28-15.32v0c0-6.76-5.3-11.59-12.06-11.59S94.53,68.36,94.53,75.12v15a3.84,3.84,0,0,1-3.92,3.64A3.79,3.79,0,0,1,87,90.17v-15a19.07,19.07,0,0,1,5.76-13.76,20,20,0,0,1,27.75,0,19.1,19.1,0,0,1,5.75,13.76V90.45A3.74,3.74,0,0,1,122.58,94.09Z" transform="translate(-0.31 -47)"/><path class="cls-1" d="M154.63,86.53H149.9c-5.23,0-11.61-3.45-11.84-13V63.31h16.15a3.52,3.52,0,0,0,3.64-3.57,3.63,3.63,0,0,0-3.64-3.93H138.06V50.64A3.53,3.53,0,0,0,134.49,47a3.62,3.62,0,0,0-3.92,3.64V75.53h0a17.44,17.44,0,0,0,5.55,12.81,19.07,19.07,0,0,0,13.76,5.75h4.73a3.79,3.79,0,0,0,3.65-3.64A3.84,3.84,0,0,0,154.63,86.53Z" transform="translate(-0.31 -47)"/></svg>