<svg id="Layer_2" data-name="Layer 2" xmlns="http://www.w3.org/2000/svg" viewBox="0 0 163.71 200.09"><defs><style>.cls-1{fill:#adb0ba;}</style></defs><title>pcb-ico-corp</title><g id="Layer_18" data-name="Layer 18"><path class="cls-1" d="M159.26,172.94H50.12a4.56,4.56,0,0,1-4.54-4.55V22.87a4.55,4.55,0,1,0-9.1,0V168.39A13.66,13.66,0,0,0,50.12,182H159.26a4.55,4.55,0,1,0,0-9.09Z" transform="translate(-18.29 -0.13)"/><path class="cls-1" d="M141.07,191.13H31.93a4.56,4.56,0,0,1-4.54-4.55V41.06a4.55,4.55,0,1,0-9.1,0V186.58a13.66,13.66,0,0,0,13.64,13.64H141.07a4.55,4.55,0,1,0,0-9.09Z" transform="translate(-18.29 -0.13)"/><path class="cls-1" d="M177.45,41.06H150.17a4.55,4.55,0,0,1-4.55-4.54V22.87a4.55,4.55,0,0,0-9.1,0V36.51a13.66,13.66,0,0,0,13.65,13.64H172.9v100a4.55,4.55,0,0,1-4.54,4.55H68.31a4.57,4.57,0,0,1-4.55-4.55V13.78a4.56,4.56,0,0,1,4.55-4.55h75.63l30.55,26.19a4.55,4.55,0,0,0,5.92-6.9L148.58,1.23a4.54,4.54,0,0,0-3-1.1H68.31A13.66,13.66,0,0,0,54.67,13.78V150.2a13.66,13.66,0,0,0,13.64,13.64H168.36A13.66,13.66,0,0,0,182,150.2V45.61A4.55,4.55,0,0,0,177.45,41.06Z" transform="translate(-18.29 -0.13)"/><path class="cls-1" d="M82,72.89h36.38a4.55,4.55,0,1,0,0-9.09H82a4.55,4.55,0,0,0,0,9.09Z" transform="translate(-18.29 -0.13)"/><path class="cls-1" d="M145.62,86.53A4.54,4.54,0,0,0,141.07,82H109.24a4.55,4.55,0,1,0,0,9.09h31.83A4.55,4.55,0,0,0,145.62,86.53Z" transform="translate(-18.29 -0.13)"/><path class="cls-1" d="M113.79,118.37H82a4.55,4.55,0,0,0,0,9.09h31.84a4.55,4.55,0,0,0,0-9.09Z" transform="translate(-18.29 -0.13)"/><path class="cls-1" d="M154.71,63.8H136.52a4.55,4.55,0,0,0,0,9.09h18.19a4.55,4.55,0,1,0,0-9.09Z" transform="translate(-18.29 -0.13)"/><path class="cls-1" d="M113.79,100.18H82a4.55,4.55,0,0,0,0,9.09h31.84a4.55,4.55,0,0,0,0-9.09Z" transform="translate(-18.29 -0.13)"/><path class="cls-1" d="M82,91.08h9.1a4.55,4.55,0,1,0,0-9.09H82a4.55,4.55,0,0,0,0,9.09Z" transform="translate(-18.29 -0.13)"/><path class="cls-1" d="M132,109.27h22.73a4.55,4.55,0,1,0,0-9.09H132a4.55,4.55,0,1,0,0,9.09Z" transform="translate(-18.29 -0.13)"/></g></svg>