<svg xmlns="http://www.w3.org/2000/svg" xmlns:xlink="http://www.w3.org/1999/xlink" viewBox="0 0 34.05 33.73"><defs><style>.cls-1,.cls-3{fill:none;}.cls-2{clip-path:url(#clip-path);}.cls-3{stroke:#686868;}</style><clipPath id="clip-path" transform="translate(0 -0.2)"><rect class="cls-1" width="34.25" height="34.13"/></clipPath></defs><title>pcb-prod-bico5</title><g id="Layer_2" data-name="Layer 2"><g id="Capa_2" data-name="Capa 2"><g class="cls-2"><path class="cls-3" d="M32.58,30.22V19.56a7.38,7.38,0,0,0,0-.82c0-4.21-3-10.71-7.58-12.65.41-1.48.81-3,1.22-4.44.1-.36-.26-.73-.81-.79s-1,.2-1.08.57c.05-.37-.35-.71-.91-.73s-1,.28-1,.65c0-.37-.44-.67-1-.65s-1,.36-.9.73c-.05-.37-.54-.64-1.09-.57s-.91.43-.81.79L19.9,6.09C15.28,8,12.32,14.53,12.32,18.74a7.58,7.58,0,0,0,0,.83V30.22a1.21,1.21,0,0,0-1,1.19v.1a1.21,1.21,0,0,0,1.21,1.21H32.34a1.21,1.21,0,0,0,1.21-1.21v-.1A1.2,1.2,0,0,0,32.58,30.22Z" transform="translate(0 -0.2)"/><line class="cls-3" x1="18.84" y1="5.66" x2="25.98" y2="5.66"/><path class="cls-3" d="M22.47,23.49a5.85,5.85,0,1,1,5.85-5.85A5.85,5.85,0,0,1,22.47,23.49Z" transform="translate(0 -0.2)"/><path class="cls-3" d="M24.22,15.69v-.4A1.25,1.25,0,0,0,23,14H22a1.25,1.25,0,0,0-1.25,1.25v.85a1.26,1.26,0,0,0,.7,1l1.91.73" transform="translate(0 -0.2)"/><path class="cls-3" d="M20.72,19.36v.4A1.25,1.25,0,0,0,22,21h1a1.25,1.25,0,0,0,1.25-1.25v-.85a1.33,1.33,0,0,0-.73-1l-1.82-.7" transform="translate(0 -0.2)"/><line class="cls-3" x1="22.54" y1="12.13" x2="22.54" y2="14"/><line class="cls-3" x1="22.54" y1="20.51" x2="22.54" y2="22.73"/><line class="cls-3" x1="5.91" y1="18.53" x2="10.5" y2="18.53"/><line class="cls-3" x1="5.91" y1="21.09" x2="10.5" y2="21.09"/><line class="cls-3" x1="5.91" y1="23.66" x2="10.5" y2="23.66"/><line class="cls-3" x1="5.91" y1="26.22" x2="10.5" y2="26.22"/><line class="cls-3" x1="9.06" y1="28.79" x2="10.5" y2="28.79"/><line class="cls-3" y1="23.66" x2="4.59" y2="23.66"/><line class="cls-3" y1="26.22" x2="4.59" y2="26.22"/><line class="cls-3" y1="28.79" x2="2.84" y2="28.79"/><path class="cls-3" d="M9.14,30a3.47,3.47,0,1,1-3.47-3.47A3.47,3.47,0,0,1,9.14,30Z" transform="translate(0 -0.2)"/><line class="cls-3" x1="5.67" y1="31.36" x2="5.67" y2="28.16"/></g></g></g></svg>