<?xml version="1.0" standalone="no"?><!-- Generator: Gravit.io --><svg xmlns="http://www.w3.org/2000/svg" xmlns:xlink="http://www.w3.org/1999/xlink" style="isolation:isolate" viewBox="0 0 200 181" width="200" height="181"><defs><clipPath id="_clipPath_hOSga6kiq3xme5832JFAW361KlGAk7sB"><rect width="200" height="181"/></clipPath></defs><g clip-path="url(#_clipPath_hOSga6kiq3xme5832JFAW361KlGAk7sB)"><linearGradient id="_lgradient_10" x1="8.881784197001253e-18" y1="0.5011795284641658" x2="1" y2="0.5011795284641658" gradientTransform="matrix(180.004,0,0,77.543,9.996,33.221)" gradientUnits="userSpaceOnUse"><stop offset="0%" stop-opacity="1" style="stop-color:rgb(24,199,164)"/><stop offset="100%" stop-opacity="1" style="stop-color:rgb(21,171,141)"/></linearGradient><path d=" M 177.724 33.221 L 22.272 33.221 C 15.496 33.231 10.006 38.721 9.996 45.497 L 9.996 94.584 C 10.006 101.36 15.496 106.851 22.272 106.86 L 59.092 106.86 C 59.195 109.045 60.996 110.764 63.183 110.764 C 65.37 110.764 67.171 109.045 67.273 106.86 L 67.273 53.678 C 67.344 52.171 66.58 50.747 65.285 49.972 C 63.991 49.198 62.375 49.198 61.08 49.972 C 59.785 50.747 59.021 52.171 59.092 53.678 L 59.092 98.679 L 22.272 98.679 C 20.011 98.679 18.177 96.846 18.177 94.584 L 18.177 45.497 C 18.177 43.235 20.011 41.402 22.272 41.402 L 177.724 41.402 C 178.81 41.402 179.851 41.833 180.619 42.601 C 181.387 43.369 181.819 44.411 181.819 45.497 L 181.819 94.584 C 181.819 95.67 181.387 96.712 180.619 97.48 C 179.851 98.248 178.81 98.679 177.724 98.679 L 153.18 98.679 C 150.996 98.782 149.277 100.583 149.277 102.77 C 149.277 104.957 150.996 106.758 153.18 106.86 L 177.724 106.86 C 184.5 106.851 189.99 101.36 190 94.584 L 190 45.497 C 189.99 38.721 184.5 33.231 177.724 33.221 L 177.724 33.221 Z " fill="url(#_lgradient_10)"/><linearGradient id="_lgradient_11" x1="0" y1="0.5" x2="1" y2="0.5" gradientTransform="matrix(163.642,0,0,57.241,18.177,115.042)" gradientUnits="userSpaceOnUse"><stop offset="100%" stop-opacity="1" style="stop-color:rgb(24,199,164)"/><stop offset="100%" stop-opacity="1" style="stop-color:rgb(24,199,164)"/></linearGradient><path d=" M 177.724 115.042 C 175.467 115.042 173.638 116.871 173.638 119.128 L 173.638 160.043 C 173.633 162.301 171.801 164.129 169.543 164.129 L 30.453 164.129 C 28.195 164.129 26.363 162.301 26.358 160.043 L 26.358 119.101 C 26.256 116.916 24.455 115.198 22.268 115.198 C 20.081 115.198 18.28 116.916 18.177 119.101 L 18.177 160.016 C 18.187 166.79 23.679 172.278 30.453 172.283 L 169.543 172.283 C 176.317 172.278 181.809 166.79 181.819 160.016 L 181.819 119.101 C 181.799 116.853 179.971 115.042 177.724 115.042 L 177.724 115.042 Z " fill="url(#_lgradient_11)"/><linearGradient id="_lgradient_12" x1="0" y1="0.5" x2="1" y2="0.5" gradientTransform="matrix(65.449,0,0,20.421,67.273,8.677)" gradientUnits="userSpaceOnUse"><stop offset="100%" stop-opacity="1" style="stop-color:rgb(24,199,164)"/><stop offset="100%" stop-opacity="1" style="stop-color:rgb(24,199,164)"/></linearGradient><path d=" M 71.359 29.099 C 73.617 29.099 75.449 27.271 75.454 25.013 L 75.454 20.945 C 75.454 19.861 75.885 18.822 76.651 18.055 C 77.417 17.289 78.457 16.858 79.541 16.858 L 120.455 16.858 C 121.539 16.858 122.578 17.289 123.345 18.055 C 124.111 18.822 124.542 19.861 124.542 20.945 L 124.542 25.04 C 124.644 27.224 126.445 28.943 128.632 28.943 C 130.819 28.943 132.62 27.224 132.723 25.04 L 132.723 20.945 C 132.718 14.172 127.228 8.682 120.455 8.677 L 79.541 8.677 C 72.768 8.682 67.278 14.172 67.273 20.945 L 67.273 25.04 C 67.288 27.286 69.113 29.099 71.359 29.099 L 71.359 29.099 Z " fill="url(#_lgradient_12)"/><linearGradient id="_lgradient_13" x1="0" y1="0.5" x2="1" y2="0.5" gradientTransform="matrix(24.553,0,0,16.371,50.902,115.006)" gradientUnits="userSpaceOnUse"><stop offset="100%" stop-opacity="1" style="stop-color:rgb(24,199,164)"/><stop offset="100%" stop-opacity="1" style="stop-color:rgb(24,198,163)"/></linearGradient><path d=" M 75.454 119.101 C 75.352 116.916 73.551 115.198 71.364 115.198 C 69.177 115.198 67.376 116.916 67.273 119.101 C 67.344 120.608 66.58 122.032 65.285 122.807 C 63.991 123.581 62.375 123.581 61.08 122.807 C 59.785 122.032 59.021 120.608 59.092 119.101 C 59.092 116.839 57.259 115.006 54.997 115.006 C 52.735 115.006 50.902 116.839 50.902 119.101 C 50.902 125.881 56.398 131.377 63.178 131.377 C 69.958 131.377 75.454 125.881 75.454 119.101 L 75.454 119.101 Z " fill="url(#_lgradient_13)"/><linearGradient id="_lgradient_14" x1="0" y1="0.5" x2="1" y2="0.5" gradientTransform="matrix(65.267,0,0,61.18,75.637,49.583)" gradientUnits="userSpaceOnUse"><stop offset="100%" stop-opacity="1" style="stop-color:rgb(24,199,164)"/><stop offset="100%" stop-opacity="1" style="stop-color:rgb(24,199,164)"/></linearGradient><path d=" M 136.818 49.583 C 135.732 49.583 134.69 50.015 133.922 50.783 C 133.154 51.551 132.723 52.592 132.723 53.678 L 132.723 98.679 L 79.541 98.679 C 77.356 98.782 75.637 100.583 75.637 102.77 C 75.637 104.957 77.356 106.758 79.541 106.86 L 132.723 106.86 C 132.825 109.045 134.626 110.764 136.813 110.764 C 139 110.764 140.801 109.045 140.904 106.86 L 140.904 53.678 C 140.906 52.593 140.477 51.551 139.71 50.783 C 138.944 50.015 137.903 49.583 136.818 49.583 L 136.818 49.583 Z " fill="url(#_lgradient_14)"/><linearGradient id="_lgradient_15" x1="0" y1="0.5" x2="1" y2="0.5" gradientTransform="matrix(24.553,0,0,16.371,124.542,115.033)" gradientUnits="userSpaceOnUse"><stop offset="100%" stop-opacity="1" style="stop-color:rgb(24,199,164)"/><stop offset="100%" stop-opacity="1" style="stop-color:rgb(24,198,163)"/></linearGradient><path d=" M 136.818 123.223 C 135.732 123.223 134.69 122.791 133.922 122.023 C 133.154 121.255 132.723 120.214 132.723 119.128 C 132.62 116.943 130.819 115.225 128.632 115.225 C 126.445 115.225 124.644 116.943 124.542 119.128 C 124.542 125.908 130.038 131.404 136.818 131.404 C 143.598 131.404 149.094 125.908 149.094 119.128 C 149.094 116.866 147.261 115.033 144.999 115.033 C 142.737 115.033 140.904 116.866 140.904 119.128 C 140.904 121.386 139.076 123.218 136.818 123.223 L 136.818 123.223 Z " fill="url(#_lgradient_15)"/></g></svg>