<svg id="Layer_1" data-name="Layer 1" xmlns="http://www.w3.org/2000/svg" viewBox="0 0 293.84 70.93"><defs><style>.cls-1{fill:#5b296e;}.cls-2{fill:#919aa2;}.cls-3,.cls-4{fill:#fff;}.cls-3{opacity:0.2;}</style></defs><title>punto-trader-logo</title><g id="A9l7km"><path class="cls-1" d="M100.67,71.27a2.23,2.23,0,0,1-2-1,3.4,3.4,0,0,1-.61-2V62.46H96.34V61.13H98.1v-2h1.78v2h2.9v1.35l-2.9,0v6c0,.9.43,1.35,1.29,1.33a3,3,0,0,0,1.76-.9l.86,1.1A4.18,4.18,0,0,1,100.67,71.27Z" transform="translate(-0.03 -0.49)"/><path class="cls-1" d="M111.24,62.86a2.26,2.26,0,0,0-1.21-.24,2.36,2.36,0,0,0-1.46.79c-.56.52-.85,1-.85,1.31v6.39H106v-10h1.75V62.8a3.59,3.59,0,0,1,2.8-1.87,4.62,4.62,0,0,1,1.27.32Z" transform="translate(-0.03 -0.49)"/><path class="cls-1" d="M121.88,71.32a1.51,1.51,0,0,1-1.4-1,6.28,6.28,0,0,1-1.17.67,6.12,6.12,0,0,1-2.26.39,3.16,3.16,0,0,1-2.27-.8,2.75,2.75,0,0,1-.84-2.07A2.61,2.61,0,0,1,115,66.2a8.88,8.88,0,0,1,2.73-.89,24.12,24.12,0,0,1,2.44-.29V63.74a1.29,1.29,0,0,0-.58-1.09,2.22,2.22,0,0,0-1.33-.42,5.46,5.46,0,0,0-3,1.3l-.93-1.12a7.71,7.71,0,0,1,1.85-1.06,5.19,5.19,0,0,1,2.09-.54,4,4,0,0,1,2.62.87,2.75,2.75,0,0,1,1,2.24V69.6a.49.49,0,0,0,.46.41,2.18,2.18,0,0,0,.95-.43l.35,1A2.58,2.58,0,0,1,121.88,71.32Zm-1.67-4.91a9.87,9.87,0,0,0-1.71.2c-.41.07-.85.15-1.3.25-1.09.25-1.63.82-1.63,1.71a1.54,1.54,0,0,0,.46,1.16,1.81,1.81,0,0,0,1.28.44,4.06,4.06,0,0,0,1.78-.44c.73-.34,1.11-.76,1.12-1.27Z" transform="translate(-0.03 -0.49)"/><path class="cls-1" d="M134.94,71.11h-1.49l-.27-.85a6.25,6.25,0,0,1-3.12,1.1,3.89,3.89,0,0,1-3.32-1.71,5.75,5.75,0,0,1-1.06-3.43,5.91,5.91,0,0,1,1.13-3.72,4.41,4.41,0,0,1,3.71-1.69A3.49,3.49,0,0,1,133.18,62V57.08h1.76Zm-1.76-7.64a2.81,2.81,0,0,0-2.75-1.28,2.29,2.29,0,0,0-2.19,1.32,5,5,0,0,0-.55,2.49,4.82,4.82,0,0,0,.63,2.55,2.52,2.52,0,0,0,2.31,1.34,4.1,4.1,0,0,0,2.55-.92Z" transform="translate(-0.03 -0.49)"/><path class="cls-1" d="M139.93,65.94c0,2,.63,3.24,1.89,3.73a4.39,4.39,0,0,0,1.56.32,4.91,4.91,0,0,0,3-1.3l.9,1.12a6.05,6.05,0,0,1-4,1.53,4.77,4.77,0,0,1-4.36-2,5.84,5.84,0,0,1-.83-3.16,4.92,4.92,0,0,1,5.3-5.23A4.08,4.08,0,0,1,146.26,62a3.61,3.61,0,0,1,1.1,2.73v1.24Zm5.65-1.51c0-1.47-.81-2.2-2.44-2.2a3,3,0,0,0-2,.6,3.74,3.74,0,0,0-1,1.84h5.5Z" transform="translate(-0.03 -0.49)"/><path class="cls-1" d="M155.67,62.86a2.26,2.26,0,0,0-1.21-.24,2.36,2.36,0,0,0-1.46.79c-.56.52-.85,1-.85,1.31v6.39H150.4v-10h1.75V62.8a3.59,3.59,0,0,1,2.8-1.87,4.62,4.62,0,0,1,1.27.32Z" transform="translate(-0.03 -0.49)"/><path class="cls-1" d="M69.87,35.41A34.92,34.92,0,1,1,35,.49,34.91,34.91,0,0,1,69.87,35.41Z" transform="translate(-0.03 -0.49)"/><path class="cls-1" d="M287.83,18.66l-.05-.05a20.46,20.46,0,0,0-14.81-6,21,21,0,0,0-14.89,6.12,20.36,20.36,0,0,0-6.15,14.55,21,21,0,1,0,41.94,0A21.4,21.4,0,0,0,287.83,18.66ZM273,46.56a12.74,12.74,0,0,1-9.23-3.9,13.43,13.43,0,0,1-3.77-9.4,13.14,13.14,0,0,1,3.76-9.1,12.88,12.88,0,0,1,9.24-3.9,11.75,11.75,0,0,1,9.15,4l.11.11a12.86,12.86,0,0,1,4,8.93,13.27,13.27,0,0,1-3.92,9.38A13.08,13.08,0,0,1,273,46.56Z" transform="translate(-0.03 -0.49)"/><path class="cls-2" d="M100.47,12.46a21.45,21.45,0,0,0-14.94,6A21.2,21.2,0,0,0,79,33.21V66.58a4.06,4.06,0,0,0,4,4,3.91,3.91,0,0,0,4-4V50.23A20.93,20.93,0,0,0,100.47,55,21.48,21.48,0,0,0,122,33.57a21.55,21.55,0,0,0-6.49-14.95C111.76,14.59,106.57,12.46,100.47,12.46Zm0,34.61A13.68,13.68,0,0,1,87,33.57a13.56,13.56,0,0,1,13.49-13.26,13.23,13.23,0,0,1,13.19,13.26A13.36,13.36,0,0,1,100.47,47.07Z" transform="translate(-0.03 -0.49)"/><path class="cls-2" d="M164.85,12.57a3.83,3.83,0,0,0-4,3.94l-.31,16.66v0c0,7.36-5.76,12.61-13.11,12.61s-13.11-5.25-13.11-12.61V16.84a4.18,4.18,0,0,0-4.27-4,4.12,4.12,0,0,0-4,4V33.2a20.74,20.74,0,0,0,6.25,15,21.79,21.79,0,0,0,30.18,0,20.74,20.74,0,0,0,6.25-15V16.53A4.06,4.06,0,0,0,164.85,12.57Z" transform="translate(-0.03 -0.49)"/><path class="cls-2" d="M211.93,54.23a3.83,3.83,0,0,1-4-3.94l-.31-16.66v0c0-7.35-5.76-12.6-13.11-12.6s-13.11,5.25-13.11,12.6V50a4.17,4.17,0,0,1-4.27,4,4.12,4.12,0,0,1-4-4V33.6a20.72,20.72,0,0,1,6.26-15,21.78,21.78,0,0,1,30.17,0,20.75,20.75,0,0,1,6.25,15V50.28A4.06,4.06,0,0,1,211.93,54.23Z" transform="translate(-0.03 -0.49)"/><path class="cls-2" d="M246.78,46h-5.15C236,46,229,42.26,228.77,31.84V20.76h17.55a3.83,3.83,0,0,0,4-3.88,3.94,3.94,0,0,0-4-4.27H228.77V7a3.84,3.84,0,0,0-3.89-4,3.94,3.94,0,0,0-4.27,4V34.05h0a19,19,0,0,0,6,13.94,20.77,20.77,0,0,0,15,6.25h5.15a4.11,4.11,0,0,0,4-3.95A4.18,4.18,0,0,0,246.78,46Z" transform="translate(-0.03 -0.49)"/><path class="cls-3" d="M63.77,34.83H50.23V15.62H63.71c-.27-.39-.54-.78-.83-1.16H50.23V4c-.38-.19-.77-.37-1.16-.54v11H35.53V.51L35,.49l-.58,0v14H20.84v-11c-.4.17-.78.35-1.17.54V14.46H7c-.29.38-.56.77-.83,1.16H19.67V34.83H6.14V15.69c-.41.59-.79,1.19-1.16,1.81V34.83H.05c0,.19,0,.38,0,.58s0,.38,0,.58H5V53.32c.37.61.75,1.22,1.16,1.81V36H19.67v19.4H6.33c.27.39.55.78.84,1.16h12.5V66.81c.39.18.77.36,1.17.53V56.55H34.37V70.31h1.16V56.55H49.07V67.34l1.16-.53V56.55h12.5c.29-.38.57-.77.85-1.16H50.23V36H63.77V55.12c.4-.59.79-1.19,1.16-1.81V36h4.92c0-.2,0-.39,0-.58s0-.39,0-.58H64.93V17.5c-.37-.62-.76-1.22-1.16-1.81ZM34.37,55.39H20.84V36H34.37Zm0-20.56H20.84V15.62H34.37Zm14.7,20.56H35.53V36H49.07Zm0-20.56H35.53V15.62H49.07Z" transform="translate(-0.03 -0.49)"/><path class="cls-4" d="M20.3,39.07a3.94,3.94,0,0,0,.77-.08l9.74,14.08a4.47,4.47,0,0,0-.68,2.36,4.69,4.69,0,1,0,9.37,0,4.31,4.31,0,0,0-.33-1.66l9.56-15.63c.21,0,.43,0,.64,0a6,6,0,0,0,6-6,5.61,5.61,0,0,0-.41-2.1l12.09-8.31c-.31-.73-.64-1.45-1-2.16L53.72,28.05,53.64,28h0a5.86,5.86,0,0,0-4.25-1.73A6.06,6.06,0,0,0,45.1,28a5.83,5.83,0,0,0-1.77,4.17,6,6,0,0,0,2.87,5.12L37.45,51.59a4.64,4.64,0,0,0-2.62-.78,4.74,4.74,0,0,0-2.31.61L23.16,37.9a4.15,4.15,0,0,0,1.27-3A4.26,4.26,0,0,0,23.23,32h0a4.06,4.06,0,0,0-2.93-1.19A4.18,4.18,0,0,0,17.35,32a4,4,0,0,0-1,4.22l-14.61,10c.26.76.53,1.52.84,2.26L17.72,38.17A4.13,4.13,0,0,0,20.3,39.07Zm25.35-6.92a3.78,3.78,0,0,1,1.07-2.61,3.7,3.7,0,0,1,2.65-1.12A3.4,3.4,0,0,1,52,29.56l0,0a3.7,3.7,0,0,1,1.14,2.56A3.84,3.84,0,0,1,49.37,36a3.68,3.68,0,0,1-2.65-1.12A3.88,3.88,0,0,1,45.65,32.15ZM32.77,53.4a2.88,2.88,0,0,1,2.06-.88,2.65,2.65,0,0,1,2.05.89l0,0a2.84,2.84,0,0,1,.89,2,3,3,0,0,1-3,3,2.87,2.87,0,0,1-2.06-.87,3,3,0,0,1-.84-2.1A2.93,2.93,0,0,1,32.77,53.4ZM18.47,33.12a2.54,2.54,0,0,1,1.83-.77,2.33,2.33,0,0,1,1.81.78l0,0a2.54,2.54,0,0,1,.78,1.77,2.65,2.65,0,0,1-2.61,2.63,2.55,2.55,0,0,1-1.83-.77,2.67,2.67,0,0,1-.74-1.86A2.6,2.6,0,0,1,18.47,33.12Z" transform="translate(-0.03 -0.49)"/></g></svg>