<?xml version="1.0" encoding="utf-8"?>
<!-- Generator: Adobe Illustrator 23.0.1, SVG Export Plug-In . SVG Version: 6.00 Build 0)  -->
<svg version="1.1" id="Capa_1" xmlns="http://www.w3.org/2000/svg" xmlns:xlink="http://www.w3.org/1999/xlink" x="0px" y="0px"
	 viewBox="0 0 477 476.99" style="enable-background:new 0 0 477 476.99;" xml:space="preserve">
<style type="text/css">
	.st0{fill:#0C88C5;}
</style>
<g>
	<g>
		<path class="st0" d="M238.49,34.42c112.71,0,204.07,91.37,204.07,204.07S351.2,442.57,238.49,442.57S34.42,351.2,34.42,238.5
			S125.78,34.42,238.49,34.42 M238.49,0c-32.18,0-63.42,6.31-92.84,18.76c-28.4,12.01-53.91,29.21-75.8,51.1s-39.08,47.39-51.1,75.8
			C6.31,175.07,0,206.31,0,238.49s6.31,63.42,18.76,92.84c12.01,28.4,29.21,53.91,51.1,75.8c21.89,21.89,47.39,39.08,75.8,51.1
			c29.42,12.45,60.66,18.76,92.84,18.76s63.42-6.31,92.84-18.76c28.4-12.01,53.91-29.21,75.8-51.1s39.08-47.39,51.1-75.8
			c12.45-29.42,18.76-60.66,18.76-92.84s-6.31-63.42-18.76-92.84c-12.01-28.4-29.21-53.91-51.1-75.8s-47.39-39.08-75.8-51.1
			C301.91,6.31,270.67,0,238.49,0L238.49,0z"/>
	</g>
	<path class="st0" d="M365.07,272.66l-116.25-27.17V89.08c0-9.5-7.7-17.21-17.21-17.21c-9.5,0-17.21,7.7-17.21,17.21v170.06
		c0,0.16,0.02,0.31,0.02,0.46c0.01,0.37,0.02,0.73,0.06,1.1c0.02,0.23,0.05,0.45,0.08,0.68c0.04,0.33,0.09,0.66,0.15,0.98
		c0.05,0.26,0.11,0.52,0.17,0.78c0.07,0.27,0.13,0.55,0.21,0.82c0.08,0.29,0.18,0.58,0.28,0.86c0.08,0.23,0.16,0.47,0.25,0.69
		c0.12,0.3,0.25,0.59,0.38,0.88c0.1,0.21,0.2,0.42,0.3,0.63c0.15,0.28,0.3,0.56,0.46,0.83c0.12,0.21,0.25,0.42,0.38,0.62
		c0.16,0.25,0.33,0.49,0.5,0.73c0.16,0.22,0.31,0.43,0.48,0.64c0.17,0.21,0.34,0.41,0.52,0.62c0.19,0.22,0.39,0.44,0.59,0.65
		c0.17,0.18,0.35,0.34,0.52,0.51c0.23,0.22,0.46,0.43,0.69,0.63c0.18,0.15,0.37,0.3,0.55,0.45c0.25,0.19,0.5,0.38,0.76,0.57
		c0.2,0.14,0.42,0.28,0.63,0.41c0.25,0.16,0.5,0.32,0.76,0.46c0.25,0.14,0.5,0.27,0.76,0.39c0.24,0.12,0.47,0.24,0.71,0.34
		c0.3,0.14,0.62,0.25,0.93,0.37c0.21,0.08,0.42,0.16,0.63,0.23c0.35,0.12,0.71,0.21,1.07,0.31c0.15,0.04,0.28,0.09,0.43,0.12
		l129.54,30.28c1.32,0.31,2.63,0.46,3.93,0.46c7.81,0,14.89-5.36,16.74-13.3C380.07,284.08,374.32,274.83,365.07,272.66z"/>
</g>
</svg>
