<?xml version="1.0" standalone="no"?>
<!DOCTYPE svg PUBLIC "-//W3C//DTD SVG 1.1//EN" "http://www.w3.org/Graphics/SVG/1.1/DTD/svg11.dtd" >
<svg xmlns="http://www.w3.org/2000/svg" xmlns:xlink="http://www.w3.org/1999/xlink" version="1.1">
<metadata>
Created by FontForge 20170731 at Mon Jul  8 20:23:31 2013
 By Aleksey,,,
(c) koeiekat. 2013. All Rights Reserved
</metadata>
<defs>
<font id="GoticaModernaKK" horiz-adv-x="489" >
  <font-face 
    font-family="Gotica Moderna KK"
    font-weight="700"
    font-style="italic"
    font-stretch="condensed"
    units-per-em="2048"
    panose-1="2 0 5 0 0 0 0 0 0 0"
    ascent="1638"
    descent="-410"
    x-height="1434"
    cap-height="1434"
    bbox="-71 -350 1469 1688"
    underline-thickness="70"
    underline-position="-385"
    slope="4"
    unicode-range="U+0020-FB06"
  />
<missing-glyph horiz-adv-x="894" 
d="M763 1390h-632v-1346h632v1346zM87 1434h720v-1434h-720v1434z" />
    <glyph glyph-name=".notdef" horiz-adv-x="894" 
d="M763 1390h-632v-1346h632v1346zM87 1434h720v-1434h-720v1434z" />
    <glyph glyph-name=".null" horiz-adv-x="0" 
 />
    <glyph glyph-name="nonmarkingreturn" horiz-adv-x="444" 
 />
    <glyph glyph-name="space" unicode=" " horiz-adv-x="444" 
 />
    <glyph glyph-name="space" unicode="&#xa0;" horiz-adv-x="444" 
 />
    <glyph glyph-name="exclam" unicode="!" horiz-adv-x="274" 
d="M198 245h-174v1189h174v-1189zM222 92q0 -45 -32.5 -77t-78.5 -32t-78.5 32t-32.5 77q0 46 32.5 78.5t78.5 32.5q45 0 78 -32.5t33 -78.5z" />
    <glyph glyph-name="quotedbl" unicode="&#x22;" horiz-adv-x="511" 
d="M476 1321q0 -48 -102 -194l-127 66q18 39 25 67q-21 34 -21 61q0 44 34 78.5t78 34.5t78.5 -34.5t34.5 -78.5zM236 1321q0 -48 -101 -194l-128 66q17 39 25 67q-22 34 -22 61q0 44 34.5 78.5t78.5 34.5q45 0 79 -34.5t34 -78.5z" />
    <glyph glyph-name="numbersign" unicode="#" horiz-adv-x="865" 
d="M281 0l-106 486v-486h-175v1434h165l107 -491v491h175v-1434h-166zM697 1321q0 12 -8.5 19.5t-20.5 7.5t-20.5 -7.5t-8.5 -19.5v-619q0 -11 8.5 -18.5t20.5 -7.5t20.5 7.5t8.5 18.5v619zM524 1321q0 55 42 93t102 38q59 0 101.5 -38t42.5 -93v-619q0 -55 -42.5 -93
t-101.5 -38q-60 0 -102 38t-42 93v619zM790 484h-244v44h244v-44z" />
    <glyph glyph-name="dollar" unicode="$" 
d="M306 1v-175h-175v175q-37 15 -67 46q-64 64 -64 155v179h175v-179q0 -19 12.5 -31.5t30.5 -12.5q19 0 31.5 12.5t12.5 31.5v276q0 19 -12.5 31.5t-31.5 12.5q-90 0 -154 64t-64 154v494q0 90 64 154q30 31 67 47v174h175v-174q36 -17 67 -47q64 -64 64 -154v-180h-175
v180q0 18 -12.5 30.5t-31.5 12.5q-18 0 -30.5 -12.5t-12.5 -30.5v-494q0 -18 12.5 -30.5t30.5 -12.5q90 0 154.5 -64.5t64.5 -154.5v-276q0 -91 -64 -155q-31 -31 -67 -46z" />
    <glyph glyph-name="percent" unicode="%" horiz-adv-x="865" 
d="M173 1321q0 11 -8.5 18.5t-20.5 7.5t-20.5 -7.5t-8.5 -18.5v-619q0 -12 8.5 -19t20.5 -7t20.5 7t8.5 19v619zM0 1321q0 54 42 92.5t102 38.5q59 0 101.5 -38.5t42.5 -92.5v-619q0 -55 -42.5 -93t-101.5 -38q-60 0 -102 38t-42 93v619zM697 733q0 12 -8.5 19t-20.5 7
t-20.5 -7t-8.5 -19v-619q0 -11 8.5 -18.5t20.5 -7.5t20.5 7.5t8.5 18.5v619zM524 733q0 54 42 92.5t102 38.5q59 0 101.5 -38.5t42.5 -92.5v-619q0 -55 -42.5 -93t-101.5 -38q-60 0 -102 38t-42 93v619zM464 1434v-1434h-116v1434h116z" />
    <glyph glyph-name="ampersand" unicode="&#x26;" horiz-adv-x="526" 
d="M491 484v-174h-54v-109q0 -90 -64.5 -154t-154.5 -64t-154 64t-64 154v385q0 75 44 131q-44 56 -44 131v386q0 90 64 154t154 64t154.5 -64t64.5 -154v-180h-175v180q0 18 -12.5 30.5t-31.5 12.5q-18 0 -30.5 -12.5t-12.5 -30.5v-386q0 -18 12.5 -30.5t30.5 -12.5h152
v-175h-152q-18 0 -30.5 -12.5t-12.5 -31.5v-385q0 -18 12.5 -30.5t30.5 -12.5q19 0 31.5 12.5t12.5 30.5v109h-52v174h281z" />
    <glyph glyph-name="quotesingle" unicode="'" horiz-adv-x="286" 
d="M251 1321q0 -48 -102 -194l-127 66q17 39 24 67q-21 34 -21 61q0 44 34.5 78.5t78.5 34.5t78.5 -34.5t34.5 -78.5z" />
    <glyph glyph-name="parenleft" unicode="(" horiz-adv-x="336" 
d="M179 717q1 -258 146 -717h-184q-41 132 -70 251q-70 283 -71 466q1 183 71 466q29 119 70 251h184q-145 -459 -146 -717z" />
    <glyph glyph-name="parenright" unicode=")" horiz-adv-x="342" 
d="M-35 1434h183q41 -132 71 -251q70 -283 71 -466q-1 -183 -71 -466q-30 -119 -71 -251h-183q145 459 146 717q-1 258 -146 717z" />
    <glyph glyph-name="asterisk" unicode="*" horiz-adv-x="651" 
d="M616 955l-90 -154l-129 73v-148h-179v148l-128 -73l-90 154l129 75l-129 75l90 154l128 -74v149h179v-149l129 74l90 -154l-130 -75z" />
    <glyph glyph-name="plus" unicode="+" horiz-adv-x="631" 
d="M376 805h202v-174h-202v-202h-174v202h-202v174h202v202h174v-202z" />
    <glyph glyph-name="comma" unicode="," horiz-adv-x="279" 
d="M244 107q0 -47 -102 -193l-128 66q17 39 25 66q-22 34 -22 61q0 45 34.5 79t79.5 34q44 0 78.5 -34t34.5 -79z" />
    <glyph glyph-name="hyphen" unicode="-" horiz-adv-x="467" 
d="M415 631h-415v175h415v-175z" />
    <glyph glyph-name="hyphen" unicode="&#xad;" horiz-adv-x="467" 
d="M415 631h-415v175h415v-175z" />
    <glyph glyph-name="period" unicode="." horiz-adv-x="292" 
d="M257 108q0 -45 -34 -79t-78 -34q-45 0 -79 34t-34 79q0 44 34 78t79 34q44 0 78 -34t34 -78z" />
    <glyph glyph-name="slash" unicode="/" horiz-adv-x="780" 
d="M780 1527l-611 -1680l-169 60l611 1681z" />
    <glyph glyph-name="zero" unicode="0" 
d="M0 1234q0 90 64 154t154 64t154.5 -64t64.5 -154v-1033q0 -90 -64.5 -154t-154.5 -64t-154 64t-64 154v1033zM262 1234q0 18 -12.5 30.5t-31.5 12.5q-18 0 -30.5 -12.5t-12.5 -30.5v-1033q0 -18 12.5 -30.5t30.5 -12.5q19 0 31.5 12.5t12.5 30.5v1033z" />
    <glyph glyph-name="one" unicode="1" 
d="M437 0h-175v1306l175 128v-1434z" />
    <glyph glyph-name="two" unicode="2" 
d="M175 175h262v-175h-437v407q0 90 64 154t154 64q19 0 31.5 13t12.5 31v565q0 18 -12.5 31t-31.5 13q-18 0 -30.5 -13t-12.5 -31v-180h-175v180q0 90 64 154t154 64t154.5 -64t64.5 -154v-565q0 -91 -64.5 -154.5t-154.5 -63.5q-18 0 -30.5 -13t-12.5 -31v-232z" />
    <glyph glyph-name="three" unicode="3" 
d="M175 1234v-180h-175v180q0 90 64 154t154 64t154.5 -64t64.5 -154v-207q0 -75 -44 -131q44 -56 44 -131v-564q0 -90 -64.5 -154t-154.5 -64t-154 64t-64 154v180h175v-180q0 -18 12.5 -30.5t30.5 -12.5q19 0 31.5 12.5t12.5 30.5v564q0 19 -12.5 31.5t-31.5 12.5h-43v175
h43q19 0 31.5 12.5t12.5 30.5v207q0 18 -12.5 30.5t-31.5 12.5q-18 0 -30.5 -12.5t-12.5 -30.5z" />
    <glyph glyph-name="four" unicode="4" 
d="M262 550v428l-75 -428h75zM437 1434v-884h87l-87 -166v-384h-175v384h-262v115l165 935h272z" />
    <glyph glyph-name="five" unicode="5" 
d="M437 1434v-174h-262v-276h43q90 0 154.5 -64t64.5 -155v-564q0 -90 -64.5 -154t-154.5 -64t-154 64t-64 154v180h175v-180q0 -18 12.5 -30.5t30.5 -12.5q19 0 31.5 12.5t12.5 30.5v564q0 19 -12.5 31.5t-31.5 12.5h-218v625h437z" />
    <glyph glyph-name="six" unicode="6" 
d="M437 1234v-180h-175v180q0 18 -12.5 30.5t-31.5 12.5q-18 0 -30.5 -12.5t-12.5 -30.5v-255q21 5 43 5q90 0 154.5 -64.5t64.5 -154.5v-564q0 -90 -64.5 -154t-154.5 -64t-154 64t-64 154v1033q0 90 64 154t154 64t154.5 -64t64.5 -154zM175 201q0 -18 12.5 -30.5
t30.5 -12.5q19 0 31.5 12.5t12.5 30.5v564q0 19 -12.5 31.5t-31.5 12.5q-18 0 -30.5 -12.5t-12.5 -31.5v-564z" />
    <glyph glyph-name="seven" unicode="7" 
d="M437 1434l-254 -1434h-177l223 1259h-179v175h387z" />
    <glyph glyph-name="eight" unicode="8" 
d="M0 1234q0 90 64 154t154 64t154.5 -64t64.5 -154v-207q0 -75 -44 -131q44 -56 44 -131v-564q0 -90 -64.5 -154t-154.5 -64t-154 64t-64 154v564q0 75 44 131q-44 56 -44 131v207zM175 201q0 -18 12.5 -30.5t30.5 -12.5q19 0 31.5 12.5t12.5 30.5v564q0 19 -12.5 31.5
t-31.5 12.5q-18 0 -30.5 -12.5t-12.5 -31.5v-564zM262 1234q0 18 -12.5 30.5t-31.5 12.5q-18 0 -30.5 -12.5t-12.5 -30.5v-207q0 -18 12.5 -30.5t30.5 -12.5q19 0 31.5 12.5t12.5 30.5v207z" />
    <glyph glyph-name="nine" unicode="9" 
d="M0 201v180h175v-180q0 -18 12.5 -30.5t30.5 -12.5q19 0 31.5 12.5t12.5 30.5v254q-21 -4 -44 -4q-90 0 -154 64t-64 154v565q0 90 64 154t154 64q91 0 155 -64t64 -154v-1033q0 -90 -64 -154t-155 -64q-90 0 -154 64t-64 154zM262 1234q0 18 -12.5 30.5t-31.5 12.5
q-18 0 -30.5 -12.5t-12.5 -30.5v-565q0 -18 12.5 -30.5t30.5 -12.5q19 0 31.5 12.5t12.5 30.5v565z" />
    <glyph glyph-name="colon" unicode=":" horiz-adv-x="276" 
d="M241 425q0 -45 -34 -79t-78 -34t-78.5 34t-34.5 79q0 44 34.5 78t78.5 34t78 -34t34 -78zM241 108q0 -44 -34 -78.5t-78 -34.5t-78.5 34.5t-34.5 78.5t34.5 78t78.5 34t78 -34t34 -78z" />
    <glyph glyph-name="semicolon" unicode=";" horiz-adv-x="284" 
d="M249 425q0 -45 -34.5 -79t-78.5 -34t-78.5 34t-34.5 79q0 44 34.5 78t78.5 34t78.5 -34t34.5 -78zM249 97q0 -47 -102 -193l-127 66q17 39 24 66q-21 34 -21 61q0 45 34.5 79t78.5 34t78.5 -34t34.5 -79z" />
    <glyph glyph-name="semicolon" unicode="&#x37e;" horiz-adv-x="284" 
d="M249 425q0 -45 -34.5 -79t-78.5 -34t-78.5 34t-34.5 79q0 44 34.5 78t78.5 34t78.5 -34t34.5 -78zM249 97q0 -47 -102 -193l-127 66q17 39 24 66q-21 34 -21 61q0 45 34.5 79t78.5 34t78.5 -34t34.5 -79z" />
    <glyph glyph-name="less" unicode="&#x3c;" horiz-adv-x="339" 
d="M304 360h-178l-126 357l126 358h178l-125 -358z" />
    <glyph glyph-name="equal" unicode="=" horiz-adv-x="623" 
d="M570 773h-570v163h570v-163zM570 501h-570v163h570v-163z" />
    <glyph glyph-name="greater" unicode="&#x3e;" horiz-adv-x="339" 
d="M125 717l-125 358h178l126 -358l-126 -357h-178z" />
    <glyph glyph-name="question" unicode="?" 
d="M324 96q0 -45 -34.5 -79t-78.5 -34t-78 34t-34 79q0 44 34 78t78 34t78.5 -34t34.5 -78zM175 1234v-180h-175v180q0 90 64 154t154 64t154.5 -64t64.5 -154v-694q0 -91 -64 -154q-34 -34 -74 -49v-92h-175v252h94q19 0 31.5 12.5t12.5 30.5v694q0 18 -12.5 30.5
t-31.5 12.5q-18 0 -30.5 -12.5t-12.5 -30.5z" />
    <glyph glyph-name="at" unicode="@" horiz-adv-x="973" 
d="M505 962q0 19 -13 31.5t-31 12.5t-31 -12.5t-13 -31.5v-161h88v161zM679 425h32q36 0 36 35v764q0 35 -36 35h-501q-35 0 -35 -35v-1014q0 -35 35 -35h711v-175h-706q-88 0 -152 63q-63 64 -63 152v1005q0 88 63 151q64 63 152 63h492q88 0 151 -63t63 -151v-754
q0 -89 -63 -151q-63 -63 -151 -63h-202v374h-88v-374h-174v710q0 91 63.5 155t154.5 64q90 0 154 -64t64 -155v-537z" />
    <glyph glyph-name="A" unicode="A" horiz-adv-x="527" 
d="M247 717l-51 -410h101zM175 133l-16 -133h-176l176 1434h175l176 -1434h-176l-17 133h-142z" />
    <glyph glyph-name="B" unicode="B" horiz-adv-x="541" 
d="M227 521v-325h44q18 0 30.5 13t12.5 31v238q0 18 -12.5 30.5t-30.5 12.5h-44zM314 1216q0 18 -12.5 30.5t-30.5 12.5h-44v-563h44q18 0 30.5 12.5t12.5 31.5v476zM52 1434h219q90 0 154 -64t64 -154v-498q0 -60 -29 -109q29 -49 29 -109v-282q0 -90 -64 -154t-155 -64
h-218v521l-87 175h87v738z" />
    <glyph glyph-name="C" unicode="C" 
d="M437 1234v-332h-175v332q0 18 -12.5 30.5t-31.5 12.5q-18 0 -30.5 -12.5t-12.5 -30.5v-1033q0 -18 12.5 -30.5t30.5 -12.5q19 0 31.5 12.5t12.5 30.5v180h175v-180q0 -90 -64.5 -154t-154.5 -64t-154 64t-64 154v1033q0 90 64 154t154 64t154.5 -64t64.5 -154z" />
    <glyph glyph-name="D" unicode="D" 
d="M262 1216q0 18 -12.5 30.5t-31.5 12.5h-43v-1063h43q19 0 31.5 13t12.5 31v976zM0 1434h218q91 0 155 -64t64 -154v-998q0 -90 -64 -154t-156 -64h-217v1434z" />
    <glyph glyph-name="E" unicode="E" horiz-adv-x="527" 
d="M475 0h-423v521l-87 175h87v738h423v-175h-248v-563h248v-175h-248v-346h248v-175z" />
    <glyph glyph-name="F" unicode="F" horiz-adv-x="527" 
d="M227 0h-175v521l-87 175h87v738h423v-175h-248v-563h248v-175h-248v-521z" />
    <glyph glyph-name="G" unicode="G" 
d="M437 1234v-332h-175v332q0 18 -12.5 30.5t-31.5 12.5q-18 0 -30.5 -12.5t-12.5 -30.5v-1033q0 -18 12.5 -30.5t30.5 -12.5q19 0 31.5 12.5t12.5 30.5v321h-52v175h227v-496q0 -90 -64.5 -154t-154.5 -64t-154 64t-64 154v1033q0 90 64 154t154 64t154.5 -64t64.5 -154z
" />
    <glyph glyph-name="H" unicode="H" horiz-adv-x="541" 
d="M52 696v738h175v-738h87v738h175v-1434h-175v521h-87v-521h-175v521l-87 175h87z" />
    <glyph glyph-name="I" unicode="I" horiz-adv-x="227" 
d="M175 1434v-1434h-175v1434h175z" />
    <glyph glyph-name="J" unicode="J" 
d="M262 201v1233h175v-1233q0 -90 -64 -154t-155 -64q-90 0 -154 64t-64 154v180h175v-180q0 -18 12.5 -30.5t30.5 -12.5q19 0 31.5 12.5t12.5 30.5z" />
    <glyph glyph-name="K" unicode="K" horiz-adv-x="541" 
d="M52 696v738h175v-738h44q18 0 30.5 12.5t12.5 31.5v694h175v-716q0 -60 -29 -109q29 -49 29 -109v-509q0 -18 12.5 -30.5t31.5 -12.5h52v-175h-52q-91 0 -155 64t-64 154v487q0 18 -12.5 30.5t-30.5 12.5h-44v-521h-175v521l-87 175h87z" />
    <glyph glyph-name="L" unicode="L" horiz-adv-x="458" 
d="M423 0h-423v1434h175v-1259h248v-175z" />
    <glyph glyph-name="M" unicode="M" horiz-adv-x="791" 
d="M739 1434v-1434h-175v597l-126 -597h-136l-127 601v-601h-175v1434h175l194 -917l195 917h175z" />
    <glyph glyph-name="N" unicode="N" horiz-adv-x="500" 
d="M281 0l-106 486v-486h-175v1434h165l107 -491v491h175v-1434h-166z" />
    <glyph glyph-name="O" unicode="O" 
d="M0 1234q0 90 64 154t154 64t154.5 -64t64.5 -154v-1033q0 -90 -64.5 -154t-154.5 -64t-154 64t-64 154v1033zM262 1234q0 18 -12.5 30.5t-31.5 12.5q-18 0 -30.5 -12.5t-12.5 -30.5v-1033q0 -18 12.5 -30.5t30.5 -12.5q19 0 31.5 12.5t12.5 30.5v1033z" />
    <glyph glyph-name="P" unicode="P" horiz-adv-x="541" 
d="M52 1434h219q90 0 154 -64t64 -154v-476q0 -90 -64 -154.5t-155 -64.5h-43v-521h-175v521l-87 175h87v738zM314 1216q0 18 -12.5 30.5t-30.5 12.5h-44v-563h44q18 0 30.5 12.5t12.5 31.5v476z" />
    <glyph glyph-name="Q" unicode="Q" 
d="M262 1233q0 19 -12.5 31.5t-31.5 12.5q-18 0 -30.5 -12.5t-12.5 -31.5v-1032q0 -18 12.5 -31t30.5 -13q19 0 31.5 13t12.5 31v1032zM262 -13q-21 -4 -44 -4q-90 0 -154 63.5t-64 154.5v1032q0 90 64 154.5t154 64.5t154.5 -64.5t64.5 -154.5v-1242q0 -18 12.5 -30.5
t30.5 -12.5h53v-175h-53q-90 0 -154 64q-62 62 -64 150z" />
    <glyph glyph-name="R" unicode="R" horiz-adv-x="541" 
d="M314 1216q0 18 -12.5 30.5t-30.5 12.5h-44v-563h44q18 0 30.5 12.5t12.5 31.5v476zM52 1434h219q90 0 154 -63.5t64 -154.5v-498q0 -60 -29 -109q29 -49 29 -109v-509q0 -18 12.5 -30.5t31.5 -12.5h52v-175h-52q-91 0 -155 64t-64 154v487q0 18 -12.5 30.5t-30.5 12.5
h-44v-521h-175v521l-87 175h87v738z" />
    <glyph glyph-name="S" unicode="S" 
d="M437 1234v-332h-175v332q0 18 -12.5 30.5t-31.5 12.5q-18 0 -30.5 -12.5t-12.5 -30.5v-494q0 -18 12.5 -30.5t30.5 -12.5q90 0 154.5 -64.5t64.5 -154.5v-277q0 -90 -64.5 -154t-154.5 -64t-154 64t-64 154v180h175v-180q0 -18 12.5 -30.5t30.5 -12.5q19 0 31.5 12.5
t12.5 30.5v277q0 19 -12.5 31.5t-31.5 12.5q-90 0 -154 63.5t-64 154.5v494q0 90 64 154t154 64t154.5 -64t64.5 -154z" />
    <glyph glyph-name="T" unicode="T" horiz-adv-x="472" 
d="M306 1259v-1259h-175v1259h-131v175h437v-175h-131z" />
    <glyph glyph-name="U" unicode="U" 
d="M0 201v1233h175v-1233q0 -18 12.5 -30.5t30.5 -12.5q19 0 31.5 12.5t12.5 30.5v1233h175v-1233q0 -90 -64.5 -154t-154.5 -64t-154 64t-64 154z" />
    <glyph glyph-name="V" unicode="V" horiz-adv-x="562" 
d="M176 0l-176 1434h176l88 -717l87 717h176l-176 -1434h-175z" />
    <glyph glyph-name="W" unicode="W" horiz-adv-x="793" 
d="M133 0l-150 1434h175l63 -600l62 600h175l63 -600l63 600h175l-151 -1434h-174l-63 600l-63 -600h-175z" />
    <glyph glyph-name="X" unicode="X" horiz-adv-x="576" 
d="M541 1434l-196 -727l191 -707h-183l-97 347l-87 -347h-186l177 708l-167 726h186l80 -350l100 350h182z" />
    <glyph glyph-name="Y" unicode="Y" horiz-adv-x="522" 
d="M323 481v-481h-175v481l-165 953h183l69 -362l71 362h181z" />
    <glyph glyph-name="Z" unicode="Z" horiz-adv-x="502" 
d="M467 1434l-277 -1260h240v-174h-430v107l258 1153h-234v174h443z" />
    <glyph glyph-name="bracketleft" unicode="[" horiz-adv-x="384" 
d="M349 1609v-174h-174v-1434h174v-175h-349v1783h349z" />
    <glyph glyph-name="backslash" unicode="\" horiz-adv-x="780" 
d="M169 1588l611 -1681l-169 -60l-611 1680z" />
    <glyph glyph-name="bracketright" unicode="]" horiz-adv-x="401" 
d="M349 1609v-1783h-349v175h175v1434h-175v174h349z" />
    <glyph glyph-name="asciicircum" unicode="^" horiz-adv-x="241" 
d="M93 738l-43 -107h-50l45 175h99l45 -175h-51z" />
    <glyph glyph-name="underscore" unicode="_" 
d="M489 -350h-489v44h489v-44z" />
    <glyph glyph-name="grave" unicode="`" horiz-adv-x="123" 
d="M73 895l-73 175h79l44 -175h-50z" />
    <glyph glyph-name="a" unicode="a" 
d="M175 539v-539h-175v1234q0 91 64 154.5t154 63.5t154.5 -63.5t64.5 -154.5v-1234h-175v539h-87zM262 714v520q0 18 -12.5 31t-31.5 13q-18 0 -30.5 -13t-12.5 -31v-520h87z" />
    <glyph glyph-name="b" unicode="b" 
d="M175 521v-325h43q19 0 31.5 13t12.5 31v238q0 18 -12.5 30.5t-31.5 12.5h-43zM262 1216q0 18 -12.5 30.5t-31.5 12.5h-43v-563h43q19 0 31.5 12.5t12.5 31.5v476zM0 1434h218q91 0 155 -64t64 -154v-498q0 -60 -29 -109q29 -49 29 -109v-282q0 -90 -64 -154t-156 -64
h-217v1434z" />
    <glyph glyph-name="c" unicode="c" 
d="M437 1234v-332h-175v332q0 18 -12.5 30.5t-31.5 12.5q-18 0 -30.5 -12.5t-12.5 -30.5v-1033q0 -18 12.5 -30.5t30.5 -12.5q19 0 31.5 12.5t12.5 30.5v180h175v-180q0 -90 -64.5 -154t-154.5 -64t-154 64t-64 154v1033q0 90 64 154t154 64t154.5 -64t64.5 -154z" />
    <glyph glyph-name="d" unicode="d" 
d="M262 1216q0 18 -12.5 30.5t-31.5 12.5h-43v-1063h43q19 0 31.5 13t12.5 31v976zM0 1434h218q91 0 155 -64t64 -154v-998q0 -90 -64 -154t-156 -64h-217v1434z" />
    <glyph glyph-name="e" unicode="e" horiz-adv-x="475" 
d="M423 0h-423v1434h423v-175h-248v-563h248v-175h-248v-346h248v-175z" />
    <glyph glyph-name="f" unicode="f" horiz-adv-x="475" 
d="M175 0h-175v1434h423v-175h-248v-563h248v-175h-248v-521z" />
    <glyph glyph-name="g" unicode="g" 
d="M437 1234v-332h-175v332q0 18 -12.5 30.5t-31.5 12.5q-18 0 -30.5 -12.5t-12.5 -30.5v-1033q0 -18 12.5 -30.5t30.5 -12.5q19 0 31.5 12.5t12.5 30.5v321h-52v175h227v-496q0 -90 -64.5 -154t-154.5 -64t-154 64t-64 154v1033q0 90 64 154t154 64t154.5 -64t64.5 -154z
" />
    <glyph glyph-name="h" unicode="h" 
d="M0 1434h175v-738h87v738h175v-1434h-175v521h-87v-521h-175v1434z" />
    <glyph glyph-name="i" unicode="i" horiz-adv-x="227" 
d="M175 1434v-1434h-175v1434h175z" />
    <glyph glyph-name="j" unicode="j" 
d="M262 201v1233h175v-1233q0 -90 -64 -154t-155 -64q-90 0 -154 64t-64 154v180h175v-180q0 -18 12.5 -30.5t30.5 -12.5q19 0 31.5 12.5t12.5 30.5z" />
    <glyph glyph-name="k" unicode="k" 
d="M175 958l84 476h178l-134 -755q38 -15 70 -47q64 -64 64 -154v-478h-175v478q0 18 -12.5 30.5t-31.5 12.5h-43v-521h-175v1434h175v-476z" />
    <glyph glyph-name="l" unicode="l" horiz-adv-x="458" 
d="M423 0h-423v1434h175v-1259h248v-175z" />
    <glyph glyph-name="m" unicode="m" horiz-adv-x="751" 
d="M262 1234q0 18 -12.5 31t-31.5 13q-18 0 -30.5 -13t-12.5 -31v-1234h-175v1234q0 91 64 154.5t154 63.5q75 0 131 -43q56 43 131 43q90 0 154.5 -63.5t64.5 -154.5v-1234h-175v1234q0 18 -12.5 31t-31.5 13q-18 0 -30.5 -13t-12.5 -31v-1234h-175v1234z" />
    <glyph glyph-name="n" unicode="n" 
d="M64 1388.5q64 63.5 154 63.5t154.5 -63.5t64.5 -154.5v-1234h-175v1234q0 18 -12.5 31t-31.5 13q-18 0 -30.5 -13t-12.5 -31v-1234h-175v1234q0 91 64 154.5z" />
    <glyph glyph-name="o" unicode="o" 
d="M0 1234q0 90 64 154t154 64t154.5 -64t64.5 -154v-1033q0 -90 -64.5 -154t-154.5 -64t-154 64t-64 154v1033zM262 1234q0 18 -12.5 30.5t-31.5 12.5q-18 0 -30.5 -12.5t-12.5 -30.5v-1033q0 -18 12.5 -30.5t30.5 -12.5q19 0 31.5 12.5t12.5 30.5v1033z" />
    <glyph glyph-name="p" unicode="p" 
d="M0 1434h218q91 0 155 -64t64 -154v-476q0 -90 -64 -154.5t-156 -64.5h-42v-521h-175v1434zM262 1216q0 18 -12.5 30.5t-31.5 12.5h-43v-563h43q19 0 31.5 12.5t12.5 31.5v476z" />
    <glyph glyph-name="q" unicode="q" 
d="M262 1233q0 19 -12.5 31.5t-31.5 12.5q-18 0 -30.5 -12.5t-12.5 -31.5v-1032q0 -18 12.5 -31t30.5 -13q19 0 31.5 13t12.5 31v1032zM262 -13q-21 -4 -44 -4q-90 0 -154 63.5t-64 154.5v1032q0 90 64 154.5t154 64.5t154.5 -64.5t64.5 -154.5v-1242q0 -18 12.5 -30.5
t30.5 -12.5h53v-175h-53q-90 0 -154 64q-62 62 -64 150z" />
    <glyph glyph-name="r" unicode="r" 
d="M262 1216q0 18 -12.5 30.5t-31.5 12.5h-43v-563h43q19 0 31.5 12.5t12.5 31.5v476zM0 1434h218q91 0 155 -64t64 -154v-498q0 -60 -29 -109q29 -49 29 -109v-500h-175v478q0 18 -12.5 30.5t-31.5 12.5h-43v-521h-175v1434z" />
    <glyph glyph-name="s" unicode="s" 
d="M0 201v332h175v-332q0 -18 12.5 -30.5t30.5 -12.5q19 0 31.5 12.5t12.5 30.5v494q0 18 -12.5 30.5t-31.5 12.5q-90 0 -154 64.5t-64 154.5v277q0 90 64 154t154 64q91 0 155 -64t64 -154v-180h-175v180q0 18 -12.5 30.5t-31.5 12.5q-18 0 -30.5 -12.5t-12.5 -30.5v-277
q0 -19 12.5 -31.5t30.5 -12.5q91 0 155 -63.5t64 -154.5v-494q0 -90 -64 -154t-155 -64q-90 0 -154 64t-64 154z" />
    <glyph glyph-name="t" unicode="t" horiz-adv-x="472" 
d="M306 1259v-1259h-175v1259h-131v175h437v-175h-131z" />
    <glyph glyph-name="u" unicode="u" 
d="M0 201v1233h175v-1233q0 -18 12.5 -30.5t30.5 -12.5q19 0 31.5 12.5t12.5 30.5v1233h175v-1233q0 -90 -64.5 -154t-154.5 -64t-154 64t-64 154z" />
    <glyph glyph-name="v" unicode="v" horiz-adv-x="562" 
d="M167 79l-167 1355h176l88 -717l87 717h176l-167 -1355q0 -40 -28.5 -68t-67.5 -28q-40 0 -68.5 28t-28.5 68z" />
    <glyph glyph-name="w" unicode="w" horiz-adv-x="751" 
d="M262 1434h175v-1233q0 -18 12.5 -30.5t30.5 -12.5q19 0 31.5 12.5t12.5 30.5v1233h175v-1233q0 -90 -64.5 -154t-154.5 -64q-75 0 -131 44q-56 -44 -131 -44q-90 0 -154 64t-64 154v1233h175v-1233q0 -18 12.5 -30.5t30.5 -12.5q19 0 31.5 12.5t12.5 30.5v1233z" />
    <glyph glyph-name="x" unicode="x" horiz-adv-x="576" 
d="M541 1434l-196 -727l191 -707h-183l-97 347l-87 -347h-186l177 708l-167 726h186l80 -350l100 350h182z" />
    <glyph glyph-name="y" unicode="y" 
d="M0 201v180h175v-180q0 -18 12.5 -30.5t30.5 -12.5q19 0 31.5 12.5t12.5 30.5v325q-21 -4 -44 -4q-90 0 -154 63.5t-64 154.5v694h175v-694q0 -18 12.5 -30.5t30.5 -12.5q19 0 31.5 12.5t12.5 30.5v694h175v-1233q0 -90 -64.5 -154t-154.5 -64t-154 64t-64 154z" />
    <glyph glyph-name="z" unicode="z" horiz-adv-x="502" 
d="M467 1434l-277 -1260h240v-174h-430v107l258 1153h-234v174h443z" />
    <glyph glyph-name="braceleft" unicode="{" horiz-adv-x="563" 
d="M528 -174h-134q-88 0 -152 64q-63 63 -63 150v408q0 74 -52.5 126.5t-126.5 52.5v179q73 0 127 51q52 53 52 127v410q0 89 63 152q64 63 152 63h134v-174h-138q-36 0 -36 -36v-504q0 -74 -52.5 -126.5t-126.5 -52.5q74 0 126.5 -52.5t52.5 -126.5v-501q0 -35 36 -35h138
v-175z" />
    <glyph glyph-name="bar" unicode="|" horiz-adv-x="227" 
d="M175 -174h-175v1783h175v-1783z" />
    <glyph glyph-name="braceright" unicode="}" horiz-adv-x="581" 
d="M0 1h139q36 0 36 35v501q0 74 52 126.5t127 52.5q-75 0 -127 52.5t-52 126.5v504q0 36 -36 36h-139v174h134q89 0 152 -63t63 -152v-410q0 -74 53 -127q53 -51 126 -51v-179q-74 0 -126.5 -52.5t-52.5 -126.5v-408q0 -87 -63 -150q-63 -64 -152 -64h-134v175z" />
    <glyph glyph-name="asciitilde" unicode="~" horiz-adv-x="265" 
d="M155 652q-20 0 -51 28q-32 28 -39 28q-18 0 -18 -22v-32h-47v43q0 88 58 88q20 0 51 -27q32 -27 40 -27q17 0 17 21v33h47v-43q0 -90 -58 -90z" />
    <glyph glyph-name="exclamdown" unicode="&#xa1;" horiz-adv-x="252" 
d="M24 1189h174v-1189h-174v1189zM0 1342q0 45 32.5 77t78.5 32t78.5 -32t32.5 -77q0 -46 -32.5 -78.5t-78.5 -32.5q-45 0 -78 32.5t-33 78.5z" />
    <glyph glyph-name="cent" unicode="&#xa2;" horiz-adv-x="780" 
d="M608 1054v-152h-55l-207 -569v-132q0 -18 12.5 -30.5t31.5 -12.5q18 0 30.5 12.5t12.5 30.5v180h175v-180q0 -90 -64.5 -154t-153.5 -64q-88 0 -150 59l-71 -196l-169 60l171 471v857q0 90 64 154t155 64q87 0 150 -60l71 195l169 -61zM433 1097v137q0 18 -12.5 30.5
t-30.5 12.5q-19 0 -31.5 -12.5t-12.5 -30.5v-377z" />
    <glyph glyph-name="sterling" unicode="&#xa3;" horiz-adv-x="545" 
d="M70 667h-70v50h70v44h-70v50h70v623h262v-175h-87v-448h244v-50h-244v-44h244v-50h-244v-492h248v-175h-423v667z" />
    <glyph glyph-name="currency" unicode="&#xa4;" horiz-adv-x="1167" 
 />
    <glyph glyph-name="yen" unicode="&#xa5;" horiz-adv-x="541" 
d="M348 667l-28 -186v-481h-149v481l-28 186h-143v50h136l-6 44h-130v50h123l-92 623h156l58 -362l61 362h152l-91 -623h122v-50h-128l-7 -44h135v-50h-141z" />
    <glyph glyph-name="brokenbar" unicode="&#xa6;" horiz-adv-x="227" 
d="M175 -174h-175v685h175v-685zM175 925h-175v684h175v-684z" />
    <glyph glyph-name="section" unicode="&#xa7;" horiz-adv-x="886" 
 />
    <glyph glyph-name="dieresis" unicode="&#xa8;" horiz-adv-x="314" 
d="M249 895q-25 0 -45.5 19.5t-20.5 45.5t20.5 46t45.5 20q26 0 45.5 -20t19.5 -46t-19.5 -45.5t-45.5 -19.5zM65 895q-25 0 -45 19.5t-20 45.5t20 46t45 20q26 0 46 -20t20 -46t-20 -45.5t-46 -19.5z" />
    <glyph glyph-name="copyright" unicode="&#xa9;" horiz-adv-x="1521" 
d="M879 1058v-219h-116v219q0 12 -8 20.5t-21 8.5q-12 0 -20 -8.5t-8 -20.5v-681q0 -12 8 -20.5t20 -8.5q13 0 21 8.5t8 20.5v119h116v-119q0 -60 -42.5 -102t-102.5 -42t-102 42t-42 102v681q0 59 42 101.5t102 42.5t102.5 -42.5t42.5 -101.5zM734 -17q-303 0 -518.5 215.5
t-215.5 518.5q0 304 215.5 519.5t518.5 215.5q304 0 519.5 -215.5t215.5 -519.5q0 -303 -215.5 -518.5t-519.5 -215.5zM1172.5 279.5q181.5 181.5 181.5 437.5q0 257 -181.5 438.5t-438.5 181.5q-256 0 -437.5 -181.5t-181.5 -438.5q0 -256 181.5 -437.5t437.5 -181.5
q257 0 438.5 181.5z" />
    <glyph glyph-name="ordfeminine" unicode="&#xaa;" horiz-adv-x="340" 
d="M115.495 886.387v-323.387h-115.495v740.37q0 54.5977 42.2383 92.6963q42.2383 38.0977 101.636 38.0977t101.966 -38.0977q42.5684 -38.0986 42.5684 -92.6963v-740.37h-115.495v323.387h-57.418zM172.913 991.383v311.987q0 10.7998 -8.25 18.5986
q-8.24902 7.7998 -20.7891 7.7998q-11.8799 0 -20.1289 -7.7998q-8.25 -7.79883 -8.25 -18.5986v-311.987h57.418zM266.5 475h-244.5v44h244.5v-44z" />
    <glyph glyph-name="guillemotleft" unicode="&#xab;" horiz-adv-x="695" 
d="M310 718l235 236l115 -115l-121 -121l121 -122l-115 -115zM0 718l237 236l115 -115l-121 -121l121 -122l-115 -115z" />
    <glyph glyph-name="logicalnot" unicode="&#xac;" horiz-adv-x="886" 
 />
    <glyph glyph-name="registered" unicode="&#xae;" horiz-adv-x="1521" 
d="M761 1047q0 12 -8.5 20.5t-20.5 8.5h-29v-373h29q12 0 20.5 8.5t8.5 20.5v315zM588 1191h144q60 0 102 -42t42 -102v-329q0 -40 -19 -72q19 -32 19 -72v-221q0 -12 8.5 -20.5t20.5 -8.5h35v-115h-35q-60 0 -102 42.5t-42 101.5v206q0 13 -8.5 21t-20.5 8h-29v-344h-115
v344l-58 115h58v488zM734 -17q-303 0 -518.5 215.5t-215.5 518.5q0 304 215.5 519.5t518.5 215.5q304 0 519.5 -215.5t215.5 -519.5q0 -303 -215.5 -518.5t-519.5 -215.5zM1172.5 279.5q181.5 181.5 181.5 437.5q0 257 -181.5 438.5t-438.5 181.5q-256 0 -437.5 -181.5
t-181.5 -438.5q0 -256 181.5 -437.5t437.5 -181.5q257 0 438.5 181.5z" />
    <glyph glyph-name="macron" unicode="&#xaf;" horiz-adv-x="585" 
 />
    <glyph glyph-name="degree" unicode="&#xb0;" horiz-adv-x="346" 
d="M147 1041q-57 0 -102 44t-45 103q0 56 45 101t102 45q56 0 101 -45t45 -101q0 -59 -45 -103t-101 -44zM197.5 1135.5q21.5 22.5 21.5 52.5q0 27 -21.5 49.5t-50.5 22.5q-30 0 -52.5 -22.5t-22.5 -49.5q0 -30 22.5 -52.5t52.5 -22.5q29 0 50.5 22.5z" />
    <glyph glyph-name="plusminus" unicode="&#xb1;" horiz-adv-x="631" 
d="M376 805h202v-174h-202v-202h-174v202h-202v174h202v202h174v-202zM578 167h-578v175h578v-175z" />
    <glyph glyph-name="uni00B2" unicode="&#xb2;" horiz-adv-x="341" 
d="M115 686h173v-105h-288v244q0 54 42 92.5t102 38.5q12 0 20.5 7.5t8.5 18.5v339q0 11 -8.5 18.5t-20.5 7.5t-20.5 -7.5t-8.5 -18.5v-109h-115v109q0 54 42 92.5t102 38.5q59 0 101.5 -38.5t42.5 -92.5v-339q0 -54 -42.5 -92.5t-101.5 -38.5q-12 0 -20.5 -7.5t-8.5 -18.5
v-139z" />
    <glyph glyph-name="uni00B3" unicode="&#xb3;" horiz-adv-x="341" 
d="M115 1321v-108h-115v108q0 54 42 92.5t102 38.5q59 0 101.5 -38.5t42.5 -92.5v-124q0 -44 -29 -78q29 -34 29 -79v-338q0 -55 -42.5 -93t-101.5 -38q-60 0 -102 38t-42 93v107h115v-107q0 -11 8.5 -18.5t20.5 -7.5t20.5 7.5t8.5 18.5v338q0 11 -8.5 18.5t-20.5 7.5h-29
v105h29q12 0 20.5 8t8.5 18v124q0 12 -8.5 19t-20.5 7t-20.5 -7t-8.5 -19z" />
    <glyph glyph-name="acute" unicode="&#xb4;" horiz-adv-x="121" 
d="M50 895h-50l45 175h76z" />
    <glyph glyph-name="mu" unicode="&#xb5;" horiz-adv-x="1031" 
 />
    <glyph glyph-name="paragraph" unicode="&#xb6;" horiz-adv-x="894" 
 />
    <glyph glyph-name="periodcentered" unicode="&#xb7;" horiz-adv-x="444" 
 />
    <glyph glyph-name="periodcentered" unicode="&#x2219;" horiz-adv-x="444" 
 />
    <glyph glyph-name="cedilla" unicode="&#xb8;" horiz-adv-x="894" 
d="M123 -44v-39q42 0 72 -29q30 -31 30 -74q0 -41 -30 -71t-72 -30h-123v81h123q21 0 21 20q0 22 -21 22h-82v120h82z" />
    <glyph glyph-name="uni00B9" unicode="&#xb9;" horiz-adv-x="886" 
 />
    <glyph glyph-name="ordmasculine" unicode="&#xba;" horiz-adv-x="340" 
d="M0 1303.37q0 53.9971 42.2383 92.3955t101.636 38.3984t101.966 -38.3984t42.5684 -92.3955v-619.775q0 -53.9971 -42.5684 -92.3955t-101.966 -38.3984t-101.636 38.3984t-42.2383 92.3955v619.775zM172.913 1303.37q0 10.7998 -8.25 18.2988q-8.24902 7.5 -20.7891 7.5
q-11.8799 0 -20.1289 -7.5q-8.25 -7.49902 -8.25 -18.2988v-619.775q0 -10.7988 8.25 -18.2988q8.24902 -7.5 20.1289 -7.5q12.54 0 20.7891 7.5q8.25 7.5 8.25 18.2988v619.775zM266.5 465h-244.5v44h244.5v-44z" />
    <glyph glyph-name="guillemotright" unicode="&#xbb;" horiz-adv-x="695" 
d="M115 481l-115 115l121 122l-121 121l115 115l235 -236zM424 481l-116 115l121 122l-121 121l116 115l236 -236z" />
    <glyph glyph-name="onequarter" unicode="&#xbc;" horiz-adv-x="739" 
d="M526 330v257l-49 -257h49zM641 860v-530h46l-46 -99v-231h-115v231h-173v69l109 560h179zM115 574h-115v783l115 77v-860zM292 1434v-1434h-116v1434h116z" />
    <glyph glyph-name="onehalf" unicode="&#xbd;" horiz-adv-x="693" 
d="M468 105h173v-105h-288v245q0 53 42.5 92t101.5 39q12 0 20.5 7t8.5 19v338q0 11 -8.5 18.5t-20.5 7.5t-20.5 -7.5t-8.5 -18.5v-108h-115v108q0 54 42.5 92.5t101.5 38.5t101.5 -38.5t42.5 -92.5v-338q0 -55 -42.5 -93t-101.5 -38q-12 0 -20.5 -8t-8.5 -18v-140zM115 574
h-115v783l115 77v-860zM292 1434v-1434h-116v1434h116z" />
    <glyph glyph-name="threequarters" unicode="&#xbe;" horiz-adv-x="922" 
d="M699 330v257l-49 -257h49zM814 860v-530h56l-56 -99v-231h-115v231h-173v69l109 560h179zM115 1321v-108h-115v108q0 55 42 93t102 38q59 0 101.5 -38t42.5 -93v-124q0 -44 -29 -78q29 -34 29 -79v-338q0 -55 -42.5 -93t-101.5 -38q-60 0 -102 38t-42 93v108h115v-108
q0 -11 8.5 -18.5t20.5 -7.5t20.5 7.5t8.5 18.5v338q0 12 -8.5 19t-20.5 7h-29v105h29q12 0 20.5 8t8.5 18v124q0 12 -8.5 19.5t-20.5 7.5t-20.5 -7.5t-8.5 -19.5zM465 1434v-1434h-116v1434h116z" />
    <glyph glyph-name="questiondown" unicode="&#xbf;" 
d="M113 1339q0 45 34.5 79t77.5 34q45 0 79 -34t34 -79q0 -44 -34 -78t-79 -34q-43 0 -77.5 34t-34.5 78zM262 201v180h175v-180q0 -90 -64 -154t-155 -64q-90 0 -154 64t-64 154v694q0 91 65 154q33 34 73 49v92h175v-252h-95q-18 0 -30.5 -12.5t-12.5 -30.5v-694
q0 -18 12.5 -30.5t30.5 -12.5q19 0 31.5 12.5t12.5 30.5z" />
    <glyph glyph-name="Agrave" unicode="&#xc0;" horiz-adv-x="527" 
d="M247 717l-51 -410h101zM175 133l-16 -133h-176l176 1434h175l176 -1434h-176l-17 133h-142zM231 1513l-73 175h79l44 -175h-50z" />
    <glyph glyph-name="Aacute" unicode="&#xc1;" horiz-adv-x="527" 
d="M247 717l-51 -410h101zM175 133l-16 -133h-176l176 1434h175l176 -1434h-176l-17 133h-142zM295 1513h-50l45 175h76z" />
    <glyph glyph-name="Acircumflex" unicode="&#xc2;" horiz-adv-x="527" 
d="M247 717l-51 -410h101zM175 133l-16 -133h-176l176 1434h175l176 -1434h-176l-17 133h-142zM255 1620l-43 -107h-50l45 175h99l45 -175h-51z" />
    <glyph glyph-name="Atilde" unicode="&#xc3;" horiz-adv-x="527" 
d="M247 717l-51 -410h101zM175 133l-16 -133h-176l176 1434h175l176 -1434h-176l-17 133h-142zM321 1513q-20 0 -51 28q-32 28 -39 28q-18 0 -18 -22v-32h-47v43q0 88 58 88q20 0 51 -27q32 -27 40 -27q17 0 17 21v33h47v-43q0 -90 -58 -90z" />
    <glyph glyph-name="Adieresis" unicode="&#xc4;" horiz-adv-x="527" 
d="M247 717l-51 -410h101zM175 133l-16 -133h-176l176 1434h175l176 -1434h-176l-17 133h-142zM353 1513q-25 0 -45.5 19.5t-20.5 45.5t20.5 46t45.5 20q26 0 45.5 -20t19.5 -46t-19.5 -45.5t-45.5 -19.5zM169 1513q-25 0 -45 19.5t-20 45.5t20 46t45 20q26 0 46 -20t20 -46
t-20 -45.5t-46 -19.5z" />
    <glyph glyph-name="Aring" unicode="&#xc5;" horiz-adv-x="527" 
d="M247 717l-51 -410h101zM175 133l-16 -133h-176l176 1434h175l176 -1434h-176l-17 133h-142zM250 1436q-40 0 -72.5 31.5t-32.5 73.5q0 40 32.5 72.5t72.5 32.5t72.5 -32.5t32.5 -72.5q0 -42 -32.5 -73.5t-72.5 -31.5zM286 1504q15 16 15 37q0 19 -15 35t-36 16t-37 -16
t-16 -35q0 -21 16 -37t37 -16t36 16z" />
    <glyph glyph-name="AE" unicode="&#xc6;" horiz-adv-x="722" 
d="M247 133h-72l-16 -133h-176l176 1434h510v-175h-248v-563h248v-175h-248v-346h248v-175h-422v133zM247 717l-51 -410h51v410z" />
    <glyph glyph-name="Ccedilla" unicode="&#xc7;" 
d="M174 -12q-63 12 -110 59q-64 64 -64 155v1032q0 90 64 154t154 64t154.5 -64t64.5 -154v-332h-175v332q0 18 -12.5 30.5t-31.5 12.5q-18 0 -30.5 -12.5t-12.5 -30.5v-1032q0 -19 12.5 -31.5t30.5 -12.5q19 0 31.5 12.5t12.5 31.5v179h175v-179q0 -91 -64 -155
q-51 -50 -117 -61v-32q42 0 71 -29q31 -31 31 -74q0 -41 -31 -71q-29 -30 -71 -30h-123v81h123q21 0 21 20q0 22 -21 22h-82v115z" />
    <glyph glyph-name="Egrave" unicode="&#xc8;" horiz-adv-x="510" 
d="M475 0h-423v521l-87 175h87v738h423v-175h-248v-563h248v-175h-248v-346h248v-175zM291 1513l-73 175h79l44 -175h-50z" />
    <glyph glyph-name="Eacute" unicode="&#xc9;" horiz-adv-x="510" 
d="M475 0h-423v521l-87 175h87v738h423v-175h-248v-563h248v-175h-248v-346h248v-175zM316 1513h-50l45 175h76z" />
    <glyph glyph-name="Ecircumflex" unicode="&#xca;" horiz-adv-x="510" 
d="M475 0h-423v521l-87 175h87v738h423v-175h-248v-563h248v-175h-248v-346h248v-175zM287 1620l-43 -107h-50l45 175h99l45 -175h-51z" />
    <glyph glyph-name="Edieresis" unicode="&#xcb;" horiz-adv-x="510" 
d="M475 0h-423v521l-87 175h87v738h423v-175h-248v-563h248v-175h-248v-346h248v-175zM371 1513q-25 0 -45.5 19.5t-20.5 45.5t20.5 46t45.5 20q26 0 45.5 -20t19.5 -46t-19.5 -45.5t-45.5 -19.5zM187 1513q-25 0 -45 19.5t-20 45.5t20 46t45 20q26 0 46 -20t20 -46
t-20 -45.5t-46 -19.5z" />
    <glyph glyph-name="Igrave" unicode="&#xcc;" horiz-adv-x="210" 
d="M175 1434v-1434h-175v1434h175zM79 1513l-73 175h79l44 -175h-50z" />
    <glyph glyph-name="Iacute" unicode="&#xcd;" horiz-adv-x="210" 
d="M175 1434v-1434h-175v1434h175zM104 1513h-50l45 175h76z" />
    <glyph glyph-name="Icircumflex" unicode="&#xce;" horiz-adv-x="210" 
d="M176 1434v-1434h-175v1434h175zM86 1620l-43 -107h-50l45 175h99l45 -175h-51z" />
    <glyph glyph-name="Idieresis" unicode="&#xcf;" horiz-adv-x="209" 
d="M185 1434v-1434h-175v1434h175zM179 1513q-25 0 -45.5 19.5t-20.5 45.5t20.5 46t45.5 20q26 0 45.5 -20t19.5 -46t-19.5 -45.5t-45.5 -19.5zM-5 1513q-25 0 -45 19.5t-20 45.5t20 46t45 20q26 0 46 -20t20 -46t-20 -45.5t-46 -19.5z" />
    <glyph glyph-name="Eth" unicode="&#xd0;" horiz-adv-x="1326" 
 />
    <glyph glyph-name="Ntilde" unicode="&#xd1;" horiz-adv-x="500" 
d="M281 0l-106 486v-486h-175v1434h165l107 -491v491h175v-1434h-166zM289 1513q-20 0 -51 28q-32 28 -39 28q-18 0 -18 -22v-32h-47v43q0 88 58 88q20 0 51 -27q32 -27 40 -27q17 0 17 21v33h47v-43q0 -90 -58 -90z" />
    <glyph glyph-name="Ograve" unicode="&#xd2;" 
d="M0 1234q0 90 64 154t154 64t154.5 -64t64.5 -154v-1033q0 -90 -64.5 -154t-154.5 -64t-154 64t-64 154v1033zM262 1234q0 18 -12.5 30.5t-31.5 12.5q-18 0 -30.5 -12.5t-12.5 -30.5v-1033q0 -18 12.5 -30.5t30.5 -12.5q19 0 31.5 12.5t12.5 30.5v1033zM229 1513l-73 175
h79l44 -175h-50z" />
    <glyph glyph-name="Oacute" unicode="&#xd3;" 
d="M0 1234q0 90 64 154t154 64t154.5 -64t64.5 -154v-1033q0 -90 -64.5 -154t-154.5 -64t-154 64t-64 154v1033zM262 1234q0 18 -12.5 30.5t-31.5 12.5q-18 0 -30.5 -12.5t-12.5 -30.5v-1033q0 -18 12.5 -30.5t30.5 -12.5q19 0 31.5 12.5t12.5 30.5v1033zM254 1513h-50
l45 175h76z" />
    <glyph glyph-name="Ocircumflex" unicode="&#xd4;" 
d="M0 1234q0 90 64 154t154 64t154.5 -64t64.5 -154v-1033q0 -90 -64.5 -154t-154.5 -64t-154 64t-64 154v1033zM262 1234q0 18 -12.5 30.5t-31.5 12.5q-18 0 -30.5 -12.5t-12.5 -30.5v-1033q0 -18 12.5 -30.5t30.5 -12.5q19 0 31.5 12.5t12.5 30.5v1033zM235 1620l-43 -107
h-50l45 175h99l45 -175h-51z" />
    <glyph glyph-name="Otilde" unicode="&#xd5;" 
d="M0 1234q0 90 64 154t154 64t154.5 -64t64.5 -154v-1033q0 -90 -64.5 -154t-154.5 -64t-154 64t-64 154v1033zM262 1234q0 18 -12.5 30.5t-31.5 12.5q-18 0 -30.5 -12.5t-12.5 -30.5v-1033q0 -18 12.5 -30.5t30.5 -12.5q19 0 31.5 12.5t12.5 30.5v1033zM283 1513
q-20 0 -51 28q-32 28 -39 28q-18 0 -18 -22v-32h-47v43q0 88 58 88q20 0 51 -27q32 -27 40 -27q17 0 17 21v33h47v-43q0 -90 -58 -90z" />
    <glyph glyph-name="Odieresis" unicode="&#xd6;" 
d="M0 1234q0 90 64 154t154 64t154.5 -64t64.5 -154v-1033q0 -90 -64.5 -154t-154.5 -64t-154 64t-64 154v1033zM262 1234q0 18 -12.5 30.5t-31.5 12.5q-18 0 -30.5 -12.5t-12.5 -30.5v-1033q0 -18 12.5 -30.5t30.5 -12.5q19 0 31.5 12.5t12.5 30.5v1033zM319 1513
q-25 0 -45.5 19.5t-20.5 45.5t20.5 46t45.5 20q26 0 45.5 -20t19.5 -46t-19.5 -45.5t-45.5 -19.5zM135 1513q-25 0 -45 19.5t-20 45.5t20 46t45 20q26 0 46 -20t20 -46t-20 -45.5t-46 -19.5z" />
    <glyph glyph-name="multiply" unicode="&#xd7;" horiz-adv-x="585" 
d="M266 842l143 143l124 -124l-143 -143l143 -142l-124 -124l-143 143l-143 -143l-123 124l142 142l-142 143l123 124z" />
    <glyph glyph-name="Oslash" unicode="&#xd8;" horiz-adv-x="622" 
d="M362 1097v137q0 18 -12.5 30.5t-30.5 12.5q-19 0 -31.5 -12.5t-12.5 -30.5v-377zM362 573l-87 -240v-132q0 -18 12.5 -30.5t31.5 -12.5q18 0 30.5 12.5t12.5 30.5v372zM100 377v857q0 90 64 154t155 64q87 0 150 -60l71 195l169 -61l-172 -472v-853q0 -90 -64.5 -154
t-153.5 -64q-88 0 -150 59l-71 -196l-169 60z" />
    <glyph glyph-name="Ugrave" unicode="&#xd9;" 
d="M0 201v1233h175v-1233q0 -18 12.5 -30.5t30.5 -12.5q19 0 31.5 12.5t12.5 30.5v1233h175v-1233q0 -90 -64.5 -154t-154.5 -64t-154 64t-64 154zM229 1513l-73 175h79l44 -175h-50z" />
    <glyph glyph-name="Uacute" unicode="&#xda;" 
d="M0 201v1233h175v-1233q0 -18 12.5 -30.5t30.5 -12.5q19 0 31.5 12.5t12.5 30.5v1233h175v-1233q0 -90 -64.5 -154t-154.5 -64t-154 64t-64 154zM254 1513h-50l45 175h76z" />
    <glyph glyph-name="Ucircumflex" unicode="&#xdb;" 
d="M0 201v1233h175v-1233q0 -18 12.5 -30.5t30.5 -12.5q19 0 31.5 12.5t12.5 30.5v1233h175v-1233q0 -90 -64.5 -154t-154.5 -64t-154 64t-64 154zM235 1620l-43 -107h-50l45 175h99l45 -175h-51z" />
    <glyph glyph-name="Udieresis" unicode="&#xdc;" 
d="M0 201v1233h175v-1233q0 -18 12.5 -30.5t30.5 -12.5q19 0 31.5 12.5t12.5 30.5v1233h175v-1233q0 -90 -64.5 -154t-154.5 -64t-154 64t-64 154zM319 1513q-25 0 -45.5 19.5t-20.5 45.5t20.5 46t45.5 20q26 0 45.5 -20t19.5 -46t-19.5 -45.5t-45.5 -19.5zM135 1513
q-25 0 -45 19.5t-20 45.5t20 46t45 20q26 0 46 -20t20 -46t-20 -45.5t-46 -19.5z" />
    <glyph glyph-name="Yacute" unicode="&#xdd;" horiz-adv-x="504" 
d="M323 481v-481h-175v481l-165 953h183l69 -362l71 362h181zM272 1513h-50l45 175h76z" />
    <glyph glyph-name="Thorn" unicode="&#xde;" horiz-adv-x="978" 
 />
    <glyph glyph-name="germandbls" unicode="&#xdf;" horiz-adv-x="541" 
d="M52 912v522h218q91 0 155 -64.5t64 -154.5v-281q0 -60 -29 -109q29 -49 29 -109v-515q0 -91 -64 -155t-154 -64v175q18 0 30.5 12.5t12.5 31.5v493q0 18 -12.5 31t-30.5 13v174q18 0 30.5 13t12.5 31v238q0 18 -12.5 30.5t-30.5 12.5h-44v-1412h-175v913l-87 174h87z" />
    <glyph glyph-name="agrave" unicode="&#xe0;" 
d="M175 539v-539h-175v1234q0 91 64 154.5t154 63.5t154.5 -63.5t64.5 -154.5v-1234h-175v539h-87zM262 714v520q0 18 -12.5 31t-31.5 13q-18 0 -30.5 -13t-12.5 -31v-520h87zM229 1513l-73 175h79l44 -175h-50z" />
    <glyph glyph-name="aacute" unicode="&#xe1;" 
d="M175 539v-539h-175v1234q0 91 64 154.5t154 63.5t154.5 -63.5t64.5 -154.5v-1234h-175v539h-87zM262 714v520q0 18 -12.5 31t-31.5 13q-18 0 -30.5 -13t-12.5 -31v-520h87zM254 1513h-50l45 175h76z" />
    <glyph glyph-name="acircumflex" unicode="&#xe2;" 
d="M175 539v-539h-175v1234q0 91 64 154.5t154 63.5t154.5 -63.5t64.5 -154.5v-1234h-175v539h-87zM262 714v520q0 18 -12.5 31t-31.5 13q-18 0 -30.5 -13t-12.5 -31v-520h87zM235 1620l-43 -107h-50l45 175h99l45 -175h-51z" />
    <glyph glyph-name="atilde" unicode="&#xe3;" 
d="M175 539v-539h-175v1234q0 91 64 154.5t154 63.5t154.5 -63.5t64.5 -154.5v-1234h-175v539h-87zM262 714v520q0 18 -12.5 31t-31.5 13q-18 0 -30.5 -13t-12.5 -31v-520h87zM283 1513q-20 0 -51 28q-32 28 -39 28q-18 0 -18 -22v-32h-47v43q0 88 58 88q20 0 51 -27
q32 -27 40 -27q17 0 17 21v33h47v-43q0 -90 -58 -90z" />
    <glyph glyph-name="adieresis" unicode="&#xe4;" 
d="M175 539v-539h-175v1234q0 91 64 154.5t154 63.5t154.5 -63.5t64.5 -154.5v-1234h-175v539h-87zM262 714v520q0 18 -12.5 31t-31.5 13q-18 0 -30.5 -13t-12.5 -31v-520h87zM319 1513q-25 0 -45.5 19.5t-20.5 45.5t20.5 46t45.5 20q26 0 45.5 -20t19.5 -46t-19.5 -45.5
t-45.5 -19.5zM135 1513q-25 0 -45 19.5t-20 45.5t20 46t45 20q26 0 46 -20t20 -46t-20 -45.5t-46 -19.5z" />
    <glyph glyph-name="aring" unicode="&#xe5;" 
d="M175 539v-539h-175v1234q0 91 64 154.5t154 63.5t154.5 -63.5t64.5 -154.5v-1234h-175v539h-87zM262 714v520q0 18 -12.5 31t-31.5 13q-18 0 -30.5 -13t-12.5 -31v-520h87zM218 1456q-40 0 -72.5 31.5t-32.5 73.5q0 40 32.5 72.5t72.5 32.5t72.5 -32.5t32.5 -72.5
q0 -42 -32.5 -73.5t-72.5 -31.5zM254 1524q15 16 15 37q0 19 -15 35t-36 16t-37 -16t-16 -35q0 -21 16 -37t37 -16t36 16z" />
    <glyph glyph-name="ae" unicode="&#xe6;" horiz-adv-x="737" 
d="M262 539h-87v-539h-175v1233q0 91 64 154.5t154 63.5q47 0 88 -17h379v-175h-248v-563h248v-175h-248v-346h248v-175h-423v539zM262 1233q0 18 -12.5 31t-31.5 13q-18 0 -30.5 -13t-12.5 -31v-519h87v519z" />
    <glyph glyph-name="ccedilla" unicode="&#xe7;" 
d="M174 -12q-63 12 -110 59q-64 64 -64 155v1032q0 90 64 154t154 64t154.5 -64t64.5 -154v-332h-175v332q0 18 -12.5 30.5t-31.5 12.5q-18 0 -30.5 -12.5t-12.5 -30.5v-1032q0 -19 12.5 -31.5t30.5 -12.5q19 0 31.5 12.5t12.5 31.5v179h175v-179q0 -91 -64 -155
q-51 -50 -117 -61v-32q42 0 71 -29q31 -31 31 -74q0 -41 -31 -71q-29 -30 -71 -30h-123v81h123q21 0 21 20q0 22 -21 22h-82v115z" />
    <glyph glyph-name="egrave" unicode="&#xe8;" horiz-adv-x="458" 
d="M423 0h-423v1434h423v-175h-248v-563h248v-175h-248v-346h248v-175zM221 1513l-73 175h79l44 -175h-50z" />
    <glyph glyph-name="eacute" unicode="&#xe9;" horiz-adv-x="458" 
d="M423 0h-423v1434h423v-175h-248v-563h248v-175h-248v-346h248v-175zM246 1513h-50l45 175h76z" />
    <glyph glyph-name="ecircumflex" unicode="&#xea;" horiz-adv-x="458" 
d="M423 0h-423v1434h423v-175h-248v-563h248v-175h-248v-346h248v-175zM227 1620l-43 -107h-50l45 175h99l45 -175h-51z" />
    <glyph glyph-name="edieresis" unicode="&#xeb;" horiz-adv-x="458" 
d="M423 0h-423v1434h423v-175h-248v-563h248v-175h-248v-346h248v-175zM311 1513q-25 0 -45.5 19.5t-20.5 45.5t20.5 46t45.5 20q26 0 45.5 -20t19.5 -46t-19.5 -45.5t-45.5 -19.5zM127 1513q-25 0 -45 19.5t-20 45.5t20 46t45 20q26 0 46 -20t20 -46t-20 -45.5t-46 -19.5z
" />
    <glyph glyph-name="igrave" unicode="&#xec;" horiz-adv-x="227" 
d="M175 1434v-1434h-175v1434h175zM79 1513l-73 175h79l44 -175h-50z" />
    <glyph glyph-name="iacute" unicode="&#xed;" horiz-adv-x="228" 
d="M175 1434v-1434h-175v1434h175zM104 1513h-50l45 175h76z" />
    <glyph glyph-name="icircumflex" unicode="&#xee;" horiz-adv-x="227" 
d="M176 1434v-1434h-175v1434h175zM86 1620l-43 -107h-50l45 175h99l45 -175h-51z" />
    <glyph glyph-name="idieresis" unicode="&#xef;" horiz-adv-x="227" 
d="M185 1434v-1434h-175v1434h175zM189 1513q-25 0 -45.5 19.5t-20.5 45.5t20.5 46t45.5 20q26 0 45.5 -20t19.5 -46t-19.5 -45.5t-45.5 -19.5zM5 1513q-25 0 -45 19.5t-20 45.5t20 46t45 20q26 0 46 -20t20 -46t-20 -45.5t-46 -19.5z" />
    <glyph glyph-name="eth" unicode="&#xf0;" horiz-adv-x="995" 
 />
    <glyph glyph-name="ntilde" unicode="&#xf1;" horiz-adv-x="500" 
d="M64 1388.5q64 63.5 154 63.5t154.5 -63.5t64.5 -154.5v-1234h-175v1234q0 18 -12.5 31t-31.5 13q-18 0 -30.5 -13t-12.5 -31v-1234h-175v1234q0 91 64 154.5zM289 1513q-20 0 -51 28q-32 28 -39 28q-18 0 -18 -22v-32h-47v43q0 88 58 88q20 0 51 -27q32 -27 40 -27
q17 0 17 21v33h47v-43q0 -90 -58 -90z" />
    <glyph glyph-name="ograve" unicode="&#xf2;" 
d="M0 1234q0 90 64 154t154 64t154.5 -64t64.5 -154v-1033q0 -90 -64.5 -154t-154.5 -64t-154 64t-64 154v1033zM262 1234q0 18 -12.5 30.5t-31.5 12.5q-18 0 -30.5 -12.5t-12.5 -30.5v-1033q0 -18 12.5 -30.5t30.5 -12.5q19 0 31.5 12.5t12.5 30.5v1033zM229 1513l-73 175
h79l44 -175h-50z" />
    <glyph glyph-name="oacute" unicode="&#xf3;" 
d="M0 1234q0 90 64 154t154 64t154.5 -64t64.5 -154v-1033q0 -90 -64.5 -154t-154.5 -64t-154 64t-64 154v1033zM262 1234q0 18 -12.5 30.5t-31.5 12.5q-18 0 -30.5 -12.5t-12.5 -30.5v-1033q0 -18 12.5 -30.5t30.5 -12.5q19 0 31.5 12.5t12.5 30.5v1033zM254 1513h-50
l45 175h76z" />
    <glyph glyph-name="ocircumflex" unicode="&#xf4;" 
d="M0 1234q0 90 64 154t154 64t154.5 -64t64.5 -154v-1033q0 -90 -64.5 -154t-154.5 -64t-154 64t-64 154v1033zM262 1234q0 18 -12.5 30.5t-31.5 12.5q-18 0 -30.5 -12.5t-12.5 -30.5v-1033q0 -18 12.5 -30.5t30.5 -12.5q19 0 31.5 12.5t12.5 30.5v1033zM235 1620l-43 -107
h-50l45 175h99l45 -175h-51z" />
    <glyph glyph-name="otilde" unicode="&#xf5;" 
d="M0 1234q0 90 64 154t154 64t154.5 -64t64.5 -154v-1033q0 -90 -64.5 -154t-154.5 -64t-154 64t-64 154v1033zM262 1234q0 18 -12.5 30.5t-31.5 12.5q-18 0 -30.5 -12.5t-12.5 -30.5v-1033q0 -18 12.5 -30.5t30.5 -12.5q19 0 31.5 12.5t12.5 30.5v1033zM283 1513
q-20 0 -51 28q-32 28 -39 28q-18 0 -18 -22v-32h-47v43q0 88 58 88q20 0 51 -27q32 -27 40 -27q17 0 17 21v33h47v-43q0 -90 -58 -90z" />
    <glyph glyph-name="odieresis" unicode="&#xf6;" 
d="M0 1234q0 90 64 154t154 64t154.5 -64t64.5 -154v-1033q0 -90 -64.5 -154t-154.5 -64t-154 64t-64 154v1033zM262 1234q0 18 -12.5 30.5t-31.5 12.5q-18 0 -30.5 -12.5t-12.5 -30.5v-1033q0 -18 12.5 -30.5t30.5 -12.5q19 0 31.5 12.5t12.5 30.5v1033zM319 1513
q-25 0 -45.5 19.5t-20.5 45.5t20.5 46t45.5 20q26 0 45.5 -20t19.5 -46t-19.5 -45.5t-45.5 -19.5zM135 1513q-25 0 -45 19.5t-20 45.5t20 46t45 20q26 0 46 -20t20 -46t-20 -45.5t-46 -19.5z" />
    <glyph glyph-name="divide" unicode="&#xf7;" horiz-adv-x="631" 
d="M578 631h-578v174h578v-174zM402 1005q0 -44 -34 -78t-79 -34q-44 0 -78.5 34t-34.5 78q0 45 34.5 79t78.5 34q45 0 79 -34t34 -79zM402 431q0 -44 -34 -78.5t-79 -34.5q-44 0 -78.5 34.5t-34.5 78.5t34.5 78t78.5 34q45 0 79 -34t34 -78z" />
    <glyph glyph-name="oslash" unicode="&#xf8;" horiz-adv-x="622" 
d="M362 1097v137q0 18 -12.5 30.5t-30.5 12.5q-19 0 -31.5 -12.5t-12.5 -30.5v-377zM362 573l-87 -240v-132q0 -18 12.5 -30.5t31.5 -12.5q18 0 30.5 12.5t12.5 30.5v372zM100 377v857q0 90 64 154t155 64q87 0 150 -60l71 195l169 -61l-172 -472v-853q0 -90 -64.5 -154
t-153.5 -64q-88 0 -150 59l-71 -196l-169 60z" />
    <glyph glyph-name="ugrave" unicode="&#xf9;" 
d="M0 201v1233h175v-1233q0 -18 12.5 -30.5t30.5 -12.5q19 0 31.5 12.5t12.5 30.5v1233h175v-1233q0 -90 -64.5 -154t-154.5 -64t-154 64t-64 154zM229 1513l-73 175h79l44 -175h-50z" />
    <glyph glyph-name="uacute" unicode="&#xfa;" 
d="M0 201v1233h175v-1233q0 -18 12.5 -30.5t30.5 -12.5q19 0 31.5 12.5t12.5 30.5v1233h175v-1233q0 -90 -64.5 -154t-154.5 -64t-154 64t-64 154zM254 1513h-50l45 175h76z" />
    <glyph glyph-name="ucircumflex" unicode="&#xfb;" 
d="M0 201v1233h175v-1233q0 -18 12.5 -30.5t30.5 -12.5q19 0 31.5 12.5t12.5 30.5v1233h175v-1233q0 -90 -64.5 -154t-154.5 -64t-154 64t-64 154zM235 1620l-43 -107h-50l45 175h99l45 -175h-51z" />
    <glyph glyph-name="udieresis" unicode="&#xfc;" 
d="M0 201v1233h175v-1233q0 -18 12.5 -30.5t30.5 -12.5q19 0 31.5 12.5t12.5 30.5v1233h175v-1233q0 -90 -64.5 -154t-154.5 -64t-154 64t-64 154zM319 1513q-25 0 -45.5 19.5t-20.5 45.5t20.5 46t45.5 20q26 0 45.5 -20t19.5 -46t-19.5 -45.5t-45.5 -19.5zM135 1513
q-25 0 -45 19.5t-20 45.5t20 46t45 20q26 0 46 -20t20 -46t-20 -45.5t-46 -19.5z" />
    <glyph glyph-name="yacute" unicode="&#xfd;" horiz-adv-x="486" 
d="M0 201v180h175v-180q0 -18 12.5 -30.5t30.5 -12.5q19 0 31.5 12.5t12.5 30.5v325q-21 -4 -44 -4q-90 0 -154 63.5t-64 154.5v694h175v-694q0 -18 12.5 -30.5t30.5 -12.5q19 0 31.5 12.5t12.5 30.5v694h175v-1233q0 -90 -64.5 -154t-154.5 -64t-154 64t-64 154zM254 1513
h-50l45 175h76z" />
    <glyph glyph-name="thorn" unicode="&#xfe;" horiz-adv-x="882" 
 />
    <glyph glyph-name="ydieresis" unicode="&#xff;" horiz-adv-x="486" 
d="M0 201v180h175v-180q0 -18 12.5 -30.5t30.5 -12.5q19 0 31.5 12.5t12.5 30.5v325q-21 -4 -44 -4q-90 0 -154 63.5t-64 154.5v694h175v-694q0 -18 12.5 -30.5t30.5 -12.5q19 0 31.5 12.5t12.5 30.5v694h175v-1233q0 -90 -64.5 -154t-154.5 -64t-154 64t-64 154zM319 1513
q-25 0 -45.5 19.5t-20.5 45.5t20.5 46t45.5 20q26 0 45.5 -20t19.5 -46t-19.5 -45.5t-45.5 -19.5zM135 1513q-25 0 -45 19.5t-20 45.5t20 46t45 20q26 0 46 -20t20 -46t-20 -45.5t-46 -19.5z" />
    <glyph glyph-name="dotlessi" unicode="&#x131;" horiz-adv-x="227" 
d="M175 1434v-1434h-175v1434h175z" />
    <glyph glyph-name="OE" unicode="&#x152;" horiz-adv-x="737" 
d="M262 1216q0 18 -12.5 30.5t-31.5 12.5q-18 0 -30.5 -12.5t-12.5 -30.5v-998q0 -18 12.5 -30.5t30.5 -12.5q19 0 31.5 12.5t12.5 30.5v998zM262 4q-21 -4 -44 -4q-90 0 -154 64t-64 154v998q0 90 64 154t154 64q23 0 44 -4v4h423v-175h-248v-563h248v-175h-248v-346h248
v-175h-423v4z" />
    <glyph glyph-name="oe" unicode="&#x153;" horiz-adv-x="737" 
d="M262 1216q0 18 -12.5 30.5t-31.5 12.5q-18 0 -30.5 -12.5t-12.5 -30.5v-998q0 -18 12.5 -30.5t30.5 -12.5q19 0 31.5 12.5t12.5 30.5v998zM262 4q-21 -4 -44 -4q-90 0 -154 64t-64 154v998q0 90 64 154t154 64q23 0 44 -4v4h423v-175h-248v-563h248v-175h-248v-346h248
v-175h-423v4z" />
    <glyph glyph-name="circumflex" unicode="&#x2c6;" horiz-adv-x="241" 
d="M93 1002l-43 -107h-50l45 175h99l45 -175h-51z" />
    <glyph glyph-name="caron" unicode="&#x2c7;" horiz-adv-x="894" 
 />
    <glyph glyph-name="uni02C9" unicode="&#x2c9;" horiz-adv-x="894" 
 />
    <glyph glyph-name="breve" unicode="&#x2d8;" horiz-adv-x="894" 
 />
    <glyph glyph-name="dotaccent" unicode="&#x2d9;" horiz-adv-x="894" 
 />
    <glyph glyph-name="ring" unicode="&#x2da;" horiz-adv-x="262" 
d="M88 1456q-40 0 -72.5 31.5t-32.5 73.5q0 40 32.5 72.5t72.5 32.5t72.5 -32.5t32.5 -72.5q0 -42 -32.5 -73.5t-72.5 -31.5zM124 1524q15 16 15 37q0 19 -15 35t-36 16t-37 -16t-16 -35q0 -21 16 -37t37 -16t36 16z" />
    <glyph glyph-name="ogonek" unicode="&#x2db;" horiz-adv-x="894" 
 />
    <glyph glyph-name="tilde" unicode="&#x2dc;" horiz-adv-x="213" 
d="M155 895q-20 0 -51 28q-32 28 -39 28q-18 0 -18 -22v-32h-47v43q0 88 58 88q20 0 51 -27q32 -27 40 -27q17 0 17 21v33h47v-43q0 -90 -58 -90z" />
    <glyph glyph-name="hungarumlaut" unicode="&#x2dd;" horiz-adv-x="894" 
 />
    <glyph glyph-name="endash" unicode="&#x2013;" horiz-adv-x="534" 
d="M481 631h-481v175h481v-175z" />
    <glyph glyph-name="emdash" unicode="&#x2014;" horiz-adv-x="631" 
d="M578 631h-578v175h578v-175z" />
    <glyph glyph-name="quoteleft" unicode="&#x2018;" horiz-adv-x="296" 
d="M261 1194l-127 -66q-102 146 -102 193q0 45 34 79t79 34q44 0 78 -34t34 -79q0 -27 -22 -60q8 -28 26 -67z" />
    <glyph glyph-name="quoteright" unicode="&#x2019;" horiz-adv-x="293" 
d="M258 1321q0 -47 -102 -193l-127 66q17 39 24 67q-21 33 -21 60q0 45 34.5 79t78.5 34q45 0 79 -34t34 -79z" />
    <glyph glyph-name="quotesinglbase" unicode="&#x201a;" horiz-adv-x="271" 
d="M236 107q0 -48 -101 -194l-128 66q17 39 25 67q-22 34 -22 61q0 44 34.5 78.5t78.5 34.5q45 0 79 -34.5t34 -78.5z" />
    <glyph glyph-name="quotedblleft" unicode="&#x201c;" horiz-adv-x="528" 
d="M493 1193l-130 -66q-102 147 -102 194q0 44 34 78.5t78 34.5q45 0 79 -34.5t34 -78.5q0 -27 -22 -61q3 -8 29 -67zM247 1193l-128 -66q-102 147 -102 194q0 44 34.5 78.5t79.5 34.5q43 0 77.5 -34.5t34.5 -78.5q0 -27 -22 -61q8 -28 26 -67z" />
    <glyph glyph-name="quotedblright" unicode="&#x201d;" horiz-adv-x="532" 
d="M497 1321q0 -48 -101 -194l-128 66q18 39 26 67q-22 34 -22 61q0 44 34.5 78.5t77.5 34.5q45 0 79 -34.5t34 -78.5zM251 1321q0 -48 -102 -194l-127 66q17 39 24 67q-21 34 -21 61q0 44 34.5 78.5t78.5 34.5t78.5 -34.5t34.5 -78.5z" />
    <glyph glyph-name="quotedblbase" unicode="&#x201e;" horiz-adv-x="511" 
d="M476 107q0 -48 -102 -194l-127 66q18 39 25 67q-21 34 -21 61q0 44 34 78.5t78 34.5t78.5 -34.5t34.5 -78.5zM236 107q0 -48 -101 -194l-128 66q17 39 25 67q-22 34 -22 61q0 44 34.5 78.5t78.5 34.5q45 0 79 -34.5t34 -78.5z" />
    <glyph glyph-name="dagger" unicode="&#x2020;" horiz-adv-x="886" 
 />
    <glyph glyph-name="daggerdbl" unicode="&#x2021;" horiz-adv-x="886" 
 />
    <glyph glyph-name="bullet" unicode="&#x2022;" horiz-adv-x="894" 
 />
    <glyph glyph-name="ellipsis" unicode="&#x2026;" horiz-adv-x="1789" 
 />
    <glyph glyph-name="guilsinglleft" unicode="&#x2039;" horiz-adv-x="387" 
d="M0 718l237 236l115 -115l-121 -121l121 -122l-115 -115z" />
    <glyph glyph-name="guilsinglright" unicode="&#x203a;" horiz-adv-x="387" 
d="M115 481l-115 115l121 122l-121 121l115 115l237 -236z" />
    <glyph glyph-name="fraction" unicode="&#x2044;" horiz-adv-x="168" 
d="M115 1434v-1434h-115v1434h115z" />
    <glyph glyph-name="fraction" unicode="&#x2215;" horiz-adv-x="168" 
d="M115 1434v-1434h-115v1434h115z" />
    <glyph glyph-name="lira" unicode="&#x20a4;" horiz-adv-x="886" 
 />
    <glyph glyph-name="Euro" unicode="&#x20ac;" horiz-adv-x="559" 
d="M70 667h-70v50h70v44h-70v50h70v423q0 90 63.5 154t154.5 64q90 0 154.5 -64t64.5 -154v-332h-175v332q0 18 -12.5 30.5t-31.5 12.5q-18 0 -30.5 -12.5t-12.5 -30.5v-423h244v-50h-244v-44h244v-50h-244v-466q0 -18 12.5 -30.5t30.5 -12.5q19 0 31.5 12.5t12.5 30.5v180
h175v-180q0 -90 -64.5 -154t-154.5 -64q-91 0 -154.5 64t-63.5 154v466z" />
    <glyph glyph-name="afii61352" unicode="&#x2116;" horiz-adv-x="865" 
d="M281 0l-106 486v-486h-175v1434h165l107 -491v491h175v-1434h-166zM697 1320q0 12 -8.5 19.5t-20.5 7.5t-20.5 -7.5t-8.5 -19.5v-619q0 -11 8.5 -18.5t20.5 -7.5t20.5 7.5t8.5 18.5v619zM524 1320q0 55 42 93t102 38q59 0 101.5 -38t42.5 -93v-619q0 -55 -42.5 -93
t-101.5 -38q-60 0 -102 38t-42 93v619zM790 483h-244v44h244v-44z" />
    <glyph glyph-name="trademark" unicode="&#x2122;" horiz-adv-x="582" 
d="M196 1264h-58v-504h-79v504h-59v70h275l87 -367l89 367h78v-574h-78v239l-58 -239h-60l-58 240v-240h-79v504z" />
    <glyph glyph-name="partialdiff" unicode="&#x2202;" horiz-adv-x="886" 
 />
    <glyph glyph-name="Delta" unicode="&#x2206;" horiz-adv-x="944" 
 />
    <glyph glyph-name="product" unicode="&#x220f;" horiz-adv-x="1323" 
 />
    <glyph glyph-name="summation" unicode="&#x2211;" horiz-adv-x="1053" 
 />
    <glyph glyph-name="minus" unicode="&#x2212;" horiz-adv-x="631" 
d="M578 543h-578v175h578v-175z" />
    <glyph glyph-name="radical" unicode="&#x221a;" horiz-adv-x="886" 
 />
    <glyph glyph-name="infinity" unicode="&#x221e;" horiz-adv-x="886" 
 />
    <glyph glyph-name="integral" unicode="&#x222b;" horiz-adv-x="581" 
 />
    <glyph glyph-name="approxequal" unicode="&#x2248;" horiz-adv-x="886" 
 />
    <glyph glyph-name="lessequal" unicode="&#x2264;" horiz-adv-x="886" 
 />
    <glyph glyph-name="greaterequal" unicode="&#x2265;" horiz-adv-x="886" 
 />
    <glyph glyph-name="ct" unicode="&#xeec5;" horiz-adv-x="865" 
d="M218 1260q-18 0 -30.5 -13t-12.5 -31v-1015q0 -18 12.5 -30.5t30.5 -12.5q19 0 31.5 12.5t12.5 30.5v180h175v-180q0 -90 -64.5 -154t-154.5 -64t-154 64t-64 154v1015q0 90 64 154t154 64h612v-174h-131v-1260h-175v1260h-306z" />
    <glyph glyph-name="fa" unicode="&#xeec8;" horiz-adv-x="999" 
d="M772 696v520q0 18 -12.5 30.5t-31.5 12.5q-18 0 -30.5 -12.5t-12.5 -30.5v-520h87zM510 1259h-335v-563h248v-175h-248v-521h-175v1434h728q90 0 154.5 -64t64.5 -154v-1216h-175v521h-87v-521h-175v1259z" />
    <glyph glyph-name="fj" unicode="&#xeec9;" horiz-adv-x="751" 
d="M524 1260h-349v-563h248v-175h-248v-522h-175v1434h699v-1233q0 -90 -64 -154t-155 -64q-90 0 -154 64t-64 154v180h175v-180q0 -18 12.5 -30.5t30.5 -12.5q19 0 31.5 12.5t12.5 30.5v1059z" />
    <glyph glyph-name="fr" unicode="&#xeeca;" horiz-adv-x="999" 
d="M772 1216q0 18 -12.5 30.5t-31.5 12.5h-43v-563h43q19 0 31.5 12.5t12.5 31.5v476zM510 1259h-335v-563h248v-175h-248v-521h-175v1434h728q91 0 155 -64t64 -154v-498q0 -60 -29 -109q29 -49 29 -109v-500h-175v478q0 18 -12.5 30.5t-31.5 12.5h-43v-521h-175v1259z" />
    <glyph glyph-name="ft" unicode="&#xeecb;" horiz-adv-x="851" 
d="M175 1259v-563h248v-175h-248v-521h-175v1434h816v-175h-131v-1259h-175v1259h-335z" />
    <glyph glyph-name="fu" unicode="&#xeecc;" horiz-adv-x="999" 
d="M510 1260h-335v-563h248v-175h-248v-522h-175v1434h685v-1233q0 -18 12.5 -30.5t30.5 -12.5q19 0 31.5 12.5t12.5 30.5v1233h175v-1233q0 -90 -64.5 -154t-154.5 -64t-154 64t-64 154v1059z" />
    <glyph glyph-name="fy" unicode="&#xeecd;" horiz-adv-x="982" 
d="M493 1260h-318v-563h248v-175h-248v-522h-175v1434h667v-694q0 -18 13 -30.5t31 -12.5t31 12.5t13 30.5v694h174v-1233q0 -90 -64 -154t-154 -64q-91 0 -154.5 64t-63.5 154v180h174v-180q0 -18 13 -30.5t31 -12.5t31 12.5t13 30.5v325q-21 -4 -44 -4q-91 0 -154.5 63.5
t-63.5 154.5v520z" />
    <glyph glyph-name="fft" unicode="&#xeece;" horiz-adv-x="1273" 
d="M423 1259h-248v-563h248v563zM1238 1434v-175h-131v-1259h-174v1259h-336v-563h248v-175h-248v-521h-174v521h-248v-521h-175v1434h1238z" />
    <glyph glyph-name="ffy" unicode="&#xeecf;" horiz-adv-x="1404" 
d="M423 522h-248v-522h-175v1434h1090v-694q0 -18 12.5 -30.5t31.5 -12.5q18 0 30.5 12.5t12.5 30.5v694h175v-1233q0 -90 -64 -154t-154 -64q-91 0 -155 64t-64 154v180h175v-180q0 -18 12.5 -30.5t31.5 -12.5q18 0 30.5 12.5t12.5 30.5v325q-21 -4 -43 -4q-91 0 -155 63.5
t-64 154.5v520h-318v-563h248v-175h-248v-522h-174v522zM423 1260h-248v-563h248v563z" />
    <glyph glyph-name="fty" unicode="&#xeed0;" horiz-adv-x="1305" 
d="M990 1434v-694q0 -18 13 -30.5t31 -12.5t31 12.5t13 30.5v694h174v-1233q0 -90 -64 -154t-154 -64q-91 0 -154.5 64t-63.5 154v180h174v-180q0 -18 13 -30.5t31 -12.5t31 12.5t13 30.5v325q-21 -4 -44 -4q-91 0 -154.5 63.5t-63.5 154.5v520h-131v-1260h-175v1260h-335
v-563h248v-175h-248v-522h-175v1434h990z" />
    <glyph glyph-name="tt" unicode="&#xeed9;" horiz-adv-x="908" 
d="M306 1259v-1259h-175v1259h-131v175h873v-175h-131v-1259h-174v1259h-262z" />
    <glyph glyph-name="ty" unicode="&#xeedb;" horiz-adv-x="926" 
d="M437 1260h-131v-1260h-175v1260h-131v174h611v-694q0 -18 13 -30.5t31 -12.5t31 12.5t13 30.5v694h174v-1233q0 -90 -64 -154t-154 -64q-91 0 -154.5 64t-63.5 154v180h174v-180q0 -18 13 -30.5t31 -12.5t31 12.5t13 30.5v325q-21 -4 -44 -4q-91 0 -154.5 63.5
t-63.5 154.5v520z" />
    <glyph glyph-name="tz" unicode="&#xeedc;" horiz-adv-x="895" 
d="M437 1260v-1h-131v-1259h-175v1259h-131v175h860l-277 -1260h240v-174h-430v107l258 1153h-214z" />
    <glyph glyph-name="ff" unicode="&#xfb00;" horiz-adv-x="898" 
d="M423 521h-248v-521h-175v1434h845v-175h-248v-563h248v-175h-248v-521h-174v521zM423 1259h-248v-563h248v563z" />
    <glyph glyph-name="fi" unicode="&#xfb01;" horiz-adv-x="737" 
d="M510 1259h-335v-563h248v-175h-248v-521h-175v1434h685v-1434h-175v1259z" />
    <glyph glyph-name="fl" unicode="&#xfb02;" horiz-adv-x="968" 
d="M510 1259h-335v-563h248v-175h-248v-521h-175v1434h685v-1259h248v-175h-423v1259z" />
    <glyph glyph-name="ffi" unicode="&#xfb03;" horiz-adv-x="1160" 
d="M423 521h-248v-521h-175v1434h1107v-1434h-174v1259h-336v-563h248v-175h-248v-521h-174v521zM423 1259h-248v-563h248v563z" />
    <glyph glyph-name="ffl" unicode="&#xfb04;" horiz-adv-x="1390" 
d="M423 521h-248v-521h-175v1434h1107v-1259h248v-175h-422v1259h-336v-563h248v-175h-248v-521h-174v521zM423 1259h-248v-563h248v563z" />
    <glyph glyph-name="st" unicode="&#xfb06;" horiz-adv-x="865" 
d="M218 1260q-18 0 -30.5 -13t-12.5 -31v-476q0 -18 12.5 -30.5t30.5 -12.5q90 0 154.5 -64.5t64.5 -154.5v-277q0 -90 -64.5 -154t-154.5 -64t-154 64t-64 154v180h175v-180q0 -18 12.5 -30.5t30.5 -12.5q19 0 31.5 12.5t12.5 30.5v277q0 19 -12.5 31.5t-31.5 12.5
q-90 0 -154 63.5t-64 154.5v476q0 90 64 154t154 64h612v-174h-131v-1260h-175v1260h-306z" />
    </font>
</defs>
</svg>
