<?xml version="1.0" encoding="utf-8"?>
<!-- Generator: Adobe Illustrator 23.0.1, SVG Export Plug-In . SVG Version: 6.00 Build 0)  -->
<svg version="1.1" id="Capa_1" xmlns="http://www.w3.org/2000/svg" xmlns:xlink="http://www.w3.org/1999/xlink" x="0px" y="0px"
	 viewBox="0 0 585.5 252.02" style="enable-background:new 0 0 585.5 252.02;" xml:space="preserve">
<style type="text/css">
	.st0{fill:#FFFFFF;}
	.st1{enable-background:new    ;}
</style>
<g>
	<g>
		<g>
			<path class="st0" d="M109.91,124.9l37.17-55.76c0.38-0.56,1.01-0.9,1.68-0.9h19.87c1.62,0,2.58,1.8,1.68,3.15l-35.68,53.51
				c-0.45,0.68-0.45,1.57,0,2.25l35.68,53.51c0.9,1.35-0.07,3.15-1.68,3.15h-19.87c-0.68,0-1.31-0.34-1.68-0.9l-37.17-55.76
				C109.45,126.46,109.45,125.58,109.91,124.9z"/>
			<path class="st0" d="M126.32,180.66L55.08,73.8c-1.11-1.67-3.71-0.88-3.71,1.12v106.86c0,1.12,0.91,2.02,2.02,2.02h71.24
				C126.25,183.8,127.22,182,126.32,180.66z"/>
			<path class="st0" d="M74.42,68.24h50.22c1.62,0,2.58,1.8,1.68,3.15l-25.11,37.66c-0.8,1.2-2.57,1.2-3.37,0L72.73,71.39
				C71.84,70.04,72.8,68.24,74.42,68.24z"/>
		</g>
		<g>
			<path class="st0" d="M203.51,71.06V52.78L113.05,0.55c-1.26-0.73-2.8-0.73-4.06,0L2.04,62.3c-1.26,0.73-2.03,2.07-2.03,3.52
				v15.93l108.98-62.92c1.26-0.73,2.8-0.73,4.06,0L203.51,71.06z"/>
			<path class="st0" d="M15.83,72.62L0,81.76v104.45c0,1.45,0.77,2.79,2.03,3.52l106.95,61.75c1.26,0.73,2.8,0.73,4.06,0l13.8-7.97
				L17.86,180.59c-1.26-0.73-2.03-2.07-2.03-3.52L15.83,72.62z"/>
			<path class="st0" d="M111.02,234.38l15.83,9.14l90.46-52.23c1.26-0.73,2.03-2.07,2.03-3.52V64.27c0-1.45-0.77-2.79-2.03-3.52
				l-13.8-7.97v125.84c0,1.45-0.77,2.79-2.03,3.52L111.02,234.38z"/>
		</g>
	</g>
	<g>
		<g>
			<path class="st0" d="M317.64,181.61l-34.71-42.35v42.35h-15.41V92.9h15.41v39.85l33.33-39.85h19.54l-35.21,43.23l36.34,45.48
				L317.64,181.61L317.64,181.61z"/>
			<path class="st0" d="M394.07,140.26v14.04h-40.1v1.87c0,10.15,4.76,14.78,13.28,14.78c6.39,0,11.78-3.26,11.78-8.64v-1h14.91
				c0,13.78-10.65,22.05-26.69,22.05c-18.17,0-28.19-11.03-28.19-27.69v-12.15c0-16.67,10.02-27.32,27.82-27.32
				C383.16,116.2,394.07,126.35,394.07,140.26z M378.9,142.89v-2.51c0-7.89-3.88-11.78-11.78-11.78c-8.9,0-13.03,5.01-13.16,14.29
				L378.9,142.89L378.9,142.89z"/>
			<path class="st0" d="M407.47,93.9h15.29v15.91h-15.29L407.47,93.9L407.47,93.9z M407.72,117.96h14.91v63.65h-14.91L407.72,117.96
				L407.72,117.96z"/>
			<path class="st0" d="M436.16,156.3v-13.03c0-16.66,10.02-27.06,27.69-27.06c16.54,0,27.06,10.15,27.06,25.94v1.5h-15.04v-1.88
				c0-7.64-4.51-11.78-12.03-11.78c-8.65,0-12.78,4.76-12.78,13.78v12.03c0,9.02,4.14,13.78,12.78,13.78
				c7.39,0,12.03-4.26,12.03-11.78v-1.88h15.04v1.5c0,15.79-10.53,25.94-27.06,25.94C446.3,183.36,436.16,172.96,436.16,156.3z"/>
			<path class="st0" d="M556.94,140.26v14.04h-40.1v1.87c0,10.15,4.76,14.78,13.28,14.78c6.39,0,11.78-3.26,11.78-8.64v-1h14.91
				c0,13.78-10.65,22.05-26.69,22.05c-18.17,0-28.19-11.03-28.19-27.69v-12.15c0-16.67,10.02-27.32,27.82-27.32
				C546.04,116.2,556.94,126.35,556.94,140.26z M541.77,142.89v-2.51c0-7.89-3.88-11.78-11.78-11.78c-8.9,0-13.03,5.01-13.16,14.29
				L541.77,142.89L541.77,142.89z"/>
			<path class="st0" d="M585.5,85.13v96.48h-14.91V85.13H585.5L585.5,85.13z"/>
		</g>
		<g>
			<g class="st1">
				<path class="st0" d="M404.8,231.31v-1.11h3.62v1.32c0,3.09,2.8,5.19,7.25,5.19c4.16,0,6.88-1.89,6.88-5.02
					c0-7.58-17.08-3.46-17.08-13.71c0-4.4,3.05-7.95,9.88-7.95s10.21,3.46,10.21,8.36v1.28h-3.58v-1.4c0-2.8-2.43-4.78-6.63-4.78
					c-3.99,0-6.26,1.73-6.26,4.41c0,6.59,17.04,3.01,17.08,13.63c0.04,4.86-3.58,8.6-10.58,8.6
					C408.67,240.12,404.8,236.45,404.8,231.31z"/>
				<path class="st0" d="M430.98,235.22h3.71v4.36h-3.71L430.98,235.22L430.98,235.22z"/>
				<path class="st0" d="M456.55,232.01h-11.28l-2.55,7.58h-3.54l9.26-29.02h4.98l9.3,29.02h-3.58L456.55,232.01z M446.42,228.55
					h9.02l-4.53-14.2L446.42,228.55z"/>
				<path class="st0" d="M493.38,207.88v31.7h-2.43l-0.66-2.1c-1.44,1.77-3.71,2.63-6.46,2.63c-5.11,0-8.11-2.55-8.11-8.77v-4.32
					c0-6.22,3-8.77,8.11-8.77c2.51,0,4.65,0.7,6.09,2.18v-12.56h3.46L493.38,207.88L493.38,207.88z M489.93,231.76v-5.19
					c-0.29-3.42-2.26-4.98-5.48-4.98c-3.5,0-5.23,1.69-5.23,5.64v3.87c0,3.99,1.73,5.68,5.23,5.68
					C487.62,236.78,489.64,235.22,489.93,231.76z"/>
				<path class="st0" d="M515.98,226.04v4.2h-13.91v0.95c0,3.87,1.73,5.89,5.39,5.89c3,0,4.94-1.36,4.94-3.91v-0.25h3.5
					c0,4.61-3.29,7.16-8.36,7.16c-5.97,0-8.93-3.58-8.93-8.93v-4.03c0-5.35,3.05-8.85,8.73-8.85
					C512.65,218.26,515.98,221.38,515.98,226.04z M512.44,227.27v-1.19c0-3.21-1.73-4.82-4.98-4.82c-3.75,0-5.39,2.06-5.39,5.85
					v0.17L512.44,227.27L512.44,227.27z"/>
				<path class="st0" d="M530.47,230.89V219.2c0-5.64,3.75-9.18,10.91-9.18s10.95,3.54,10.95,9.18v1.94h-3.75v-1.65
					c0-3.87-2.18-6.01-7.16-6.01c-5.1,0-7.33,2.14-7.33,6.01v11.12c0,3.87,2.22,6.01,7.29,6.01c5.02,0,7.2-2.14,7.2-6.01v-1.65h3.75
					v1.94c0,5.64-3.75,9.18-10.91,9.18S530.47,236.53,530.47,230.89z"/>
				<path class="st0" d="M557.01,235.22h3.71v4.36h-3.71L557.01,235.22L557.01,235.22z"/>
				<path class="st0" d="M584.6,210.52l-8.89,29.02h-5.02l-8.89-29.02h3.66l7.74,24.41l7.74-24.41L584.6,210.52L584.6,210.52z"/>
			</g>
		</g>
		<g>
			<path class="st0" d="M292.03,2.46L292.03,2.46c-5,0-9.23,0.76-12.7,2.17c-0.13,0.05-0.25,0.1-0.38,0.16
				c-0.52,0.22-1.01,0.46-1.5,0.71c-0.13,0.07-0.27,0.13-0.4,0.2c-0.51,0.28-0.98,0.58-1.45,0.89c-0.24,0.16-0.47,0.33-0.7,0.5
				c-0.25,0.18-0.49,0.37-0.72,0.56c-0.24,0.19-0.47,0.38-0.7,0.58c-0.3,0.28-0.59,0.56-0.87,0.86c-0.29,0.3-0.56,0.62-0.83,0.94
				c-0.14,0.17-0.27,0.33-0.4,0.5c-0.22,0.29-0.44,0.58-0.64,0.89c-0.06,0.08-0.11,0.17-0.16,0.26c-2.02,3.16-3.06,7.02-3.06,11.48
				v25.83c0,11.46,6.91,19.01,20.55,20.23l26.42,6.79l1.94-7.5l-9.26-2.38c0.48-0.27,0.94-0.55,1.38-0.85
				c0.24-0.16,0.47-0.33,0.7-0.5c0.25-0.18,0.49-0.37,0.72-0.56c0.24-0.19,0.47-0.38,0.7-0.58c0.31-0.28,0.59-0.57,0.87-0.86
				c0.29-0.3,0.56-0.61,0.82-0.93c0.14-0.17,0.27-0.33,0.4-0.5c0.22-0.29,0.44-0.58,0.64-0.89c0.06-0.08,0.11-0.17,0.16-0.26
				c2.02-3.16,3.06-7.02,3.06-11.48V22.89C316.62,10.33,308.36,2.46,292.03,2.46z M291.87,10.16c0.09,0,0.16-0.01,0.25-0.01
				c11.75,0,16.33,4.86,16.33,13.65v24.46c0,3.78-0.87,6.81-2.82,9.04c-2.54,2.86-6.86,4.38-13.36,4.42c-0.09,0-0.16,0.01-0.25,0.01
				c-11.75,0-16.33-4.86-16.33-13.65V23.62c0-3.78,0.87-6.81,2.82-9.04C281.05,11.72,285.37,10.2,291.87,10.16z"/>
			<path class="st0" d="M358.56,51.74C357.73,58.7,353.33,62,347.18,62c-7.07,0-10.55-4.21-10.55-13.19V21.97h-7.8v27.02
				c0,14.29,6.42,20.43,16.98,20.43c5.87,0,10.83-2.02,13.95-6.05l1.38,4.86h5.23V21.97h-7.8L358.56,51.74L358.56,51.74z"/>
			<rect x="379.94" y="21.97" class="st0" width="7.8" height="46.26"/>
			<polygon class="st0" points="381.27,14.73 388.8,14.73 395.16,5.2 387.21,5.2 			"/>
			<path class="st0" d="M448.58,20.78c-5.78,0-11.01,2.57-13.95,7.69c-2.57-5.22-7.25-7.69-13.86-7.69c-5.14,0-9.73,2.02-12.76,5.95
				l-1.38-4.76h-5.23v46.26h7.8V38.37c0.83-6.69,4.96-10.17,10.37-10.17c6.15,0,9.64,4.31,9.64,12.83v27.21h7.8V40.85v-1.92
				c0.73-7.24,4.86-10.72,10.37-10.72c6.06,0,9.54,4.31,9.54,12.83v27.21h7.8V41.23C464.73,27.19,459.04,20.78,448.58,20.78z"/>
			<rect x="477.85" y="21.97" class="st0" width="7.8" height="46.26"/>
			<rect x="477.67" y="5.2" class="st0" width="8.26" height="9.53"/>
			<path class="st0" d="M517.04,20.78c-12.66,0-19.46,7.24-19.46,19.15v10.26c0,11.91,6.88,19.15,19.46,19.15
				c12.02,0,19.09-6.96,19.09-18.14v-0.92h-7.8v1.1c0,6.96-4.13,10.53-11.29,10.53c-8.08,0-11.65-4.03-11.65-12.18v-9.34
				c0-8.15,3.67-12.18,11.65-12.18c7.25,0,11.29,3.57,11.29,10.53v1.1h7.8v-0.92C536.13,27.74,528.97,20.78,517.04,20.78z"/>
			<path class="st0" d="M580.08,21.97l-1.47,4.67c-3.3-3.94-8.35-5.86-14.5-5.86c-11.38,0-18.08,5.68-18.08,19.51v9.62
				c0,13.74,6.7,19.51,18.08,19.51c6.15,0,11.2-1.92,14.5-5.86l1.47,4.67h5.41V21.97H580.08z M577.7,50.83
				c-0.64,7.69-5.14,11.18-12.21,11.18c-7.8,0-11.66-3.85-11.66-12.64v-8.61c0-8.79,3.85-12.55,11.66-12.55
				c7.16,0,11.56,3.48,12.21,11.08L577.7,50.83L577.7,50.83z"/>
		</g>
	</g>
</g>
</svg>
